<?xml version="1.0" encoding="utf-8"?>
<!-- Generator: Adobe Illustrator 22.1.0, SVG Export Plug-In . SVG Version: 6.00 Build 0)  -->
<svg version="1.1" id="图层_1" xmlns="http://www.w3.org/2000/svg" xmlns:xlink="http://www.w3.org/1999/xlink" x="0px" y="0px"
	 viewBox="0 0 500 500" style="enable-background:new 0 0 500 500;" xml:space="preserve">
<style type="text/css">
	.st0{fill:#FF931E;}
	.st1{fill:#AF4700;}
	.st2{fill:#E6E6E6;}
	.st3{fill:#969696;}
	.st4{fill:none;stroke:#090000;stroke-width:15;stroke-linecap:round;stroke-linejoin:round;}
</style>
<g>
	<path d="M114.2,225c0-6.5-3.2-11.2-9.3-14.1c-13-6.1-25.8-12.4-38.9-18.4c-2.6-1.1-6.3-1.7-8.8-0.9c-14.2,4.9-28.1,10.4-42.2,15.8
		c-8.4,3.2-10.6,6.3-10.6,15.6c0,7.3,0,14.8,0,22.2l0,0v11.6c0,4-0.2,8.1,0.1,12.2c0.2,2.3,0.7,5.2,2.2,6.8
		c5.2,5.6,11,10.3,17.6,14.6c1.1,0.8,2.3,2.1,3.6,3c2.1,1.5,4.2,3,6.4,4.4c2.1,1.5,4.6,2.5,6.3,4.4c5.9,6,15.7,8.5,22.2,5.3
		c3.9-2,7.7-4.2,11.5-6.5c10.9-6.7,23.3-10.6,33.5-18.7c4-3.2,6.4-6.2,6.5-10.6C114.3,256,114.3,240.5,114.2,225z M53.6,299.2
		c-1,0.2-1.3,0.3-1.4,0.2c-12.6-8.3-25.3-16.5-37.8-25c-0.9-0.6-1.4-2.5-1.4-3.8c-0.1-15.4-0.1-30.6-0.1-46c0-0.6,0.5-1.3,0.8-2.3
		c4.6,2.6,9,5.2,13.3,7.6c7.7,4.2,15.4,8.3,23,12.7c1.5,0.9,3.2,3.1,3.3,4.7C53.7,264.7,53.6,282,53.6,299.2z M52.4,238.5
		c-11.7-6.3-23.4-13-35-19.5c-0.7-0.3-1.1-1.3-2.4-2.8c10.9-4.1,21.2-7.2,30.8-11.9c10.8-5.4,20.3-4.5,30.1,1.8
		c4.2,2.8,9.2,4.5,13.8,6.7c4.6,2.2,9.2,4.4,14.8,7c-6.7,2.8-12.3,5.3-18.1,7.6c-9.4,3.8-18.9,7.5-28.5,11
		C56.2,239,53.8,239.2,52.4,238.5z M104.6,270.9c0,1.5-0.9,3.8-2.2,4.5c-14.1,8-28.5,15.8-43,23.9c0-17.8,0.1-34.4-0.1-51.1
		c0-3.4,1.1-4.8,4.4-6c11.4-4.2,22.5-9.1,33.7-13.5c4.8-2,7.7-0.5,7.7,4.8C105.2,245.9,105,258.4,104.6,270.9z"/>
	<path class="st0" d="M53.6,299.2c-1,0.2-1.3,0.3-1.4,0.2c-12.6-8.3-25.3-16.5-37.8-25c-0.9-0.6-1.4-2.5-1.4-3.8
		c-0.1-15.4-0.1-30.6-0.1-46c0-0.6,0.5-1.3,0.8-2.3c4.6,2.6,9,5.2,13.3,7.6c7.7,4.2,15.4,8.3,23,12.7c1.5,0.9,3.2,3.1,3.3,4.7
		C53.7,264.7,53.6,282,53.6,299.2z"/>
	<path class="st1" d="M104.6,270.9c0,1.5-0.9,3.8-2.2,4.5c-14.1,8-28.5,15.8-43,23.9c0-17.8,0.1-34.4-0.1-51.1c0-3.4,1.1-4.8,4.4-6
		c11.4-4.2,22.5-9.1,33.7-13.5c4.8-2,7.7-0.5,7.7,4.8C105.2,245.9,105,258.4,104.6,270.9z"/>
	<path class="st0" d="M104.4,219.8c-6.7,2.8-12.3,5.3-18.1,7.6c-9.4,3.8-18.9,7.5-28.5,11c-1.6,0.6-3.9,0.8-5.4,0
		c-11.7-6.3-23.4-13-35-19.5c-0.7-0.3-1.1-1.3-2.4-2.8c10.9-4.1,21.2-7.2,30.8-11.9c10.8-5.4,20.3-4.5,30.1,1.8
		c4.2,2.8,9.2,4.5,13.8,6.7C94.1,214.9,98.7,217.1,104.4,219.8z"/>
</g>
<g>
	<path d="M304.9,225c0-6.5-3.2-11.2-9.3-14.1c-13-6.1-25.8-12.4-38.9-18.4c-2.6-1.1-6.3-1.7-8.8-0.9c-14.2,4.9-28.1,10.4-42.2,15.8
		c-8.4,3.2-10.6,6.3-10.6,15.6c0,7.3,0,14.8,0,22.2l0,0v11.6c0,4-0.2,8.1,0.1,12.2c0.2,2.3,0.7,5.2,2.2,6.8
		c5.2,5.6,11,10.3,17.6,14.6c1.1,0.8,2.3,2.1,3.6,3c2.1,1.5,4.2,3,6.4,4.4c2.1,1.5,4.6,2.5,6.3,4.4c5.9,6,15.7,8.5,22.2,5.3
		c3.9-2,7.7-4.2,11.5-6.5c10.9-6.7,23.3-10.6,33.5-18.7c4-3.2,6.4-6.2,6.5-10.6C305,256,305,240.5,304.9,225z M244.3,299.2
		c-1,0.2-1.3,0.3-1.4,0.2c-12.6-8.3-25.3-16.5-37.8-25c-0.9-0.6-1.4-2.5-1.4-3.8c-0.1-15.4-0.1-30.6-0.1-46c0-0.6,0.5-1.3,0.8-2.3
		c4.6,2.6,9,5.2,13.3,7.6c7.7,4.2,15.4,8.3,23,12.7c1.5,0.9,3.2,3.1,3.3,4.7C244.4,264.7,244.3,282,244.3,299.2z M243.2,238.5
		c-11.7-6.3-23.4-13-35-19.5c-0.7-0.3-1.1-1.3-2.4-2.8c10.9-4.1,21.2-7.2,30.8-11.9c10.8-5.4,20.3-4.5,30.1,1.8
		c4.2,2.8,9.2,4.5,13.8,6.7c4.6,2.2,9.2,4.4,14.8,7c-6.7,2.8-12.3,5.3-18.1,7.6c-9.4,3.8-18.9,7.5-28.5,11
		C247,239,244.5,239.2,243.2,238.5z M295.4,270.9c0,1.5-0.9,3.8-2.2,4.5c-14.1,8-28.5,15.8-43,23.9c0-17.8,0.1-34.4-0.1-51.1
		c0-3.4,1.1-4.8,4.4-6c11.4-4.2,22.5-9.1,33.7-13.5c4.8-2,7.7-0.5,7.7,4.8C296,245.9,295.7,258.4,295.4,270.9z"/>
	<path class="st0" d="M244.3,299.2c-1,0.2-1.3,0.3-1.4,0.2c-12.6-8.3-25.3-16.5-37.8-25c-0.9-0.6-1.4-2.5-1.4-3.8
		c-0.1-15.4-0.1-30.6-0.1-46c0-0.6,0.5-1.3,0.8-2.3c4.6,2.6,9,5.2,13.3,7.6c7.7,4.2,15.4,8.3,23,12.7c1.5,0.9,3.2,3.1,3.3,4.7
		C244.4,264.7,244.3,282,244.3,299.2z"/>
	<path class="st1" d="M295.4,270.9c0,1.5-0.9,3.8-2.2,4.5c-14.1,8-28.5,15.8-43,23.9c0-17.8,0.1-34.4-0.1-51.1c0-3.4,1.1-4.8,4.4-6
		c11.4-4.2,22.5-9.1,33.7-13.5c4.8-2,7.7-0.5,7.7,4.8C296,245.9,295.7,258.4,295.4,270.9z"/>
	<path class="st0" d="M295.2,219.8c-6.7,2.8-12.3,5.3-18.1,7.6c-9.4,3.8-18.9,7.5-28.5,11c-1.6,0.6-3.9,0.8-5.4,0
		c-11.7-6.3-23.4-13-35-19.5c-0.7-0.3-1.1-1.3-2.4-2.8c10.9-4.1,21.2-7.2,30.8-11.9c10.8-5.4,20.3-4.5,30.1,1.8
		c4.2,2.8,9.2,4.5,13.8,6.7C284.8,214.9,289.4,217.1,295.2,219.8z"/>
</g>
<g>
	<path d="M205.7,115.7c0-6.5-3.2-11.2-9.3-14.1c-13-6.1-25.8-12.4-38.9-18.4c-2.6-1.1-6.3-1.7-8.8-0.9
		c-14.2,4.9-28.1,10.4-42.2,15.8c-8.4,3.2-10.6,6.3-10.6,15.6c0,7.3,0,14.8,0,22.2l0,0v11.6c0,4-0.2,8.1,0.1,12.2
		c0.2,2.3,0.7,5.2,2.2,6.8c5.2,5.6,11,10.3,17.6,14.6c1.1,0.8,2.3,2.1,3.6,3c2.1,1.5,4.2,3,6.4,4.4c2.1,1.5,4.6,2.5,6.3,4.4
		c5.9,6,15.7,8.5,22.2,5.3c3.9-2,7.7-4.2,11.5-6.5c10.9-6.7,23.3-10.6,33.5-18.7c4-3.2,6.4-6.2,6.5-10.6
		C205.8,146.7,205.8,131.2,205.7,115.7z M145.1,189.8c-1,0.2-1.3,0.3-1.4,0.2c-12.6-8.3-25.3-16.5-37.8-25c-0.9-0.6-1.4-2.5-1.4-3.8
		c-0.1-15.4-0.1-30.6-0.1-46c0-0.6,0.5-1.3,0.8-2.3c4.6,2.6,9,5.2,13.3,7.6c7.7,4.2,15.4,8.3,23,12.7c1.5,0.9,3.2,3.1,3.3,4.7
		C145.2,155.4,145.1,172.6,145.1,189.8z M143.9,129.1c-11.7-6.3-23.4-13-35-19.5c-0.7-0.3-1.1-1.3-2.4-2.8
		c10.9-4.1,21.2-7.2,30.8-11.9c10.8-5.4,20.3-4.5,30.1,1.8c4.2,2.8,9.2,4.5,13.8,6.7c4.6,2.2,9.2,4.4,14.8,7
		c-6.7,2.8-12.3,5.3-18.1,7.6c-9.4,3.8-18.9,7.5-28.5,11C147.7,129.7,145.3,129.8,143.9,129.1z M196.1,161.6c0,1.5-0.9,3.8-2.2,4.5
		c-14.1,8-28.5,15.8-43,23.9c0-17.8,0.1-34.4-0.1-51.1c0-3.4,1.1-4.8,4.4-6c11.4-4.2,22.5-9.1,33.7-13.5c4.8-2,7.7-0.5,7.7,4.8
		C196.7,136.6,196.5,149.1,196.1,161.6z"/>
	<path class="st0" d="M145.1,189.8c-1,0.2-1.3,0.3-1.4,0.2c-12.6-8.3-25.3-16.5-37.8-25c-0.9-0.6-1.4-2.5-1.4-3.8
		c-0.1-15.4-0.1-30.6-0.1-46c0-0.6,0.5-1.3,0.8-2.3c4.6,2.6,9,5.2,13.3,7.6c7.7,4.2,15.4,8.3,23,12.7c1.5,0.9,3.2,3.1,3.3,4.7
		C145.2,155.4,145.1,172.6,145.1,189.8z"/>
	<path class="st1" d="M196.1,161.6c0,1.5-0.9,3.8-2.2,4.5c-14.1,8-28.5,15.8-43,23.9c0-17.8,0.1-34.4-0.1-51.1c0-3.4,1.1-4.8,4.4-6
		c11.4-4.2,22.5-9.1,33.7-13.5c4.8-2,7.7-0.5,7.7,4.8C196.7,136.6,196.5,149.1,196.1,161.6z"/>
	<path class="st0" d="M195.9,110.4c-6.7,2.8-12.3,5.3-18.1,7.6c-9.4,3.8-18.9,7.5-28.5,11c-1.6,0.6-3.9,0.8-5.4,0
		c-11.7-6.3-23.4-13-35-19.5c-0.7-0.3-1.1-1.3-2.4-2.8c10.9-4.1,21.2-7.2,30.8-11.9c10.8-5.4,20.3-4.5,30.1,1.8
		c4.2,2.8,9.2,4.5,13.8,6.7C185.6,105.6,190.2,107.8,195.9,110.4z"/>
</g>
<g>
	<path d="M498,225c0-6.5-3.2-11.2-9.3-14.1c-13-6.1-25.8-12.4-38.9-18.4c-2.6-1.1-6.3-1.7-8.8-0.9c-14.2,4.9-28.1,10.4-42.2,15.8
		c-8.4,3.2-10.6,6.3-10.6,15.6c0,7.3,0,14.8,0,22.1l0,0v11.6c0,4-0.2,8.1,0.1,12.2c0.2,2.3,0.7,5.2,2.2,6.8
		c5.2,5.6,11,10.3,17.6,14.6c1.1,0.8,2.3,2.1,3.6,3c2.1,1.5,4.2,3,6.4,4.4c2.1,1.5,4.6,2.5,6.3,4.4c5.9,6,15.7,8.5,22.1,5.3
		c3.9-2,7.7-4.2,11.5-6.5c10.9-6.7,23.3-10.6,33.5-18.7c4-3.2,6.4-6.2,6.5-10.6C498.3,256,498.1,240.5,498,225z M437.5,299.2
		c-1,0.2-1.3,0.3-1.4,0.2c-12.6-8.3-25.2-16.5-37.7-25c-0.9-0.6-1.4-2.5-1.4-3.8c-0.1-15.4-0.1-30.6-0.1-46c0-0.6,0.5-1.3,0.8-2.3
		c4.6,2.6,8.9,5.2,13.3,7.6c7.7,4.2,15.4,8.3,22.9,12.7c1.5,0.9,3.2,3.1,3.3,4.7C437.6,264.7,437.5,282,437.5,299.2z M436.3,238.5
		c-11.7-6.3-23.4-13-35-19.5c-0.7-0.3-1.1-1.3-2.4-2.8c10.9-4.1,21.2-7.2,30.7-11.9c10.8-5.4,20.3-4.5,30.1,1.8
		c4.2,2.8,9.2,4.5,13.8,6.7c4.6,2.2,9.2,4.4,14.8,7c-6.7,2.8-12.3,5.3-18.1,7.6c-9.4,3.8-18.9,7.5-28.5,11
		C440.1,239,437.8,239.2,436.3,238.5z M488.5,270.9c0,1.5-0.9,3.8-2.2,4.5c-14.1,8-28.5,15.8-43,23.9c0-17.8,0.1-34.4-0.1-51.1
		c0-3.4,1.1-4.8,4.4-6c11.4-4.2,22.5-9.1,33.7-13.5c4.8-2,7.7-0.5,7.7,4.8C489.1,245.9,488.9,258.4,488.5,270.9z"/>
	<path class="st2" d="M437.5,299.2c-1,0.2-1.3,0.3-1.4,0.2c-12.6-8.3-25.2-16.5-37.7-25c-0.9-0.6-1.4-2.5-1.4-3.8
		c-0.1-15.4-0.1-30.6-0.1-46c0-0.6,0.5-1.3,0.8-2.3c4.6,2.6,8.9,5.2,13.3,7.6c7.7,4.2,15.4,8.3,22.9,12.7c1.5,0.9,3.2,3.1,3.3,4.7
		C437.6,264.7,437.5,282,437.5,299.2z"/>
	<path class="st3" d="M488.5,270.9c0,1.5-0.9,3.8-2.2,4.5c-14.1,8-28.5,15.8-43,23.9c0-17.8,0.1-34.4-0.1-51.1c0-3.4,1.1-4.8,4.4-6
		c11.4-4.2,22.5-9.1,33.7-13.5c4.8-2,7.7-0.5,7.7,4.8C489.1,245.9,488.9,258.4,488.5,270.9z"/>
	<path class="st2" d="M488.3,219.8c-6.7,2.8-12.3,5.3-18.1,7.6c-9.4,3.8-18.9,7.5-28.5,11c-1.6,0.6-3.9,0.8-5.4,0
		c-11.7-6.3-23.4-13-35-19.5c-0.7-0.3-1.1-1.3-2.4-2.8c10.9-4.1,21.2-7.2,30.7-11.9c10.8-5.4,20.3-4.5,30.1,1.8
		c4.2,2.8,9.2,4.5,13.8,6.7C478.1,215,482.7,217.1,488.3,219.8z"/>
</g>
<g>
	<path d="M405,333.6c0-6.5-3.2-11.2-9.3-14.1c-13-6.1-25.8-12.4-38.9-18.4c-2.6-1.1-6.3-1.7-8.8-0.9c-14.2,4.9-28.1,10.4-42.2,15.8
		c-8.4,3.2-10.6,6.3-10.6,15.6c0,7.3,0,14.8,0,22.1l0,0v11.6c0,4-0.2,8.1,0.1,12.2c0.2,2.3,0.7,5.2,2.2,6.8
		c5.2,5.6,11,10.3,17.6,14.6c1.1,0.8,2.3,2.1,3.6,3c2.1,1.5,4.2,3,6.4,4.4c2.1,1.5,4.6,2.5,6.3,4.4c5.9,6,15.7,8.5,22.1,5.3
		c3.9-2,7.7-4.2,11.5-6.5c10.9-6.7,23.3-10.6,33.5-18.7c4-3.2,6.4-6.2,6.5-10.6C405.3,364.6,405.1,349.1,405,333.6z M344.5,407.7
		c-1,0.2-1.3,0.3-1.4,0.2c-12.6-8.3-25.2-16.5-37.7-25c-0.9-0.6-1.4-2.5-1.4-3.8c-0.1-15.4-0.1-30.6-0.1-46c0-0.6,0.5-1.3,0.8-2.3
		c4.6,2.6,8.9,5.2,13.3,7.6c7.7,4.2,15.4,8.3,22.9,12.7c1.5,0.9,3.2,3.1,3.3,4.7C344.6,373.3,344.5,390.5,344.5,407.7z M343.3,347
		c-11.7-6.3-23.4-13-35-19.5c-0.7-0.3-1.1-1.3-2.4-2.8c10.9-4.1,21.2-7.2,30.7-11.9c10.8-5.4,20.3-4.5,30.1,1.8
		c4.2,2.8,9.2,4.5,13.8,6.7c4.6,2.2,9.2,4.4,14.8,7c-6.7,2.8-12.3,5.3-18.1,7.6c-9.4,3.8-18.9,7.5-28.5,11
		C347.1,347.6,344.8,347.7,343.3,347z M395.5,379.5c0,1.5-0.9,3.8-2.2,4.5c-14.1,8-28.5,15.8-43,23.9c0-17.8,0.1-34.4-0.1-51.1
		c0-3.4,1.1-4.8,4.4-6c11.4-4.2,22.5-9.1,33.7-13.5c4.8-2,7.7-0.5,7.7,4.8C396.1,354.5,395.8,367,395.5,379.5z"/>
	<path class="st2" d="M344.5,407.7c-1,0.2-1.3,0.3-1.4,0.2c-12.6-8.3-25.2-16.5-37.7-25c-0.9-0.6-1.4-2.5-1.4-3.8
		c-0.1-15.4-0.1-30.6-0.1-46c0-0.6,0.5-1.3,0.8-2.3c4.6,2.6,8.9,5.2,13.3,7.6c7.7,4.2,15.4,8.3,22.9,12.7c1.5,0.9,3.2,3.1,3.3,4.7
		C344.6,373.3,344.5,390.5,344.5,407.7z"/>
	<path class="st3" d="M395.5,379.5c0,1.5-0.9,3.8-2.2,4.5c-14.1,8-28.5,15.8-43,23.9c0-17.8,0.1-34.4-0.1-51.1c0-3.4,1.1-4.8,4.4-6
		c11.4-4.2,22.5-9.1,33.7-13.5c4.8-2,7.7-0.5,7.7,4.8C396.1,354.5,395.8,367,395.5,379.5z"/>
	<path class="st2" d="M395.3,328.3c-6.7,2.8-12.3,5.3-18.1,7.6c-9.4,3.8-18.9,7.5-28.5,11c-1.6,0.6-3.9,0.8-5.4,0
		c-11.7-6.3-23.4-13-35-19.5c-0.7-0.3-1.1-1.3-2.4-2.8c10.9-4.1,21.2-7.2,30.7-11.9c10.8-5.4,20.3-4.5,30.1,1.8
		c4.2,2.8,9.2,4.5,13.8,6.7C385.1,323.5,389.7,325.7,395.3,328.3z"/>
</g>
<path class="st4" d="M269.4,454.5c3.3,4.3,21.5,23,53.6,31.9c16,4.5,32.9,4.5,48.8,0c32.1-9,50.4-27.7,53.6-31.9"/>
<path class="st4" d="M315.3,438.1c1.3,1.8,8.9,9.5,22.1,13.2c6.6,1.8,13.5,1.8,20.1,0c13.2-3.7,20.8-11.4,22.1-13.2"/>
<path class="st4" d="M226.7,45.6c-3.3-4.3-21.5-23-53.6-31.9c-16-4.5-32.9-4.5-48.8,0c-32.1,9-50.4,27.7-53.6,31.9"/>
<path class="st4" d="M180.8,62c-1.3-1.8-8.9-9.5-22.1-13.2c-6.6-1.8-13.5-1.8-20.1,0c-13.2,3.7-20.8,11.4-22.1,13.2"/>
</svg>
