<?xml version="1.0" encoding="utf-8"?>
<!-- Generator: Adobe Illustrator 22.0.1, SVG Export Plug-In . SVG Version: 6.00 Build 0)  -->
<svg version="1.1" id="图层_1" xmlns="http://www.w3.org/2000/svg" xmlns:xlink="http://www.w3.org/1999/xlink" x="0px" y="0px"
	 viewBox="0 0 500 500" enable-background="new 0 0 500 500" xml:space="preserve">
<rect fill="#5A5A5A" width="499.8" height="499.8"/>
<path fill="#00FF00" d="M0.5,249.3c2.8-2.2,5.2-4.1,7.6-6c8.6-6.9,17.3-13.7,25.7-20.9c9.2-7.9,18-16.2,27.2-24.2
	c14-12.1,28.1-23.9,42.1-35.8c5.4-4.6,10.7-9.5,16.4-13.7c5-3.8,10.6-6.9,15.9-10.2c16-9.8,32.1-19.5,48.1-29.2
	c1.3-0.8,2.7-1.4,4.1-1.7c26.7-6,53.4-12,80.1-17.9c1.6-0.4,3.5-0.3,5.1,0c26.6,5.8,53.1,11.6,79.6,17.7c4,0.9,7.7,3.7,11.4,5.9
	c17.7,10.6,35.4,21.1,52.9,32c5.5,3.4,10.2,7.9,15.2,12.1c11.6,9.6,23.3,19.3,34.8,29.1c8.5,7.3,16.8,14.9,25.2,22.4
	c2.5,2.2,5,4.3,7.6,6.4c0,1,0,2,0,3c-0.4-0.2-0.9-0.4-1.3-0.7c-5.1-4.6-10.3-9.2-15.4-13.8c-3.2-2.8-6.4-5.7-9.8-8.7
	c-0.2,0.7-0.4,0.9-0.4,1.3c-0.5,7.4-1.1,14.7-1.5,22.1c0,0.8,0.6,1.8,1.3,2.4c5.2,4.8,10.4,9.5,15.7,14.2c3.7,3.3,7.5,6.4,11.3,9.7
	c0,4.2,0,8.3,0,12.5c-11-9.7-21.9-19.5-33-29.3c-15.3,17.6-30.4,34.9-45.6,52.3c12.8,11.3,25.3,22.4,37.8,33.4
	c0.3-0.3,0.6-0.4,0.7-0.6c9.3-10.9,18.6-21.7,27.9-32.6c4-4.6,8.1-9.2,12.2-13.8c0,6.7,0,13.3,0,20c-0.7,0.8-1.5,1.5-2.2,2.3
	c-3.5,4-6.9,8.1-10.4,12.1c-5.9,6.9-11.8,13.9-17.9,21c10.3,7.9,20.4,15.7,30.5,23.5c0,4.3,0,8.7,0,13c-12.3-9.5-24.7-18.9-37-28.4
	c-1.4-1.1-2.6-1.4-4.3-0.8c-10.9,3.6-21.8,7.1-32.7,10.6c-0.6,0.2-1.1,0.5-1.9,0.8c0.5,0.4,0.7,0.8,1.1,1
	c12.8,9.8,25.6,19.6,38.5,29.3c0.9,0.7,2.5,0.9,3.6,0.6c10.9-2.8,21.9-5.8,32.8-8.7c0,3.3,0,6.7,0,10c-7.5,2-15.1,4.1-22.6,6.1
	c0,0.2,0,0.4,0,0.6c7.5,3.6,15.1,7.1,22.6,10.7c0,1,0,2,0,3c-3.5-1.6-7-3.1-10.4-4.7c-7.1-3.4-14.3-6.5-21.1-10.3
	c-5-2.8-9.4-6.5-14-9.9c-13.1-10-26.3-19.8-39.2-30.1c-9-7.2-17.4-15.2-26.2-22.7c-14.8-12.7-30-25.1-44.6-38
	c-14-12.3-30.1-21.2-45.6-31.2c-2.6-1.7-6.1-2.1-9.2-2.9c-5.9-1.6-11.7-3.2-17.6-4.6c-1.1-0.3-2.5-0.3-3.6,0
	c-8.2,2.1-16.4,4.3-24.6,6.5c-0.6,0.2-1.3,0.3-1.9,0.6c-11.8,7.5-24.1,14.3-35.1,22.8c-16.4,12.7-32.2,26.2-47.8,40
	c-22,19.3-44.5,38-68.1,55.3c-5.2,3.8-10.2,7.9-15.5,11.6c-2.5,1.7-5.4,3-8.1,4.3c-19.9,9.5-39.7,19.1-59.6,28.5
	c-2,1-4.4,1.2-6.9,1.8 M456.7,219.3c-13.9-11.6-27.6-22.9-41.4-34.4c-13.7,19-27.2,37.6-40.8,56.3c12.2,10.2,24.3,20.2,36.4,30.3
	C426.3,254.1,441.4,236.8,456.7,219.3z M404.4,177c-16.9-10.3-33.5-20.4-50.3-30.6c-8.9,21.6-17.7,42.9-26.6,64.3
	c12.1,7.6,24.1,15,36.1,22.5C377.3,214.3,390.8,195.8,404.4,177z M216.6,210.7c-8.8-21.4-17.5-42.7-26.3-64.1
	c-16.8,10.3-33.3,20.3-50.1,30.6c13.5,18.7,26.9,37.3,40.3,55.9C192.7,225.5,204.5,218.2,216.6,210.7z M129.2,185
	c-13.8,11.5-27.4,22.8-41,34.2c15.1,17.5,30,34.6,45,52c12.2-10.1,24.2-20.1,36.3-30.1C156.1,222.3,142.7,203.8,129.2,185z
	 M279.4,127.3c-0.1,0.6-0.2,0.9-0.2,1.2c-0.1,22.2-0.1,44.4-0.2,66.6c0,1.7,1,1.9,2.1,2.1c8.2,2,16.5,4,24.7,6
	c3,0.7,5.9,1.4,9.1,2.2c8.9-21.4,17.7-42.6,26.6-64C320.5,136.6,300,132,279.4,127.3z M41,260.8c14.8,17.5,29.5,34.8,44.3,52.3
	C97.9,302,110.4,291,123,279.9c-15-17.4-29.9-34.6-44.9-52C65.6,238.9,53.4,249.8,41,260.8z M265.3,127.3
	c-21,4.8-41.5,9.4-62.2,14.1c8.8,21.5,17.5,42.7,26.2,63.9c1-0.2,1.8-0.3,2.6-0.5c10.3-2.5,20.5-5,30.8-7.4c2.1-0.5,2.5-1.3,2.5-3.3
	c0-21.3,0-42.6,0.1-63.9C265.3,129.3,265.3,128.5,265.3,127.3z M30.9,269.3c-8,6.3-15.6,12.8-23.8,18.4c-5.4,3.7-7.7,7.9-6.6,14.2
	c0.1,0.4-0.1,0.9,0,1.2c0.4,1.5,0.6,3.3,1.4,4.6c6.2,9.6,12.5,19,18.7,28.6c3.9,6,7.9,11.9,11.9,18c14.2-11,28.3-21.8,42.4-32.7
	C60.2,304.1,45.7,286.8,30.9,269.3z M263.7,93.4c-23.7,5.3-47,10.5-70.5,15.7c2.2,7.8,4.3,15.5,6.4,23.2c22.1-5,43.8-9.9,65.6-14.9
	C264.8,109.3,264.3,101.5,263.7,93.4z M348,108.9c-23.5-5.2-46.9-10.4-70.4-15.6c0,1.4-0.1,2.4,0,3.5c0.4,6,0.8,12,1.1,17.9
	c0.1,2.1,0.8,2.8,2.8,3.2c19.1,4.2,38.1,8.5,57.2,12.8c1.9,0.4,3.8,0.8,6,1.3C345.7,124.3,346.8,116.9,348,108.9z M449.9,320.2
	c-0.2-0.5-0.2-0.6-0.2-0.6c-11.9-10.5-23.8-21-35.7-31.5c-0.5-0.5-1.9-0.4-2.6-0.1c-5.9,2.6-11.7,5.3-17.5,8
	c-4.6,2.2-9.3,4.3-14.1,6.6c0.4,0.5,0.6,0.7,0.8,0.9c10.4,9.2,20.9,18.3,31.2,27.5c1.2,1,2.2,0.8,3.4,0.4c9.3-3,18.7-6,28-9.1
	C445.4,321.7,447.6,321,449.9,320.2z M116.9,340.3c-1.3-0.5-2.1-0.9-3-1.2c-9.5-3.4-19-6.7-28.4-10.2c-1.8-0.6-2.9-0.3-4.3,0.7
	c-9.2,7.1-18.4,14.2-27.7,21.3c-4.2,3.3-8.5,6.5-12.9,10c0.8,0.3,1.3,0.5,1.8,0.6c10.4,3.1,20.7,6.2,31,9.4c1.8,0.6,3.1,0.2,4.5-0.9
	c6-4.6,12-9.2,18-13.8C102.8,351,109.7,345.8,116.9,340.3z M160.9,302.4c-9.5-4.9-18.7-9.6-27.9-14.4c-1.5-0.8-2.4-0.7-3.7,0.4
	c-8.9,7.9-17.9,15.7-26.8,23.5c-2.8,2.5-5.6,5-8.5,7.5c0.4,0.4,0.4,0.5,0.6,0.6c10.5,3.8,21,7.6,31.5,11.2c0.8,0.3,2.2-0.3,3-0.9
	c7.7-6.6,15.3-13.3,22.9-20C154.9,307.7,157.8,305.1,160.9,302.4z M180.6,114.2c-17.6,10.7-35,21.2-52.4,31.8
	c2.4,7.7,4.7,15.2,7.1,22.8c0.9-0.5,1.5-0.8,2.2-1.2c5.5-3.4,11.1-6.7,16.6-10.1c10.4-6.3,20.7-12.6,31-19c0.7-0.4,1.6-1.5,1.5-2.1
	C184.8,129,182.7,121.8,180.6,114.2z M340.1,269.6c0.9,0.8,1.5,1.3,2,1.8c8.4,7,16.9,14,25.3,21c1.3,1.1,2.2,1.3,3.7,0.5
	c7.5-3.6,15-7,22.6-10.5c2.8-1.3,5.6-2.6,9.3-4.3c-1-0.6-1.6-0.8-2-1.2c-10.7-8.9-21.5-17.8-32.2-26.8c-1.2-1-2-0.7-3,0.1
	c-5.5,4.2-11.1,8.4-16.7,12.6C346.2,265.1,343.3,267.3,340.1,269.6z M409,168.8c1.4-7.6,2.7-14.7,3.8-21.9c0.1-0.6-0.8-1.7-1.5-2.1
	c-16.3-9.9-32.7-19.8-49.1-29.7c-0.5-0.3-1.1-0.5-1.8-0.8c-1,6.9-1.9,13.6-3,20.2c-0.3,2,0.2,3.1,1.9,4.2
	c9.9,5.9,19.6,11.9,29.4,17.9C395.4,160.5,402,164.5,409,168.8z M141.4,278.1c1,0.6,1.8,1,2.6,1.5c8.3,4.3,16.6,8.5,24.8,12.9
	c2,1,3.2,0.9,4.8-0.5c5.6-4.8,11.4-9.5,17.1-14.2c3.2-2.7,6.4-5.4,9.7-8.2c-8.1-6.9-16-13.7-24-20.5
	C164.6,258.8,153.1,268.3,141.4,278.1z M63.8,378.8c-0.5-0.4-0.6-0.6-0.8-0.6c-10.9-3.3-21.8-6.6-32.7-9.8c-0.7-0.2-1.7-0.1-2.3,0.2
	c-8.7,4.2-17.4,8.4-26,12.7c-0.7,0.3-1.4,1.4-1.4,2.2c-0.1,5.9-0.1,11.8-0.1,17.7c0,0.6,0,1.2,0.3,1.6c0.9,1.2,7.6,2.5,9.1,1.8
	c12.1-5.8,24.1-11.6,36.2-17.4C52,384.5,57.8,381.7,63.8,378.8z M83,210.9c0.7-0.4,1.2-0.7,1.7-1c12.3-10.2,24.4-20.5,36.8-30.6
	c2.4-2,3.1-3.7,1.7-6.4c-0.6-1.3-0.8-2.7-1.3-4c-1.5-4.9-3.1-9.8-4.6-14.7c-0.5,0.3-0.7,0.4-0.9,0.5c-12.4,10.3-24.8,20.6-37.1,31
	c-0.4,0.4-0.8,1.1-0.8,1.6C80,195,81.5,202.8,83,210.9z M461.4,211.2c0.2-1.6,0.3-2.6,0.3-3.6c0.4-6.3,0.8-12.6,1.3-18.9
	c0.2-1.8-0.4-2.9-1.7-4c-8.7-7.2-17.4-14.4-26-21.7c-3.7-3.1-7.4-6.1-11.4-9.4c-1.3,7.3-2.5,14.1-3.8,21c-0.3,1.5,0.1,2.4,1.3,3.4
	c9.7,8,19.3,16.1,28.9,24.1C453.9,205,457.4,207.9,461.4,211.2z M356.3,241.1c-11.4-7.1-22.4-14-33.6-20.9
	c-5.8,9-11.4,17.6-17.1,26.5c7.6,4.9,15.1,9.6,22.5,14.2c0.5,0.3,1.7,0,2.4-0.5c2.7-1.9,5.3-4,8-5.9
	C344.3,250.1,350.1,245.8,356.3,241.1z M234.9,246.7c-4.7-9-9.3-17.6-13.9-26.4c-11.2,7-22.2,13.8-33.5,20.8
	c7.9,6.8,15.5,13.2,23.1,19.7c0.4,0.3,1.3,0.5,1.7,0.2C219.8,256.3,227.2,251.5,234.9,246.7z M36.3,251.7c0.2,0.1,0.5,0.1,0.7,0.2
	c3.1-2.8,6.2-5.5,9.3-8.3c8.5-7.6,17-15.2,25.5-22.8c0.5-0.5,1.2-1.4,1.1-2c-1.4-7.8-2.9-15.7-4.5-23.9c-1.5,1.3-2.7,2.4-4,3.5
	c-9,8-18,16.1-26.9,24.2c-0.8,0.7-1.3,2.1-1.4,3.2c-0.1,3.7,0.1,7.3,0.1,11C36.3,241.8,36.3,246.7,36.3,251.7z M0.5,281
	c0.7-0.4,1.1-0.6,1.4-0.8c7.8-6.2,15.7-12.3,23.4-18.5c0.7-0.6,1.2-1.8,1.2-2.7c0-8.2-0.2-16.4-0.3-24.7c0-0.5-0.2-1-0.3-1.9
	c-8.1,6.4-16,12.6-23.7,19c-0.9,0.7-1.5,2.1-1.6,3.3c-0.1,7.1-0.1,14.3-0.1,21.4C0.5,277.6,0.5,279.1,0.5,281z M278.6,207.3
	c-0.5,9.7-1.1,19.1-1.5,28.5c0,0.5,0.9,1.4,1.6,1.6c4.1,1.2,8.4,2.2,12.5,3.4c1.5,0.5,2.2,0,3-1.2c2.2-3.6,4.6-7.1,6.9-10.7
	c3-4.6,5.9-9.2,9.1-14C299.6,212.3,289.3,209.8,278.6,207.3z M247.4,241.3c5.1-1.3,10.1-2.6,15-4c0.5-0.2,1.1-1.3,1.1-2.1
	c0.4-5.8,0.7-11.6,1-17.4c0.2-3.4,0.3-6.8,0.5-10.4c-10.6,2.6-20.9,5.1-31.5,7.6C238.2,223.7,242.7,232.3,247.4,241.3z M21.5,361
	c-6.9-10.6-13.7-20.9-20.8-31.7c0,14.4,0,28,0,42C7.7,367.8,14.5,364.5,21.5,361z"/>
</svg>
