<?xml version="1.0" encoding="utf-8"?>
<!-- Generator: Adobe Illustrator 22.1.0, SVG Export Plug-In . SVG Version: 6.00 Build 0)  -->
<svg version="1.1" id="图层_1" xmlns="http://www.w3.org/2000/svg" xmlns:xlink="http://www.w3.org/1999/xlink" x="0px" y="0px"
	 viewBox="0 0 500 500" style="enable-background:new 0 0 500 500;" xml:space="preserve">
<style type="text/css">
	.st0{fill:#5A5A5A;}
	.st1{fill:#00FF00;}
</style>
<rect class="st0" width="500" height="500"/>
<path class="st1" d="M485.8,291.2c-7.9,2.4-16.3-2.1-18.7-10c-18.9-62.3-39-105-59.8-126.7c-16-16.7-29.7-18.4-42.4-18.7
	c-27.1-0.7-52.8,29.1-77.6,67.5l-6.6-10.9l-10.5-17.5c5.9-8.6,11.9-16.7,18.1-24.1c25.7-30.9,51-45.6,77.4-45
	c18.6,0.4,40.6,4.1,63.4,28c24.4,25.6,46.2,71,66.8,138.8C498.3,280.4,493.8,288.8,485.8,291.2z"/>
<path class="st1" d="M235.4,290.3c-13.1,21.8-26.7,42.6-41,59.5c-25.1,29.9-49.9,44.5-75.7,44.5c-1.3,0-2.5,0-3.8-0.1
	c-41.4-2.3-77.5-43.1-110.3-124.7c-3.1-7.7,0.6-16.4,8.3-19.5c7.7-3.1,16.4,0.6,19.5,8.3c34.5,85.7,64.8,104.9,84.1,106
	c36,1.9,69.1-48.5,101.2-102.9l10.2,16.9l7.3,12.1H235.4z"/>
<polygon class="st1" points="194.4,107.2 160.3,107.2 123.5,46 157.5,46 "/>
<polygon class="st1" points="244.4,190.3 210.4,190.3 172.4,127.2 206.5,127.2 "/>
<polygon class="st1" points="294.5,273.4 260.4,273.4 253.1,261.3 238.1,236.4 222.4,210.3 256.5,210.3 269.9,232.6 "/>
<polygon class="st1" points="344.5,356.4 310.5,356.4 272.5,293.4 306.5,293.4 "/>
<polygon class="st1" points="403.2,454 369.2,454 322.5,376.4 356.5,376.4 "/>
</svg>
