<?xml version="1.0" encoding="utf-8"?>
<!-- Generator: Adobe Illustrator 22.1.0, SVG Export Plug-In . SVG Version: 6.00 Build 0)  -->
<svg version="1.1" id="图层_1" xmlns="http://www.w3.org/2000/svg" xmlns:xlink="http://www.w3.org/1999/xlink" x="0px" y="0px"
	 viewBox="0 0 500 500" style="enable-background:new 0 0 500 500;" xml:space="preserve">
<style type="text/css">
	.st0{fill:#E6E6E6;}
	.st1{fill:#FF931E;}
</style>
<path d="M402,6c-51.3-0.3-92.3,39.5-92.8,90.3c-0.5,51.3,40.3,93.3,91.4,93.9c49.9,0.6,92.7-41.2,93-91C494,47.4,453.6,6.3,402,6z
	 M400.7,160.6c-34.1-0.2-62.7-29.1-62.5-63.1c0.3-34.9,28.8-62.8,64.2-62.8c33.4,0,61.8,29.4,61.6,63.8
	C463.8,132.5,435,160.9,400.7,160.6z"/>
<path class="st0" d="M464.1,98.5c-0.3,34-29.1,62.3-63.4,62.1c-34.1-0.2-62.7-29.1-62.5-63.1c0.3-34.9,28.8-62.8,64.2-62.8
	C436,34.7,464.4,64.1,464.1,98.5z"/>
<path d="M141.7,94.2C69.6,92.9,8.5,153.2,7.4,226.6c-1.1,72.3,57.9,133,130.7,134.5c74.7,1.6,135.1-56.8,136.7-132.2
	C276.3,156.3,216.3,95.5,141.7,94.2z M141.8,334c-58,0.1-107.4-48.3-107.2-104.9c0.2-59.4,48.5-107.9,107.2-107.6
	c57.6,0.2,105.5,48.4,105.7,106.3C247.7,285.3,199.4,333.9,141.8,334z"/>
<path class="st1" d="M247.5,227.8c0.2,57.6-48.1,106.1-105.7,106.2c-58,0.1-107.4-48.3-107.2-104.9c0.2-59.4,48.5-107.9,107.2-107.6
	C199.4,121.7,247.3,169.9,247.5,227.8z"/>
<path d="M141.5,156.8c-39.5-0.3-71.1,30.5-71.5,69.6c-0.4,39.5,31,71.9,70.4,72.3c38.5,0.5,71.4-31.7,71.7-70.1
	C212.4,188.7,181.3,157.1,141.5,156.8z M140.6,276c-26.3-0.2-48.3-22.4-48.1-48.6c0.2-26.9,22.2-48.4,49.5-48.4
	c25.7,0,47.6,22.7,47.4,49.2C189.2,254.4,166.9,276.2,140.6,276z"/>
<path d="M328.9,320.4c-48.7-0.3-87.5,37.5-88,85.6c-0.5,48.7,38.2,88.4,86.6,89c47.3,0.5,87.8-39,88.2-86.3
	C416.1,359.7,377.8,320.7,328.9,320.4z M327.7,467c-32.3-0.2-59.4-27.6-59.2-59.8c0.3-33.1,27.3-59.6,60.9-59.6
	c31.7,0,58.6,27.9,58.4,60.5C387.6,440.4,360.2,467.3,327.7,467z"/>
<path class="st1" d="M387.8,408.2c-0.2,32.3-27.6,59.1-60.1,58.9c-32.3-0.2-59.4-27.6-59.2-59.8c0.3-33.1,27.3-59.6,60.9-59.6
	C361.1,347.6,388.1,375.6,387.8,408.2z"/>
</svg>
