<?xml version="1.0" encoding="utf-8"?>
<!-- Generator: Adobe Illustrator 22.1.0, SVG Export Plug-In . SVG Version: 6.00 Build 0)  -->
<svg version="1.1" id="Layer_1" xmlns="http://www.w3.org/2000/svg" xmlns:xlink="http://www.w3.org/1999/xlink" x="0px" y="0px"
	 viewBox="0 0 500 500" style="enable-background:new 0 0 500 500;" xml:space="preserve">
<style type="text/css">
	.st0{fill:#5A5A5A;}
	.st1{fill:#00FF00;}
</style>
<rect class="st0" width="500" height="500"/>
<path class="st1" d="M177.3,291.1c-3.6,1-7.2,1.9-10.7,3c-19.1,5.7-38.1,12-57.4,16.8c-16.3,4.1-32.9,4.7-49.2-1.1
	c-20.8-7.3-34.7-21.5-40.9-42.4C9.6,235.2,26.8,203,57.1,191c14.6-5.8,29.8-5.8,45.2-3.4c21.1,3.3,41.2,10.3,61.3,17.2
	c4.5,1.5,9.1,2.8,13.6,4.2c0.3-0.5,0.6-1,1-1.5c-2.2-2.2-4.4-4.4-6.7-6.6c-14.5-13.7-29.6-26.9-43.5-41.1
	c-12.9-13.2-22.2-28.8-25.5-47.6c-5.8-33.4,19.2-67.3,52.7-72.1c27.7-4,53.9,10.5,67.1,34.3c11.4,20.5,16.5,43,21.3,65.6
	c1.5,7.1,2.8,14.3,4.3,21.5c0.3,1.6,1,3,1.5,4.6c0.5,0.1,1,0.1,1.5,0.2c0.7-2.7,1.5-5.3,2.2-8c5-20.8,9.3-41.9,15.3-62.4
	c5.3-18.1,14.9-33.9,30.9-45.2c29.2-20.8,72.3-11.7,90.1,19.4c13.2,23.1,11.9,46.1-1.2,68.7c-12.3,21.2-30.6,37.1-48.7,53.2
	c-4.4,3.9-8.8,7.6-13.2,11.5c-1.4,1.3-2.5,2.8-3.8,4.2c0.3,0.5,0.5,1,0.8,1.4c4.8-1.5,9.6-2.8,14.3-4.4
	c19.9-6.9,39.9-13.7,60.9-16.9c21.8-3.3,42.4-1.2,60.7,12.6c33.2,25,32.2,77.3-1.9,101.1c-16.1,11.2-33.8,14.1-52.7,12
	c-24.2-2.6-46.9-10.8-69.7-18.6c-3.3-1.1-6.6-2.1-10-3c-0.6-0.2-1.3,0-3.1,0.1c1.7,1.9,2.7,3.3,3.9,4.4c13,11.9,26.3,23.5,38.9,35.9
	c12.2,11.9,22.7,25.1,29.3,41.2c14.8,36.1-7.2,78.2-45.2,86.2c-27.7,5.8-57.5-8.8-70.7-33.4c-11.7-21.7-17-45.3-21.9-69
	c-1.6-7.7-3.1-15.4-4.7-23.1c-0.6,0-1.1-0.1-1.7-0.1c-0.7,2-1.5,4-2,6.1c-4,17.8-7.5,35.8-12.1,53.5c-3.8,14.8-9.8,28.9-19.2,41.4
	c-27.8,37-83,34.3-106.1-5.8c-12.7-21.9-11-44.3,1.1-66c10.2-18.4,25.3-32.8,40.8-46.8c8.6-7.8,17.3-15.4,26-23.1
	C177.9,292.3,177.6,291.7,177.3,291.1z"/>
</svg>
