<?xml version="1.0" encoding="utf-8"?>
<!-- Generator: Adobe Illustrator 22.0.1, SVG Export Plug-In . SVG Version: 6.00 Build 0)  -->
<svg version="1.1" id="图层_1" xmlns="http://www.w3.org/2000/svg" xmlns:xlink="http://www.w3.org/1999/xlink" x="0px" y="0px"
	 viewBox="0 0 500 500" enable-background="new 0 0 500 500" xml:space="preserve">
<g>
	<g>
		<path fill="#AF5A00" d="M124.8,74.3h19.5l12,41.3L128.2,127c-5.3-8.6-12.1-15.4-20.1-20.3c-8.1-4.9-16.1-7.4-24-7.4
			c-5.3,0-9.2,0.9-11.7,2.7c-2.6,1.8-3.9,3.9-3.9,6.4c0,2.1,0.9,4,2.7,5.8c1.8,1.8,5.6,3.7,11.4,5.6l40.9,14.6
			c7.2,2.6,14.2,5.8,20.8,9.7c6.6,3.9,11.6,8.6,14.9,14.2c3.3,5.6,5,12.2,5,19.7c0,13.5-5.2,24.5-15.5,33.1
			c-12.1,10.1-27.1,15.2-45.2,15.2c-15.5,0-28.9-3.9-40.4-11.7l-4.2,8.2H39.2l-18.3-48.7L49,162c7,11,15.7,19.6,26,25.9
			c10.3,6.3,19.8,9.4,28.4,9.4c5.3,0,9.9-1.2,13.5-3.7c2.8-2,4.2-4.3,4.2-7c0-2.3-1.1-4.5-3.3-6.5c-2.2-2.1-7-4.4-14.4-7L71.3,162
			c-17.7-6.2-29.8-12.9-36.2-20c-6.4-7.1-9.6-15.5-9.6-25.2c0-12.5,5-23,15-31.5C52,75.6,66,70.8,82.8,70.8
			c14.9,0,27.6,3.4,38.2,10.1L124.8,74.3z"/>
		<path fill="#AF5A00" d="M252,70.8v109.8c0,5.3,0.3,8.5,0.9,9.7c0.6,1.2,1.7,2.1,3.2,2.7c1.5,0.6,5,1,10.3,1h8v28.7h-91.8V194h7.9
			c5.1,0,8.4-0.3,9.9-0.8c1.4-0.5,2.5-1.5,3.2-2.7c0.7-1.3,1-3.9,1-7.7v-70.9h-22V83.9c7.8-0.4,15.3-1.2,22.5-2.5
			c7.2-1.3,13.6-2.8,19.2-4.6c3.7-1.2,8.2-3.2,13.5-5.9H252z M227.9,4.5c7.5,0,13.9,2.7,19.2,7.9c5.3,5.3,8,11.7,8,19.2
			c0,7.6-2.7,14.1-8,19.4c-5.3,5.3-11.7,7.9-19.2,7.9c-7.5,0-13.9-2.6-19.2-7.9c-5.3-5.3-7.9-11.7-7.9-19.2c0-7.4,2.7-13.8,8.2-19.2
			C214.4,7.2,220.7,4.5,227.9,4.5z"/>
		<path fill="#AF5A00" d="M357.7,70.8v19.8c11.2-7.6,20.8-12.8,28.8-15.6c8-2.8,16.1-4.2,24.4-4.2c9.6,0,18.1,2,25.5,6.1
			c7.4,4.1,12.8,9.1,16.1,15.2c3.4,6.1,5.1,14.7,5.1,25.9v61.8c0,5.3,0.4,8.6,1.1,10.1c0.7,1.5,1.9,2.6,3.5,3.3
			c1.2,0.5,4.8,0.7,10.7,0.7h7.3v28.7h-87.2V194c6.6-0.1,10.3-0.2,11.1-0.4c2.5-0.7,4.1-1.8,4.9-3.4c0.8-1.6,1.2-5,1.2-10.2v-54.4
			c0-7-0.7-11.6-2.2-13.6c-2.4-3.5-6.1-5.2-11.3-5.2c-4.3,0-8.8,0.9-13.7,2.8c-4.9,1.9-11.4,5.7-19.6,11.6v58.9
			c0,6.4,0.7,10.4,2.1,11.9c1.4,1.5,4.7,2.2,10,2.2h4.8v28.7h-86.3V194h4.3c6.8,0,11.1-0.3,12.7-0.9c1.6-0.6,2.9-1.6,3.7-3.1
			c0.8-1.5,1.3-4.4,1.3-8.8v-69.1h-22V83.4c17.8-2.2,34.4-6.4,50-12.6H357.7z"/>
	</g>
	<g>
		<path fill="#787878" d="M130.6,307.7H146l14.9,54.4l-20.2,5.9c-6.7-12.9-13.1-22.1-19-27.6c-8.2-7.4-17.2-11.2-26.8-11.2
			c-7,0-13.6,2-19.7,5.9c-6.1,3.9-11,9.7-14.5,17.3s-5.4,16.5-5.4,26.7c0,15.6,4.1,28.9,12.3,40.1c8.2,11.2,19,16.8,32.3,16.8
			c8.5,0,16.6-2.4,24.4-7.3c9.8-6,18.2-14.1,25.3-24.2l16.8,12.5c-10.9,14.9-20.9,25.3-29.9,31.1c-14,9-29.5,13.6-46.6,13.6
			c-14.2,0-27.1-3.4-38.7-10.3c-11.5-6.8-20.7-16.4-27.6-28.7c-6.9-12.3-10.3-25.7-10.3-40.3c0-14.5,3.3-27.6,10-39.5
			c6.7-11.9,15.8-21.2,27.3-27.8c11.5-6.7,24.4-10,38.5-10c14.4,0,27,3,37.8,9.1L130.6,307.7z"/>
		<path fill="#787878" d="M259.5,305.1c24,0,43.5,7.3,58.3,21.9c14.9,14.6,22.3,33.4,22.3,56.3c0,15.4-3.4,29.1-10.2,41
			c-6.8,11.9-16.2,21.1-28.2,27.6c-12,6.5-26.4,9.7-43.3,9.7c-22.4,0-40.7-6.1-54.9-18.4c-17.2-14.8-25.8-34.6-25.8-59.5
			c0-23.1,7.5-42,22.6-56.6C215.4,312.4,235.1,305.1,259.5,305.1z M259.9,329.2c-11.5,0-20.7,4.3-27.5,12.9
			c-8.5,10.9-12.8,24.8-12.8,42c0,17.1,4,30.7,11.9,40.7c6.9,8.5,15.9,12.8,27.2,12.8c11.4,0,20.4-4.3,27.2-12.8
			c8-10.2,12-23.8,12-40.9c0-12-1.7-22.1-5.2-30.3c-3.4-8.2-8.1-14.3-13.9-18.3C273.2,331.2,266.8,329.2,259.9,329.2z"/>
		<path fill="#787878" d="M470.2,307.7l13,50.8l-20.3,5.8c-6.7-12.1-14.3-21-22.9-26.6c-8.5-5.6-17.6-8.4-27.2-8.4
			c-6.2,0-11.1,1.3-14.7,3.8s-5.4,5.4-5.4,8.5c0,3.5,1.6,6.8,4.9,9.9c3.2,3,9,5.8,17.6,8.1l29.1,8.5c16.1,4.6,27.6,10.8,34.5,18.5
			c6.8,7.7,10.2,16.8,10.2,27c0,13.1-5.2,24.2-15.6,33.2c-11.6,10-26.1,15-43.4,15c-8,0-15.4-1-22.1-3.1c-6.7-2.1-13.7-5.5-21-10.4
			l-4.8,10.8h-16.2l-10.7-58.7l20.3-4.9c4.8,11.9,12.2,21.9,22.3,29.9c10.1,8,21.2,12,33.3,12c5.4,0,9.9-0.7,13.5-2.1
			s6.3-3.3,8.1-5.7c1.8-2.5,2.7-5,2.7-7.6c0-4.3-2.1-8.1-6.3-11.2c-4.3-3.1-11.7-6.2-22.4-9.2l-25.3-7.4c-3.8-1.1-9-3.1-15.6-6.1
			c-6.5-3-11.6-6.1-15.1-9.4s-6.4-7.4-8.7-12.5c-2.3-5.1-3.5-10.5-3.5-16.1c0-8,2.2-15.4,6.7-22.2c4.4-6.8,11.1-12.2,20.1-16.4
			c8.9-4.2,18.8-6.3,29.7-6.3c13.1,0,24.9,3.4,35.5,10.2l4.2-7.6H470.2z"/>
	</g>
	<line fill="none" stroke="#231815" stroke-width="20" stroke-miterlimit="10" x1="0" y1="263.8" x2="500" y2="263.8"/>
</g>
</svg>
