<?xml version="1.0" encoding="utf-8"?>
<!-- Generator: Adobe Illustrator 22.1.0, SVG Export Plug-In . SVG Version: 6.00 Build 0)  -->
<svg version="1.1" id="Layer_1" xmlns="http://www.w3.org/2000/svg" xmlns:xlink="http://www.w3.org/1999/xlink" x="0px" y="0px"
	 viewBox="0 0 500 500" style="enable-background:new 0 0 500 500;" xml:space="preserve">
<style type="text/css">
	.st0{fill:#5A5A5A;}
	.st1{fill:none;stroke:#00FF00;stroke-width:30;stroke-linecap:round;stroke-miterlimit:10;}
</style>
<rect x="-0.5" y="0" class="st0" width="501.5" height="501.5"/>
<g>
	<g>
		<line class="st1" x1="142.9" y1="64.6" x2="250" y2="251"/>
		<line class="st1" x1="197.8" y1="161.8" x2="214.8" y2="46"/>
		<line class="st1" x1="198.8" y1="161.2" x2="90.1" y2="118"/>
	</g>
	<g>
		<line class="st1" x1="35" y1="250.5" x2="250" y2="251"/>
		<line class="st1" x1="146.6" y1="251.6" x2="54.8" y2="179"/>
		<line class="st1" x1="146.6" y1="250.4" x2="54.8" y2="323"/>
	</g>
	<g>
		<line class="st1" x1="142.1" y1="436.9" x2="250" y2="251"/>
		<line class="st1" x1="198.8" y1="340.8" x2="90.1" y2="384"/>
		<line class="st1" x1="197.8" y1="340.2" x2="214.8" y2="456"/>
	</g>
	<g>
		<line class="st1" x1="357.1" y1="437.4" x2="250" y2="251"/>
		<line class="st1" x1="302.2" y1="340.2" x2="285.2" y2="456"/>
		<line class="st1" x1="301.2" y1="340.8" x2="410" y2="384"/>
	</g>
	<g>
		<line class="st1" x1="465" y1="251.5" x2="250" y2="251"/>
		<line class="st1" x1="353.4" y1="250.4" x2="445.2" y2="323"/>
		<line class="st1" x1="353.4" y1="251.6" x2="445.2" y2="179"/>
	</g>
	<g>
		<line class="st1" x1="357.9" y1="65.1" x2="250" y2="251"/>
		<line class="st1" x1="301.2" y1="161.2" x2="409.9" y2="118"/>
		<line class="st1" x1="302.2" y1="161.8" x2="285.2" y2="46"/>
	</g>
</g>
</svg>
