<?xml version="1.0" encoding="utf-8"?>
<!-- Generator: Adobe Illustrator 22.1.0, SVG Export Plug-In . SVG Version: 6.00 Build 0)  -->
<svg version="1.1" id="图层_1" xmlns="http://www.w3.org/2000/svg" xmlns:xlink="http://www.w3.org/1999/xlink" x="0px" y="0px"
	 viewBox="0 0 500 500" style="enable-background:new 0 0 500 500;" xml:space="preserve">
<style type="text/css">
	.st0{fill:#5A5A5A;}
	.st1{fill:#00FF00;}
</style>
<rect class="st0" width="500" height="500"/>
<g>
	<path class="st1" d="M469.1,141.9c0-22.8-11.2-39.2-32.4-49.2C391.4,71.5,346.6,49.4,301,28.6c-9.2-4-22-6-30.8-3.2
		C220.5,42.6,172,61.8,122.8,80.7C93.6,91.9,86,102.7,86,135.1c0,25.6,0,51.6,0,77.3l0,0v40.4c0,14-0.8,28.4,0.4,42.4
		c0.8,8,2.4,18,7.6,23.6c18,19.6,38.4,36,61.2,50.8c4,2.8,8,7.2,12.4,10.4c7.2,5.2,14.8,10.4,22.4,15.2c7.2,5.2,16,8.8,22,15.2
		c20.4,20.8,54.8,29.6,77.3,18.4c13.6-6.8,26.8-14.8,40-22.8c38-23.2,81.3-36.8,116.9-65.3c14-11.2,22.4-21.6,22.8-36.8
		C469.9,250,469.5,195.9,469.1,141.9z M257.7,400.5c-3.6,0.8-4.4,1.2-4.8,0.8c-44-28.8-88.1-57.6-131.7-87.3
		c-3.2-2-4.8-8.8-4.8-13.2c-0.4-53.6-0.4-106.9-0.4-160.5c0-2,1.6-4.4,2.8-8c16,9.2,31.2,18,46.4,26.4
		c26.8,14.8,53.6,28.8,80.1,44.4c5.2,3.2,11.2,10.8,11.6,16.4C258.1,280.4,257.7,340.5,257.7,400.5z M253.7,188.7
		c-40.8-22-81.7-45.2-122.1-68.1c-2.4-1.2-4-4.4-8.4-9.6c38-14.4,74.1-25.2,107.3-41.6c37.6-18.8,70.9-15.6,104.9,6.4
		c14.8,9.6,32,15.6,48,23.2s32,15.2,51.6,24.4c-23.2,9.6-42.8,18.4-63.2,26.4c-32.8,13.2-66.1,26-99.3,38.4
		C266.9,190.7,258.9,191.1,253.7,188.7z M435.9,302c0,5.2-3.2,13.2-7.6,15.6c-49.2,28-99.3,55.2-150.1,83.3
		c0-62,0.4-120.1-0.4-178.1c0-12,4-16.8,15.2-20.8c39.6-14.8,78.5-31.6,117.7-47.2c16.8-6.8,26.8-1.6,26.8,16.8
		C437.9,214.8,437.1,258.4,435.9,302z"/>
	<circle class="st1" cx="265.9" cy="188.3" r="64.6"/>
	<circle class="st1" cx="95" cy="97.4" r="64.6"/>
	<circle class="st1" cx="265.9" cy="411.3" r="64.6"/>
	<circle class="st1" cx="95" cy="306.2" r="64.6"/>
</g>
</svg>
