<?xml version="1.0" encoding="utf-8"?>
<!-- Generator: Adobe Illustrator 22.1.0, SVG Export Plug-In . SVG Version: 6.00 Build 0)  -->
<svg version="1.1" id="Layer_1" xmlns="http://www.w3.org/2000/svg" xmlns:xlink="http://www.w3.org/1999/xlink" x="0px" y="0px"
	 viewBox="0 0 500 500" style="enable-background:new 0 0 500 500;" xml:space="preserve">
<style type="text/css">
	.st0{fill:#5A5A5A;}
	.st1{fill:#00FF00;}
</style>
<rect x="-0.5" y="0" class="st0" width="501.5" height="501.5"/>
<g>
	<path class="st1" d="M461.8,336.6c0,58.8-47.7,106.5-106.5,106.5c-47.3,0-87.4-30.8-101.3-73.5c-3.4-10.4-5.2-21.5-5.2-33
		c0-11.9,2-23.3,5.5-34c10.6-31.6,35.7-56.6,67.5-67.1c10.5-3.5,21.8-5.4,33.5-5.4s23,1.9,33.5,5.4
		C431.2,249.5,461.8,289.5,461.8,336.6z"/>
	<path class="st1" d="M205.8,56.9l103.5,153.3c-10.4,3.4-20.6,8.4-30.3,14.9c-9.7,6.5-18.1,14.2-25.2,22.6L150.3,94.4L205.8,56.9z"
		/>
	<path class="st1" d="M218.3,336.6c0,11.5,1.6,22.6,4.5,33H38.3v-67H223C219.9,313.3,218.3,324.7,218.3,336.6z"/>
</g>
</svg>
