<?xml version="1.0" encoding="utf-8"?>
<!-- Generator: Adobe Illustrator 22.0.1, SVG Export Plug-In . SVG Version: 6.00 Build 0)  -->
<svg version="1.1" id="图层_1" xmlns="http://www.w3.org/2000/svg" xmlns:xlink="http://www.w3.org/1999/xlink" x="0px" y="0px"
	 viewBox="0 0 500 500" style="enable-background:new 0 0 500 500;" xml:space="preserve">
<style type="text/css">
	.st0{fill:#5B5B5B;}
	.st1{fill:#00FF00;}
</style>
<g>
	<rect class="st0" width="500" height="500"/>
</g>
<g>
	<path class="st1" d="M343,301.5c-12.6-6.8-27.9-9-42-10.3c-29.6-2.7-61.1-2.3-88.8,9.8c-15,6.6-28.4,16.4-39.4,28.4
		c-10.4-11.1-18.7-24.4-23.8-37.8c-1.8-4.8-3.3-9.7-4.5-14.6c-0.8-3.5-1.7-8.6-2.3-13.5c-0.9-7.8-0.7-17.5,0.4-25.9
		c2.4-17.8,9.3-36.1,20.8-51.8c3.1-4.2,6.4-8.2,10-11.9c17.7,19.3,40.5,33.6,64.7,43.3c25.2,10,54.5,16.9,81.4,10.1
		c25.3-6.4,49.1-28.5,48.8-56.1c-0.3-25.8-22.3-40.2-44.4-47.6c-24.8-8.4-51.5-10.8-77.4-6.7c-25.1,4-48.8,13.9-68.2,30.4
		c-1.6,1.4-3.2,2.8-4.7,4.2c-9.9-11.8-17.5-25.5-20.8-40.4c-5.6-25.7,6.6-52.1,27-67.7c21.7-16.6,49.6-22.9,76.2-26
		c14.5-1.7,29.1-2.5,43.7-2.8c7-0.2,6.9-20.2,0-20C241.6-4,166.2,4,145.8,69.2c-10.1,32.1-1.5,66.1,17.9,92.7
		c-10.3,12.2-18.2,26.3-23.6,41.4c-15.9,43.9-9,95.8,19.2,133.2c1.3,1.7,2.6,3.3,3.9,4.9c-3.9,5.5-7.4,11.4-10.4,17.6
		c-12.2,25.4-17.2,57.1-8.9,84.4c8.2,27.1,30.6,43.6,55.9,53.8c14.2,5.7,29,9.7,43.8,13.4c5.8,1.5,7.3-18.2,0-20
		c-25.1-6.3-53-13.6-73.1-30.9c-8.4-7.2-15-16.3-18.1-27c-3.2-10.9-2.8-21.9-1.1-32.4c2.8-17.5,10.8-34.3,22-48.3
		c13,12,28.4,20.8,45.2,27.5c27.3,10.8,58.3,17.6,87.7,13.7c12.6-1.7,25.9-5.5,36-13.5c12.4-9.8,19.6-25.1,20.3-40.7
		C363.1,323.4,356.9,309,343,301.5z M212,146.9c21.8-9.7,46.3-13.5,70-11.8c22.1,1.6,46.6,6.8,64.7,20.3c3.5,2.6,6.8,5.7,9.1,9.4
		c2.1,3.3,2.4,6.3,1.9,9.8c-0.3,2.2-1.7,4.5-3,6.7c-3,5.2-7,9.9-11.5,13.8c-18.4,15.8-44.8,16.7-67.6,12.8
		c-24.4-4.2-48.4-14.2-69.1-27.7c-7.5-4.9-14.8-10.5-21.6-16.9C193.2,156.7,202.3,151.2,212,146.9z M351.7,341.7
		c-3.2,11.9-12.7,20.4-23.5,25.3c-23.6,10.8-52.3,8-76.9,2.5c-23.3-5.3-48.1-14.4-67-29.4c0.2-0.2,0.4-0.3,0.5-0.5
		c20.6-18.8,47.9-28.1,75.4-29.2c12.8-0.5,25.8-0.4,38.6,0.7c13.1,1.1,26.9,2.9,39,8.5c5.1,2.4,10.1,5.6,12.9,10.6
		C353.1,334.3,352.8,337.5,351.7,341.7z"/>
</g>
</svg>
