<?xml version="1.0" encoding="utf-8"?>
<!-- Generator: Adobe Illustrator 22.0.1, SVG Export Plug-In . SVG Version: 6.00 Build 0)  -->
<svg version="1.1" id="图层_1" xmlns="http://www.w3.org/2000/svg" xmlns:xlink="http://www.w3.org/1999/xlink" x="0px" y="0px"
	 viewBox="0 0 500 500" enable-background="new 0 0 500 500" xml:space="preserve">
<g>
	<path d="M247.8,312.7c-0.1-13.2-6.5-22.8-18.8-28.5c-26.3-12.2-52.4-25.2-78.8-37.1c-5.2-2.4-12.7-3.6-17.8-1.8
		c-28.7,10.1-57,21.2-85.5,32c-17,6.4-21.3,12.8-21.3,31.5c0,15,0,29.9,0,44.9h-0.1v23.5c0,8.2-0.5,16.4,0.1,24.6
		c0.4,4.7,1.4,10.4,4.3,13.6c10.5,11.4,22.2,20.9,35.6,29.5c2.4,1.6,4.7,4.1,7.3,6c4.3,3.1,8.7,6,13,8.9c4.3,2.9,9.2,5.2,12.8,8.9
		c11.8,12,31.7,17.2,44.8,10.6c7.9-4,15.6-8.5,23.1-13.1c22.1-13.5,47.1-21.4,67.8-37.9c8.1-6.4,13-12.5,13.2-21.5
		C248.1,375.4,248,344.1,247.8,312.7z M125.1,462.8c-2.2,0.4-2.7,0.7-2.8,0.6c-25.5-16.8-51.1-33.5-76.5-50.6
		c-1.8-1.2-2.7-5.1-2.7-7.7c-0.2-31-0.2-62.1-0.1-93.1c0-1.3,0.9-2.5,1.7-4.7c9.4,5.3,18.2,10.4,27,15.3
		c15.5,8.6,31.2,16.8,46.5,25.8c3.1,1.8,6.6,6.3,6.6,9.6C125.3,393,125.1,427.8,125.1,462.8z M122.8,339.8
		c-23.8-12.8-47.3-26.2-70.8-39.5c-1.4-0.8-2.2-2.5-4.8-5.5c22-8.4,42.9-14.6,62.2-24.2c21.9-10.9,41-9,60.8,3.8
		c8.6,5.5,18.5,9.1,27.8,13.5c9.3,4.4,18.5,8.7,30.1,14.2c-13.4,5.6-24.9,10.6-36.7,15.3c-19.2,7.6-38.4,15.2-57.7,22.3
		C130.5,340.9,125.7,341.3,122.8,339.8z M228.5,405.6c-0.1,3.1-1.9,7.6-4.3,9c-28.7,16.3-57.6,32.1-87.1,48.4
		c0-36,0.2-69.8-0.1-103.5c-0.1-6.9,2.3-9.7,8.7-12.2c22.9-8.7,45.5-18.2,68.3-27.5c9.8-4,15.5-0.9,15.6,9.9
		C229.7,355.1,229.2,380.3,228.5,405.6z"/>
	<path fill="#FF931E" d="M125.1,462.8c-2.2,0.4-2.7,0.7-2.8,0.6c-25.5-16.8-51.1-33.5-76.5-50.6c-1.8-1.2-2.7-5.1-2.7-7.7
		c-0.2-31-0.2-62.1-0.1-93.1c0-1.3,0.9-2.5,1.7-4.7c9.4,5.3,18.2,10.4,27,15.3c15.5,8.6,31.2,16.8,46.5,25.8
		c3.1,1.8,6.6,6.3,6.6,9.6C125.3,393,125.1,427.8,125.1,462.8z"/>
	<path fill="#AF4700" d="M228.5,405.6c-0.1,3.1-1.9,7.6-4.3,9c-28.7,16.3-57.6,32.1-87.1,48.4c0-36,0.2-69.8-0.1-103.5
		c-0.1-6.9,2.3-9.7,8.7-12.2c22.9-8.7,45.5-18.2,68.3-27.5c9.8-4,15.5-0.9,15.6,9.9C229.7,355.1,229.2,380.3,228.5,405.6z"/>
	<path d="M210.3,115.9c-8.9,0.1-17.6-7.7-17.7-16.2c-0.2-8.7,8-17.4,16.4-17.6c8.6-0.1,17.1,7.8,17.4,16.3
		C226.6,107,218.5,115.8,210.3,115.9z"/>
	<path d="M166.8,227.3c-9.1-0.3-17.2-8.4-17-16.9c0.2-8.7,8.7-17.1,17.1-16.9c8.6,0.2,16.7,8.5,16.6,17
		C183.5,219,175,227.5,166.8,227.3z"/>
	<path d="M474.8,279.7c-0.3,8.3-9.3,16.6-17.5,16c-9.1-0.6-16.9-9.1-16.3-17.6c0.6-8.7,9.4-16.7,17.8-16.1
		C467.5,262.6,475.1,271.1,474.8,279.7z"/>
	<path d="M338.5,330.1c-9,0-17.4-8-17.4-16.5c0-8.7,8.3-17.3,16.7-17.3c8.6,0,16.9,8.1,17.1,16.6C355,321.4,346.7,330.1,338.5,330.1
		z"/>
	<path fill="#FF931E" d="M228.1,302.1c-13.4,5.6-24.9,10.6-36.7,15.3c-19.2,7.6-38.4,15.2-57.7,22.3c-3.2,1.2-8,1.6-10.9,0
		c-23.8-12.8-47.3-26.2-70.8-39.5c-1.4-0.8-2.2-2.5-4.8-5.5c22-8.4,42.9-14.6,62.2-24.2c21.9-10.9,41-9,60.8,3.8
		c8.6,5.5,18.5,9.1,27.8,13.5C207.3,292.3,216.5,296.6,228.1,302.1z"/>
	<circle fill="#E6E6E6" stroke="#000000" stroke-width="13" stroke-miterlimit="10" cx="367.7" cy="124.9" r="107.1"/>
	<path fill="none" stroke="#000000" stroke-width="7" stroke-miterlimit="10" d="M260.6,124.9c0,0,46.9,17,107.1,16.2
		s107.1-16.2,107.1-16.2"/>
	<path fill="none" stroke="#000000" stroke-width="7" stroke-miterlimit="10" d="M367.7,17.9c0,0-30.3,49.5-29.7,107.1
		S367.7,232,367.7,232"/>
</g>
</svg>
