<?xml version="1.0" encoding="utf-8"?>
<!-- Generator: Adobe Illustrator 24.0.1, SVG Export Plug-In . SVG Version: 6.00 Build 0)  -->
<svg version="1.1" id="Layer_1" xmlns="http://www.w3.org/2000/svg" xmlns:xlink="http://www.w3.org/1999/xlink" x="0px" y="0px"
	 viewBox="0 0 500 500" style="enable-background:new 0 0 500 500;" xml:space="preserve">
<style type="text/css">
	.st0{fill:#5A5A5A;}
	.st1{fill:#FFAF37;}
	.st2{fill:#00FF00;}
</style>
<rect x="-0.5" y="0" class="st0" width="500.5" height="500.5"/>
<g>
	<path class="st1" d="M423.6,222.33c15.76,0,28.57,12.82,28.57,28.57s-12.82,28.57-28.57,28.57s-28.57-12.82-28.57-28.57
		S407.85,222.33,423.6,222.33 M423.6,202.33c-26.83,0-48.57,21.75-48.57,48.57c0,26.83,21.75,48.57,48.57,48.57
		s48.57-21.75,48.57-48.57C472.17,224.07,450.43,202.33,423.6,202.33L423.6,202.33z"/>
</g>
<g>
	<path class="st1" d="M423.6,222.33c15.76,0,28.57,12.82,28.57,28.57s-12.82,28.57-28.57,28.57s-28.57-12.82-28.57-28.57
		S407.85,222.33,423.6,222.33 M423.6,202.33c-26.83,0-48.57,21.75-48.57,48.57c0,26.83,21.75,48.57,48.57,48.57
		s48.57-21.75,48.57-48.57C472.17,224.07,450.43,202.33,423.6,202.33L423.6,202.33z"/>
</g>
<g>
	<path class="st1" d="M250,394.13c15.76,0,28.57,12.82,28.57,28.57s-12.82,28.57-28.57,28.57s-28.57-12.82-28.57-28.57
		S234.24,394.13,250,394.13 M250,374.13c-26.83,0-48.57,21.75-48.57,48.57s21.75,48.57,48.57,48.57s48.57-21.75,48.57-48.57
		S276.83,374.13,250,374.13L250,374.13z"/>
</g>
<circle class="st2" cx="423.6" cy="77.3" r="48.57"/>
<circle class="st2" cx="423.6" cy="422.7" r="48.57"/>
<circle class="st2" cx="76.4" cy="422.7" r="48.57"/>
<circle class="st2" cx="76.4" cy="77.3" r="48.57"/>
<g>
	<path class="st2" d="M63.5,64.5v371h139.64c-1.11-4.08-1.72-8.37-1.72-12.8c0-4.21,0.54-8.3,1.55-12.2H88.5v-321h323v114.35
		c3.87-0.99,7.92-1.52,12.1-1.52c4.47,0,8.79,0.62,12.9,1.74V64.5H63.5z"/>
	<path class="st2" d="M411.5,297.95V410.5H297.03c1.01,3.9,1.55,7.99,1.55,12.2c0,4.43-0.6,8.72-1.72,12.8H436.5V297.73
		c-4.11,1.13-8.43,1.74-12.9,1.74C419.42,299.47,415.37,298.94,411.5,297.95z"/>
</g>
</svg>
