<?xml version="1.0" encoding="utf-8"?>
<!-- Generator: Adobe Illustrator 22.0.1, SVG Export Plug-In . SVG Version: 6.00 Build 0)  -->
<svg version="1.1" id="图层_1" xmlns="http://www.w3.org/2000/svg" xmlns:xlink="http://www.w3.org/1999/xlink" x="0px" y="0px"
	 viewBox="0 0 500 500" style="enable-background:new 0 0 500 500;" xml:space="preserve">
<style type="text/css">
	.st0{fill:#00FF00;}
	.st1{fill:#5A5A5A;}
</style>
<rect x="1" y="1" class="st0" width="500" height="500"/>
<g>
	<path class="st1" d="M0.5,500.5c0-166.7,0-333.3,0-500c166.7,0,333.3,0,500,0c0,166.7,0,333.3,0,500
		C333.8,500.5,167.2,500.5,0.5,500.5z M137,342.2c-0.5-0.6-1.2-1.1-1.6-1.8c-5.6-7.7-11.3-15.2-16.7-23c-4.3-6.3-8.1-13-12.3-19.4
		c-0.9-1.4-2.8-3.1-4.1-3c-4.9,0.3-9.2,2.2-8,9c1.9,10.9,5.3,21.2,10.9,30.7c15.2,25.8,37.4,42.8,65.6,52.1c1.3,0.4,2.6,1.1,3.7,2
		c10.9,9,22.7,16.5,36.1,21.1c7.5,2.6,14.5,5.5,19.6,11.9c0.3,0.4,0.7,0.7,1.1,1c32.4,28.1,69.3,38.2,111.3,28.2
		c12.3-3,23.7-8.2,34.6-14.6c-15.7,7.9-32.1,13.8-49.7,15.4c-17.7,1.7-34.9-0.4-51.5-6.9c-16.2-6.3-39.9-22.3-43-28.8
		c0.5,0.1,0.9,0.1,1.3,0.2c17.4,2.7,34.6,1.6,51.4-3.4c30.9-9.1,55.2-27.5,74.5-52.9c19.2-25.3,30.6-53.9,35.1-85.2
		c0.4-3.1,0.8-6.2,1.1-9.3c-0.8,2.4-1.2,4.9-1.6,7.3c-3.8,24.9-12.2,48.2-25.7,69.5c-18.7,29.5-43.5,51.6-77.1,62.7
		c-22.1,7.3-44.3,7.5-66.6,0.7c-1.2-0.4-2.7-0.6-3.4-1.5c-3.1-3.9-5.9-7.9-9.1-12.3c1.4-0.2,2.2-0.4,3-0.4c9.9-0.7,19.6-3,29-6.1
		c16-5.4,30.2-14,42.9-25.1c45.1-39.9,63.1-104.8,45.3-162.5c-7.6-24.6-20.7-45.7-40.5-62.4c-3.1-2.6-6.5-5-9.8-7.5
		c-0.1,0.2-0.3,0.3-0.4,0.5c0.5,0.4,1.1,0.9,1.6,1.3c20.5,15.2,34.7,35.1,43.2,59c12.2,34.1,11.8,68.3-0.3,102.3
		c-10.9,30.4-29.5,54.9-57.4,71.7c-19.1,11.5-39.9,17-62.3,15.4c-0.9-0.1-2.2-0.4-2.6-1c-1.7-3.2-3.2-6.5-4.7-9.8
		c0.6-0.3,0.8-0.5,1-0.5c0.4-0.1,0.8-0.2,1.2-0.3c10.8-1.6,20.8-5.4,30.1-11c25.2-15.1,42.3-37.1,53-64.1
		c9.9-24.7,12.3-50.4,7.4-76.6c-5.4-29.1-18.8-53.7-41.6-72.9c-3-2.5-6.2-4.8-9.4-7.3c0.6-0.7,1.2-1.5,1.8-2.1
		c13.4-13.6,28.7-24.7,46.2-32.2c24.2-10.4,49.1-13,74.7-5.8c16.5,4.6,31.1,13,45,22.9c6.7,4.8,13.5,9.4,20.4,14
		c2.7,1.8,6.2,1.4,8.6-0.6c3-2.4,3.6-4.5,2.3-8.2c-0.7-1.9-1.5-3.7-2.5-5.5c-7.4-13.7-18.1-24.3-31.2-32.5
		C375.6,65.2,342.1,61.5,307,71c-29.2,8-53.2,24.5-73.7,46.4c-2.7,2.8-5.2,5.8-7.5,8.3c-6.7-2-12.9-3.9-19.2-5.9
		c-0.7-0.2-1.5-1-1.7-1.7c-1.7-4.3-5.2-6.2-9.6-4.7c-2.5,0.8-4.9,2.1-7.4,3.1c-0.8,0.3-1.7,0.7-2.6,0.6c-12.4-0.3-24.4,1.7-36.1,5.6
		c-1.4,0.5-2.9,1-4.3,1.1c-31.2,3.1-56.1,17.5-75.1,42.1c-12.9,16.7-20.3,35.6-22.8,56.5c-0.6,4.9-0.8,9.9-1.1,14.8
		c3.4-64.8,48.4-99.5,84.5-106.3c-11.6,6.8-21.4,14.8-30.1,24.6c0.4,0.1,0.5,0.1,0.5,0.1c0.7-0.7,1.4-1.4,2.1-2.1
		c8.2-8.2,17.2-15.3,27.4-20.7c2.5-1.3,5.1-3,7.7-3.2c6.1-0.6,12.3-0.7,18.4-0.6c3.7,0.1,7.3,0.8,11.5,1.4c-0.9,1.1-1.4,1.6-1.9,2.1
		c-14.5,14-24.9,30.7-32.7,49.1c-7.6,17.7-11.9,36.1-14.2,55.2c-2.9,24.4-0.8,48.4,5.6,72C128,320.3,132.2,331.3,137,342.2z"/>
	<path class="st1" d="M238,137.6c6.5,4.3,12.1,9.1,17.1,14.6c23.8,26.1,33.8,57,31,91.9c-2.3,29.6-13.6,55.4-34.4,76.8
		c-13.4,13.7-29.5,23.2-47.4,29.8c-2.9,1.1-5.8,2.2-8.7,3.2c-0.1,0.1-0.3,0-0.9,0c-7.8-23.2-12.2-47.3-11.2-71.7
		c2.1-48.3,19.1-101.6,37-121.4c1.7,2.2,3.5,4.2,5.1,6.4c12.5,17.4,19.5,36.8,19.9,58.2c0.2,11.5-1,22.9-1.6,34.4
		c-0.1,1.9-0.1,3.8-0.2,5.7c-0.1,2.3,1.3,3.5,3.3,4.1c2,0.6,3.7,0.2,4.8-1.9c4.2-7.6,6.4-15.8,7-24.3c2.5-34.3-8.5-63.9-32.1-88.8
		c-0.3-0.3-0.6-0.6-0.8-0.9c-0.1-0.1-0.2-0.3-0.4-0.9C229.5,148,233.7,142.9,238,137.6z"/>
	<path class="st1" d="M208.7,149c-3.7,6.8-7.2,13-10.3,19.3c-13.2,26.5-21.1,54.6-23.9,84.1c-0.9,9.7-2.1,19.5-1.8,29.2
		c0.7,23.8,4.8,47.2,12.4,69.8c0.4,1.2,0.8,2.4,1.3,3.5c0.5,1.3,0.4,2.3-0.2,3.7c-0.7,1.5-0.1,3.5-0.1,5.3c0.1,2.5,1.9,2.7,3.8,3.1
		c0.7,0.1,1.5,0.6,1.8,1.1c1.4,2.6,2.6,5.3,4.1,8.6c-3.2-0.8-6-1.3-8.7-2.2c-4.6-1.6-9.3-3.2-13.8-5.2c-1.9-0.8-3.7-2.3-4.9-4
		c-15.9-20.7-25-44.3-28.5-70c-1.1-8.2-2.1-16.4-2.2-24.6c-0.1-7.5,0.9-15.1,1.8-22.6c3.6-28.7,13.2-55.2,29.5-79.1
		c6.8-10,14.7-19.1,22.1-28.6c0.4-0.5,1.7-1,2.2-0.8C198.6,142.6,203.7,145.9,208.7,149z"/>
	<path class="st1" d="M223.2,128.7c-3.7,5-7,9.5-10.3,13.9c-5.2-3.1-10.2-6.1-15.7-9.3c2.5-3.2,5-6.5,7.5-9.7
		c0.3-0.4,1.3-0.6,1.8-0.4C212,124.9,217.4,126.8,223.2,128.7z"/>
	<path class="st1" d="M155.4,123.1c8.4-2.2,16.8-3.3,25.6-2.7c-2.1,1.6-4.3,3.3-6.5,4.8c-0.4,0.3-1.1,0.3-1.6,0.2
		C167.1,124.7,161.3,123.9,155.4,123.1z"/>
	<path class="st1" d="M196.9,392.3c6.8-2.1,10.1,1.3,12.5,7.1C205.1,397,201.2,394.8,196.9,392.3z"/>
</g>
</svg>
