<?xml version="1.0" encoding="utf-8"?>
<!-- Generator: Adobe Illustrator 22.1.0, SVG Export Plug-In . SVG Version: 6.00 Build 0)  -->
<svg version="1.1" id="图层_1" xmlns="http://www.w3.org/2000/svg" xmlns:xlink="http://www.w3.org/1999/xlink" x="0px" y="0px"
	 viewBox="0 0 500 500" style="enable-background:new 0 0 500 500;" xml:space="preserve">
<style type="text/css">
	.st0{fill:#E6E6E6;}
	.st1{fill:#FF931E;}
</style>
<g>
	<polygon class="st0" points="432.2,310.9 382.1,165.9 335.9,299.4 320.8,250.1 257.7,44.3 194.5,250.1 171.9,323.9 143.7,250.1 
		104.4,353 65.2,456 143.7,456 222.3,456 222.3,456 257.7,456 281.8,456 382.1,456 384,456 482.4,456 	"/>
	<polygon class="st1" points="384.7,332.7 334.6,209.4 288.4,322.9 273.3,281 210.1,106.1 147,281 124.4,343.7 96.2,281 56.9,368.5 
		17.6,456 96.2,456 174.8,456 174.8,456 210.1,456 234.3,456 334.6,456 336.4,456 434.8,456 	"/>
	<g>
		<path d="M257.7,44l61.9,201.9l15-36.8l17.6,43.1l30-86.7l50.1,145l50.1,145h-47.5v0h-98.4h-1.9H234.3h-12h-47.5h-31.1H96.2H65.2
			H17.6l39.3-87.5l39.3-87.5l19.3,43l28.2-73.9l7.4,19.4l59-163.5l15.4,42.8L257.7,44 M257.7,16.8L250,41.7l-25,81.6l-7.3-20.2
			l-7.5-20.8l-7.5,20.8l-51.7,143.2l-7.2-18.9l-7.5,19.6l-21.3,55.9l-11.4-25.4l-7.3-16.2l-7.3,16.2L49.6,365l-39.3,87.5l-5.1,11.3
			h12.4h47.5h31.1h47.5h31.1h47.5h12h100.3h1.9h98.4l47.5,0h11.2l-3.7-10.6l-50.1-145l-50.1-145l-7.6-21.9l-7.6,21.9l-23,66.6
			l-9.5-23.4l-7.4-18.2l-7.4,18.2l-6.5,15.9L265.3,41.7L257.7,16.8L257.7,16.8z"/>
	</g>
</g>
</svg>
