<?xml version="1.0" encoding="utf-8"?>
<!-- Generator: Adobe Illustrator 22.1.0, SVG Export Plug-In . SVG Version: 6.00 Build 0)  -->
<svg version="1.1" id="图层_1" xmlns="http://www.w3.org/2000/svg" xmlns:xlink="http://www.w3.org/1999/xlink" x="0px" y="0px"
	 viewBox="0 0 500 500" style="enable-background:new 0 0 500 500;" xml:space="preserve">
<style type="text/css">
	.st0{fill:#FF931E;}
	.st1{fill:#AF4700;}
	.st2{fill:#969696;stroke:#000000;stroke-width:9;stroke-miterlimit:10;}
	.st3{display:none;fill:#969696;}
</style>
<g>
	<path d="M301.1,38.8c0-6-3-10.4-8.6-13c-11.9-5.6-23.8-11.4-35.8-16.9c-2.4-1.1-5.8-1.6-8.1-0.8c-13.1,4.5-25.9,9.6-38.9,14.6
		c-7.7,3-9.7,5.8-9.7,14.4c0,6.8,0,13.6,0,20.4l0,0v10.7c0,3.7-0.2,7.5,0.1,11.2c0.2,2.1,0.6,4.8,2,6.2c4.8,5.2,10.2,9.5,16.2,13.4
		c1.1,0.7,2.1,1.9,3.3,2.7c1.9,1.4,3.9,2.7,5.9,4c1.9,1.4,4.2,2.3,5.8,4c5.4,5.5,14.5,7.8,20.4,4.9c3.6-1.8,7.1-3.9,10.6-6
		c10-6.1,21.5-9.7,30.9-17.2c3.7-3,5.9-5.7,6-9.7C301.2,67.3,301.2,53,301.1,38.8z M245.3,107.1c-1,0.2-1.2,0.3-1.3,0.2
		c-11.6-7.6-23.3-15.2-34.8-23c-0.8-0.5-1.3-2.3-1.3-3.5c-0.1-14.2-0.1-28.2-0.1-42.4c0-0.5,0.4-1.2,0.7-2.1c4.2,2.4,8.2,4.8,12.3,7
		c7.1,3.9,14.2,7.6,21.1,11.7c1.4,0.8,3,2.9,3.1,4.3C245.4,75.4,245.3,91.2,245.3,107.1z M244.2,51.1c-10.8-5.8-21.6-11.9-32.2-18
		c-0.6-0.3-1.1-1.2-2.2-2.5c10-3.8,19.6-6.7,28.3-11c9.9-5,18.7-4.1,27.7,1.7c3.9,2.5,8.5,4.1,12.7,6.1c4.2,2,8.5,4,13.6,6.4
		c-6.1,2.5-11.3,4.9-16.7,7c-8.7,3.5-17.4,6.9-26.2,10.2C247.7,51.7,245.5,51.8,244.2,51.1z M292.3,81.1c0,1.4-0.8,3.5-2,4.1
		c-13,7.4-26.2,14.6-39.6,22c0-16.4,0.1-31.7-0.1-47c0-3.2,1.1-4.4,4-5.5c10.5-3.9,20.7-8.4,31.1-12.5c4.4-1.8,7.1-0.4,7.1,4.4
		C292.8,58,292.6,69.5,292.3,81.1z"/>
	<path class="st0" d="M245.3,107.1c-1,0.2-1.2,0.3-1.3,0.2c-11.6-7.6-23.3-15.2-34.8-23c-0.8-0.5-1.3-2.3-1.3-3.5
		c-0.1-14.2-0.1-28.2-0.1-42.4c0-0.5,0.4-1.2,0.7-2.1c4.2,2.4,8.2,4.8,12.3,7c7.1,3.9,14.2,7.6,21.1,11.7c1.4,0.8,3,2.9,3.1,4.3
		C245.4,75.4,245.3,91.2,245.3,107.1z"/>
	<path class="st1" d="M292.3,81.1c0,1.4-0.8,3.5-2,4.1c-13,7.4-26.2,14.6-39.6,22c0-16.4,0.1-31.7-0.1-47c0-3.2,1.1-4.4,4-5.5
		c10.5-3.9,20.7-8.4,31.1-12.5c4.4-1.8,7.1-0.4,7.1,4.4C292.8,58,292.6,69.5,292.3,81.1z"/>
	<path class="st0" d="M292.1,33.9c-6.1,2.5-11.3,4.9-16.7,7c-8.7,3.5-17.4,6.9-26.2,10.2c-1.5,0.5-3.6,0.7-5,0
		c-10.8-5.8-21.6-11.9-32.2-18c-0.6-0.3-1.1-1.2-2.2-2.5c10-3.8,19.6-6.7,28.3-11c9.9-5,18.7-4.1,27.7,1.7c3.9,2.5,8.5,4.1,12.7,6.1
		C282.6,29.5,286.8,31.5,292.1,33.9z"/>
</g>
<g>
	<path d="M135.9,132c0-6-3-10.4-8.6-13c-11.9-5.6-23.8-11.4-35.8-16.9c-2.4-1.1-5.8-1.6-8.1-0.8c-13.1,4.5-25.9,9.6-38.9,14.6
		c-7.7,3-9.7,5.8-9.7,14.4c0,6.8,0,13.6,0,20.4l0,0v10.7c0,3.7-0.2,7.5,0.1,11.2c0.2,2.1,0.6,4.8,2,6.2c4.8,5.2,10.2,9.5,16.2,13.4
		c1.1,0.7,2.1,1.9,3.3,2.7c1.9,1.4,3.9,2.7,5.9,4c1.9,1.4,4.2,2.3,5.8,4c5.4,5.5,14.5,7.8,20.4,4.9c3.6-1.8,7.1-3.9,10.6-6
		c10-6.1,21.5-9.7,30.9-17.2c3.7-3,5.9-5.7,6-9.7C136,160.5,136,146.2,135.9,132z M80.1,200.3c-1,0.2-1.2,0.3-1.3,0.2
		c-11.6-7.6-23.3-15.2-34.8-23c-0.8-0.5-1.3-2.3-1.3-3.5c-0.1-14.2-0.1-28.2-0.1-42.4c0-0.5,0.4-1.2,0.7-2.1c4.2,2.4,8.2,4.8,12.3,7
		c7.1,3.9,14.2,7.6,21.1,11.7c1.4,0.8,3,2.9,3.1,4.3C80.2,168.5,80.1,184.4,80.1,200.3z M79,144.3c-10.8-5.8-21.6-11.9-32.2-18
		c-0.6-0.3-1.1-1.2-2.2-2.5c10-3.8,19.6-6.7,28.3-11c9.9-5,18.7-4.1,27.7,1.7c3.9,2.5,8.5,4.1,12.7,6.1c4.2,2,8.5,4,13.6,6.4
		c-6.1,2.5-11.3,4.9-16.7,7c-8.7,3.5-17.4,6.9-26.2,10.2C82.5,144.9,80.3,145,79,144.3z M127.2,174.3c0,1.4-0.8,3.5-2,4.1
		c-13,7.4-26.2,14.6-39.6,22c0-16.4,0.1-31.7-0.1-47c0-3.2,1.1-4.4,4-5.5c10.5-3.9,20.7-8.4,31.1-12.5c4.4-1.8,7.1-0.4,7.1,4.4
		C127.7,151.2,127.5,162.7,127.2,174.3z"/>
	<path class="st0" d="M80.1,200.3c-1,0.2-1.2,0.3-1.3,0.2c-11.6-7.6-23.3-15.2-34.8-23c-0.8-0.5-1.3-2.3-1.3-3.5
		c-0.1-14.2-0.1-28.2-0.1-42.4c0-0.5,0.4-1.2,0.7-2.1c4.2,2.4,8.2,4.8,12.3,7c7.1,3.9,14.2,7.6,21.1,11.7c1.4,0.8,3,2.9,3.1,4.3
		C80.2,168.5,80.1,184.4,80.1,200.3z"/>
	<path class="st1" d="M127.2,174.3c0,1.4-0.8,3.5-2,4.1c-13,7.4-26.2,14.6-39.6,22c0-16.4,0.1-31.7-0.1-47c0-3.2,1.1-4.4,4-5.5
		c10.5-3.9,20.7-8.4,31.1-12.5c4.4-1.8,7.1-0.4,7.1,4.4C127.7,151.2,127.5,162.7,127.2,174.3z"/>
	<path class="st0" d="M126.9,127.1c-6.1,2.5-11.3,4.9-16.7,7c-8.7,3.5-17.4,6.9-26.2,10.2c-1.5,0.5-3.6,0.7-5,0
		c-10.8-5.8-21.6-11.9-32.2-18c-0.6-0.3-1.1-1.2-2.2-2.5c10-3.8,19.6-6.7,28.3-11c9.9-5,18.7-4.1,27.7,1.7c3.9,2.5,8.5,4.1,12.7,6.1
		C117.4,122.7,121.7,124.7,126.9,127.1z"/>
</g>
<g>
	<path d="M135.9,322.1c0-6-3-10.4-8.6-13c-11.9-5.6-23.8-11.4-35.8-16.9c-2.4-1.1-5.8-1.6-8.1-0.8c-13.1,4.5-25.9,9.6-38.9,14.6
		c-7.7,3-9.7,5.8-9.7,14.4c0,6.8,0,13.6,0,20.4l0,0v10.7c0,3.7-0.2,7.5,0.1,11.2c0.2,2.1,0.6,4.8,2,6.2c4.8,5.2,10.2,9.5,16.2,13.4
		c1.1,0.7,2.1,1.9,3.3,2.7c1.9,1.4,3.9,2.7,5.9,4c1.9,1.4,4.2,2.3,5.8,4c5.4,5.5,14.5,7.8,20.4,4.9c3.6-1.8,7.1-3.9,10.6-6
		c10-6.1,21.5-9.7,30.9-17.2c3.7-3,5.9-5.7,6-9.7C136,350.7,136,336.4,135.9,322.1z M80.1,390.4c-1,0.2-1.2,0.3-1.3,0.2
		c-11.6-7.6-23.3-15.2-34.8-23c-0.8-0.5-1.3-2.3-1.3-3.5c-0.1-14.2-0.1-28.2-0.1-42.4c0-0.5,0.4-1.2,0.7-2.1c4.2,2.4,8.2,4.8,12.3,7
		c7.1,3.9,14.2,7.6,21.1,11.7c1.4,0.8,3,2.9,3.1,4.3C80.2,358.7,80.1,374.6,80.1,390.4z M79,334.5c-10.8-5.8-21.6-11.9-32.2-18
		c-0.6-0.3-1.1-1.2-2.2-2.5c10-3.8,19.6-6.7,28.3-11c9.9-5,18.7-4.1,27.7,1.7c3.9,2.5,8.5,4.1,12.7,6.1c4.2,2,8.5,4,13.6,6.4
		c-6.1,2.5-11.3,4.9-16.7,7c-8.7,3.5-17.4,6.9-26.2,10.2C82.5,335,80.3,335.1,79,334.5z M127.2,364.4c0,1.4-0.8,3.5-2,4.1
		c-13,7.4-26.2,14.6-39.6,22c0-16.4,0.1-31.7-0.1-47c0-3.2,1.1-4.4,4-5.5c10.5-3.9,20.7-8.4,31.1-12.5c4.4-1.8,7.1-0.4,7.1,4.4
		C127.7,341.4,127.5,352.9,127.2,364.4z"/>
	<path class="st0" d="M80.1,390.4c-1,0.2-1.2,0.3-1.3,0.2c-11.6-7.6-23.3-15.2-34.8-23c-0.8-0.5-1.3-2.3-1.3-3.5
		c-0.1-14.2-0.1-28.2-0.1-42.4c0-0.5,0.4-1.2,0.7-2.1c4.2,2.4,8.2,4.8,12.3,7c7.1,3.9,14.2,7.6,21.1,11.7c1.4,0.8,3,2.9,3.1,4.3
		C80.2,358.7,80.1,374.6,80.1,390.4z"/>
	<path class="st1" d="M127.2,364.4c0,1.4-0.8,3.5-2,4.1c-13,7.4-26.2,14.6-39.6,22c0-16.4,0.1-31.7-0.1-47c0-3.2,1.1-4.4,4-5.5
		c10.5-3.9,20.7-8.4,31.1-12.5c4.4-1.8,7.1-0.4,7.1,4.4C127.7,341.4,127.5,352.9,127.2,364.4z"/>
	<path class="st0" d="M126.9,317.3c-6.1,2.5-11.3,4.9-16.7,7c-8.7,3.5-17.4,6.9-26.2,10.2c-1.5,0.5-3.6,0.7-5,0
		c-10.8-5.8-21.6-11.9-32.2-18c-0.6-0.3-1.1-1.2-2.2-2.5c10-3.8,19.6-6.7,28.3-11c9.9-5,18.7-4.1,27.7,1.7c3.9,2.5,8.5,4.1,12.7,6.1
		C117.4,312.8,121.7,314.8,126.9,317.3z"/>
</g>
<g>
	<path d="M300.6,417.2c0-6-3-10.4-8.6-13c-11.9-5.6-23.8-11.4-35.8-16.9c-2.4-1.1-5.8-1.6-8.1-0.8c-13.1,4.5-25.9,9.6-38.9,14.6
		c-7.7,3-9.7,5.8-9.7,14.4c0,6.8,0,13.6,0,20.4l0,0v10.7c0,3.7-0.2,7.5,0.1,11.2c0.2,2.1,0.6,4.8,2,6.2c4.8,5.2,10.2,9.5,16.2,13.4
		c1.1,0.7,2.1,1.9,3.3,2.7c1.9,1.4,3.9,2.7,5.9,4c1.9,1.4,4.2,2.3,5.8,4c5.4,5.5,14.5,7.8,20.4,4.9c3.6-1.8,7.1-3.9,10.6-6
		c10-6.1,21.5-9.7,30.9-17.2c3.7-3,5.9-5.7,6-9.7C300.7,445.8,300.7,431.5,300.6,417.2z M244.8,485.5c-1,0.2-1.2,0.3-1.3,0.2
		c-11.6-7.6-23.3-15.2-34.8-23c-0.8-0.5-1.3-2.3-1.3-3.5c-0.1-14.2-0.1-28.2-0.1-42.4c0-0.5,0.4-1.2,0.7-2.1c4.2,2.4,8.2,4.8,12.3,7
		c7.1,3.9,14.2,7.6,21.1,11.7c1.4,0.8,3,2.9,3.1,4.3C244.9,453.8,244.8,469.6,244.8,485.5z M243.7,429.6
		c-10.8-5.8-21.6-11.9-32.2-18c-0.6-0.3-1.1-1.2-2.2-2.5c10-3.8,19.6-6.7,28.3-11c9.9-5,18.7-4.1,27.7,1.7c3.9,2.5,8.5,4.1,12.7,6.1
		c4.2,2,8.5,4,13.6,6.4c-6.1,2.5-11.3,4.9-16.7,7c-8.7,3.5-17.4,6.9-26.2,10.2C247.2,430.1,245,430.2,243.7,429.6z M291.8,459.5
		c0,1.4-0.8,3.5-2,4.1c-13,7.4-26.2,14.6-39.6,22c0-16.4,0.1-31.7-0.1-47c0-3.2,1.1-4.4,4-5.5c10.5-3.9,20.7-8.4,31.1-12.5
		c4.4-1.8,7.1-0.4,7.1,4.4C292.4,436.4,292.2,448,291.8,459.5z"/>
	<path class="st0" d="M244.8,485.5c-1,0.2-1.2,0.3-1.3,0.2c-11.6-7.6-23.3-15.2-34.8-23c-0.8-0.5-1.3-2.3-1.3-3.5
		c-0.1-14.2-0.1-28.2-0.1-42.4c0-0.5,0.4-1.2,0.7-2.1c4.2,2.4,8.2,4.8,12.3,7c7.1,3.9,14.2,7.6,21.1,11.7c1.4,0.8,3,2.9,3.1,4.3
		C244.9,453.8,244.8,469.6,244.8,485.5z"/>
	<path class="st1" d="M291.8,459.5c0,1.4-0.8,3.5-2,4.1c-13,7.4-26.2,14.6-39.6,22c0-16.4,0.1-31.7-0.1-47c0-3.2,1.1-4.4,4-5.5
		c10.5-3.9,20.7-8.4,31.1-12.5c4.4-1.8,7.1-0.4,7.1,4.4C292.4,436.4,292.2,448,291.8,459.5z"/>
	<path class="st0" d="M291.6,412.3c-6.1,2.5-11.3,4.9-16.7,7c-8.7,3.5-17.4,6.9-26.2,10.2c-1.5,0.5-3.6,0.7-5,0
		c-10.8-5.8-21.6-11.9-32.2-18c-0.6-0.3-1.1-1.2-2.2-2.5c10-3.8,19.6-6.7,28.3-11c9.9-5,18.7-4.1,27.7,1.7c3.9,2.5,8.5,4.1,12.7,6.1
		C282.1,407.9,286.3,409.9,291.6,412.3z"/>
</g>
<g>
	<path d="M466.8,322.1c0-6-3-10.4-8.6-13c-11.9-5.6-23.8-11.4-35.8-16.9c-2.4-1.1-5.8-1.6-8.1-0.8c-13.1,4.5-25.9,9.6-38.9,14.6
		c-7.7,3-9.7,5.8-9.7,14.4c0,6.8,0,13.6,0,20.4l0,0v10.7c0,3.7-0.2,7.5,0.1,11.2c0.2,2.1,0.6,4.8,2,6.2c4.8,5.2,10.2,9.5,16.2,13.4
		c1.1,0.7,2.1,1.9,3.3,2.7c1.9,1.4,3.9,2.7,5.9,4c1.9,1.4,4.2,2.3,5.8,4c5.4,5.5,14.5,7.8,20.4,4.9c3.6-1.8,7.1-3.9,10.6-6
		c10-6.1,21.5-9.7,30.9-17.2c3.7-3,5.9-5.7,6-9.7C466.9,350.7,466.9,336.4,466.8,322.1z M410.9,390.4c-1,0.2-1.2,0.3-1.3,0.2
		c-11.6-7.6-23.3-15.2-34.8-23c-0.8-0.5-1.3-2.3-1.3-3.5c-0.1-14.2-0.1-28.2-0.1-42.4c0-0.5,0.4-1.2,0.7-2.1c4.2,2.4,8.2,4.8,12.3,7
		c7.1,3.9,14.2,7.6,21.1,11.7c1.4,0.8,3,2.9,3.1,4.3C411,358.7,410.9,374.6,410.9,390.4z M409.9,334.5c-10.8-5.8-21.6-11.9-32.2-18
		c-0.6-0.3-1.1-1.2-2.2-2.5c10-3.8,19.6-6.7,28.3-11c9.9-5,18.7-4.1,27.7,1.7c3.9,2.5,8.5,4.1,12.7,6.1c4.2,2,8.5,4,13.6,6.4
		c-6.1,2.5-11.3,4.9-16.7,7c-8.7,3.5-17.4,6.9-26.2,10.2C413.4,335,411.1,335.1,409.9,334.5z M458,364.4c0,1.4-0.8,3.5-2,4.1
		c-13,7.4-26.2,14.6-39.6,22c0-16.4,0.1-31.7-0.1-47c0-3.2,1.1-4.4,4-5.5c10.5-3.9,20.7-8.4,31.1-12.5c4.4-1.8,7.1-0.4,7.1,4.4
		C458.5,341.4,458.3,352.9,458,364.4z"/>
	<path class="st0" d="M410.9,390.4c-1,0.2-1.2,0.3-1.3,0.2c-11.6-7.6-23.3-15.2-34.8-23c-0.8-0.5-1.3-2.3-1.3-3.5
		c-0.1-14.2-0.1-28.2-0.1-42.4c0-0.5,0.4-1.2,0.7-2.1c4.2,2.4,8.2,4.8,12.3,7c7.1,3.9,14.2,7.6,21.1,11.7c1.4,0.8,3,2.9,3.1,4.3
		C411,358.7,410.9,374.6,410.9,390.4z"/>
	<path class="st1" d="M458,364.4c0,1.4-0.8,3.5-2,4.1c-13,7.4-26.2,14.6-39.6,22c0-16.4,0.1-31.7-0.1-47c0-3.2,1.1-4.4,4-5.5
		c10.5-3.9,20.7-8.4,31.1-12.5c4.4-1.8,7.1-0.4,7.1,4.4C458.5,341.4,458.3,352.9,458,364.4z"/>
	<path class="st0" d="M457.8,317.3c-6.1,2.5-11.3,4.9-16.7,7c-8.7,3.5-17.4,6.9-26.2,10.2c-1.5,0.5-3.6,0.7-5,0
		c-10.8-5.8-21.6-11.9-32.2-18c-0.6-0.3-1.1-1.2-2.2-2.5c10-3.8,19.6-6.7,28.3-11c9.9-5,18.7-4.1,27.7,1.7c3.9,2.5,8.5,4.1,12.7,6.1
		C448.3,312.8,452.5,314.8,457.8,317.3z"/>
</g>
<g>
	<path d="M465.3,134.2c0-6-3-10.4-8.6-13c-11.9-5.6-23.8-11.4-35.8-16.9c-2.4-1.1-5.8-1.6-8.1-0.8c-13.1,4.5-25.9,9.6-38.9,14.6
		c-7.7,3-9.7,5.8-9.7,14.4c0,6.8,0,13.6,0,20.4l0,0v10.7c0,3.7-0.2,7.5,0.1,11.2c0.2,2.1,0.6,4.8,2,6.2c4.8,5.2,10.2,9.5,16.2,13.4
		c1.1,0.7,2.1,1.9,3.3,2.7c1.9,1.4,3.9,2.7,5.9,4c1.9,1.4,4.2,2.3,5.8,4c5.4,5.5,14.5,7.8,20.4,4.9c3.6-1.8,7.1-3.9,10.6-6
		c10-6.1,21.5-9.7,30.9-17.2c3.7-3,5.9-5.7,6-9.7C465.4,162.8,465.4,148.5,465.3,134.2z M409.5,202.5c-1,0.2-1.2,0.3-1.3,0.2
		c-11.6-7.6-23.3-15.2-34.8-23c-0.8-0.5-1.3-2.3-1.3-3.5C372,162,372,148,372,133.8c0-0.5,0.4-1.2,0.7-2.1c4.2,2.4,8.2,4.8,12.3,7
		c7.1,3.9,14.2,7.6,21.1,11.7c1.4,0.8,3,2.9,3.1,4.3C409.6,170.8,409.5,186.7,409.5,202.5z M408.4,146.6
		c-10.8-5.8-21.6-11.9-32.2-18c-0.6-0.3-1.1-1.2-2.2-2.5c10-3.8,19.6-6.7,28.3-11c9.9-5,18.7-4.1,27.7,1.7c3.9,2.5,8.5,4.1,12.7,6.1
		c4.2,2,8.5,4,13.6,6.4c-6.1,2.5-11.3,4.9-16.7,7c-8.7,3.5-17.4,6.9-26.2,10.2C411.9,147.1,409.7,147.2,408.4,146.6z M456.5,176.5
		c0,1.4-0.8,3.5-2,4.1c-13,7.4-26.2,14.6-39.6,22c0-16.4,0.1-31.7-0.1-47c0-3.2,1.1-4.4,4-5.5c10.5-3.9,20.7-8.4,31.1-12.5
		c4.4-1.8,7.1-0.4,7.1,4.4C457.1,153.5,456.8,165,456.5,176.5z"/>
	<path class="st0" d="M409.5,202.5c-1,0.2-1.2,0.3-1.3,0.2c-11.6-7.6-23.3-15.2-34.8-23c-0.8-0.5-1.3-2.3-1.3-3.5
		C372,162,372,148,372,133.8c0-0.5,0.4-1.2,0.7-2.1c4.2,2.4,8.2,4.8,12.3,7c7.1,3.9,14.2,7.6,21.1,11.7c1.4,0.8,3,2.9,3.1,4.3
		C409.6,170.8,409.5,186.7,409.5,202.5z"/>
	<path class="st1" d="M456.5,176.5c0,1.4-0.8,3.5-2,4.1c-13,7.4-26.2,14.6-39.6,22c0-16.4,0.1-31.7-0.1-47c0-3.2,1.1-4.4,4-5.5
		c10.5-3.9,20.7-8.4,31.1-12.5c4.4-1.8,7.1-0.4,7.1,4.4C457.1,153.5,456.8,165,456.5,176.5z"/>
	<path class="st0" d="M456.3,129.4c-6.1,2.5-11.3,4.9-16.7,7c-8.7,3.5-17.4,6.9-26.2,10.2c-1.5,0.5-3.6,0.7-5,0
		c-10.8-5.8-21.6-11.9-32.2-18c-0.6-0.3-1.1-1.2-2.2-2.5c10-3.8,19.6-6.7,28.3-11c9.9-5,18.7-4.1,27.7,1.7c3.9,2.5,8.5,4.1,12.7,6.1
		C446.8,124.9,451,126.9,456.3,129.4z"/>
</g>
<g>
	<path class="st2" d="M250,359.2c-60.2,0-109.2-49-109.2-109.2s49-109.2,109.2-109.2s109.2,49,109.2,109.2S310.2,359.2,250,359.2z
		 M250,201.4c-26.8,0-48.6,21.8-48.6,48.6c0,26.8,21.8,48.6,48.6,48.6c26.8,0,48.6-21.8,48.6-48.6
		C298.7,223.2,276.9,201.4,250,201.4z"/>
</g>
<circle class="st3" cx="250" cy="52.1" r="4.2"/>
<circle class="st3" cx="78.7" cy="151.1" r="4.2"/>
<circle class="st3" cx="78.7" cy="348.9" r="4.2"/>
<circle class="st3" cx="250" cy="447.9" r="4.2"/>
<circle class="st3" cx="421.3" cy="348.9" r="4.2"/>
<circle class="st3" cx="421.3" cy="151.1" r="4.2"/>
</svg>
