<?xml version="1.0" encoding="utf-8"?>
<!-- Generator: Adobe Illustrator 22.0.1, SVG Export Plug-In . SVG Version: 6.00 Build 0)  -->
<svg version="1.1" id="图层_1" xmlns="http://www.w3.org/2000/svg" xmlns:xlink="http://www.w3.org/1999/xlink" x="0px" y="0px"
	 viewBox="0 0 500 500" enable-background="new 0 0 500 500" xml:space="preserve">
<path d="M15.4,484.3c0-156.5,0-312.1,0-468.5c11.4,0,22.6,0,34.7,0c0,19.9,0,39.7,0,60.8c9.1,0,17.4,0,26.3,0c0,9.2,0,17.2,0,26.4
	c-8,0-16.3,0-25.3,0c0,12.5,0,23.7,0,35.8c8.2,0,16.2,0,25.1,0c0,9.1,0,17.3,0,26.4c-8,0-16,0-24.9,0c0,12,0,23.3,0,35.8
	c7.9,0,16.2,0,25.1,0c0,9.2,0,17.2,0,26.4c-8.1,0-16.3,0-25.3,0c0,12.5,0,23.7,0,35.8c8.3,0,16.3,0,25.1,0c0,9.1,0,17.3,0,26.4
	c-8.1,0-16.1,0-25,0c0,12,0,23.3,0,35.8c8,0,16.3,0,25.2,0c0,9.2,0,17.2,0,26.4c-8.2,0-16.5,0-25.4,0c0,12.5,0,23.7,0,35.8
	c8.4,0,16.4,0,25.2,0c0,9.1,0,17.3,0,26.4c-8.2,0-16.2,0-25,0c0,12.1,0,23.3,0,35.3c11.1,0,22.4,0,34.5,0c0-8.1,0-16.1,0-25
	c9.1,0,17.3,0,26.4,0c0,8,0,16,0,24.9c12,0,23.3,0,35.8,0c0-8,0-16.3,0-25.1c9.2,0,17.2,0,26.4,0c0,8.2,0,16.5,0,25.4
	c12.5,0,23.7,0,35.8,0c0-8.5,0-16.5,0-25.2c8.8,0,16.8,0,26,0c0,7.8,0,16.1,0,25.1c12.5,0,23.7,0,35.8,0c0-8,0-16,0-24.9
	c9.1,0,17.3,0,26.4,0c0,7.9,0,15.9,0,24.8c12,0,23.3,0,35.8,0c0-7.9,0-16.2,0-25c9.2,0,17.2,0,26.4,0c0,8.1,0,16.4,0,25.3
	c12.5,0,23.7,0,35.8,0c0-8.4,0-16.4,0-25.2c9.1,0,17.3,0,26.4,0c0,8.2,0,16.2,0,25.4c20.9,0,41,0,61.8,0c0,12.2,0,23.1,0,34.8
	C328.6,484.3,172.5,484.3,15.4,484.3z"/>
<path d="M319.5,210.2c-7.1-5.1-13.7-10.8-20.9-15.6c-6.9-4.5-14.5-8.1-21.5-12c-12.7,7-25.7,13.8-38.3,21.1
	c-11.1,6.4-22.2,12.8-32.5,20.3c-13.3,9.6-36.1,6.2-49.2-4c-3.8-3-8.1-5.8-12.2-8.5c-13.9-9.2-29-17.1-41.3-28.2
	c-6.5-5.9-10.4-17.2-11-26.3c-1.5-23.2-0.5-46.5-0.4-69.8c0.1-19.9,5.1-26.5,23.8-33.4c21.2-7.9,42.1-16.7,63.5-24.1
	c6-2.1,14.2-2.6,19.7-0.1c23.1,10.3,45.5,22.2,68.3,33.1c2.5,1.2,6.5,1.7,8.9,0.7c19.3-8.3,38.4-17.2,57.6-25.7
	c5.7-2.5,11.7-3.8,17.4-6.4c13.5-6.1,23.8-3.6,35.4,2.1c15.5,7.6,31.3,14.7,46.6,22.6c16.7,8.6,29.8,19.2,28.1,41.4
	c-1.6,19.8-0.9,39.9-0.2,59.8c0.5,16.7-8,26.8-21.3,34.5c-19.3,11.1-38.8,22-57.9,33.6c-14.8,9-35.5,4-48.7-6.4 M441.4,92.8
	c-2.6,0.6-5.2,0.9-7.4,1.7c-17.9,6.7-35.5,14.3-53.7,20c-9.3,2.9-12.1,7-11.9,16.3c0.7,22.4,0.5,44.9,0.5,67.3
	c0,8.8,2.4,10.3,10.8,5.7c18.2-9.8,36.3-19.6,54.2-30c3.3-1.9,7.1-6.4,7.2-9.8C441.7,140.5,441.4,117,441.4,92.8z M191,169.9
	c0.2,0,0.4,0,0.5,0c0,8.8-0.2,17.7,0.1,26.5c0.1,2.3,0.7,4.7,1.3,7c0.3,1.2,1.5,2,2.8,1.8c2.4-0.4,4.9-0.7,6.9-1.8
	c17.5-9.4,34.8-19.4,52.4-28.7c7.3-3.9,9.8-9.1,9-18c-1.4-15.2-1.6-30.5,0.1-45.7c1.7-14.4,0.8-20.1-10.2-15.9
	c-18.9,7.3-38.1,13.8-56.7,21.5c-3.1,1.3-5.7,7.3-5.9,11.2C190.6,141.9,191,155.9,191,169.9z M172.2,209.6c1.5,1,3.5,0.5,4.3-1.1
	c0.6-1.1,0.9-1.7,0.9-2.3c0.5-26.5,1-53,1-79.6c0-2.3-2.5-5.5-4.7-6.8c-17.3-10.4-34.8-20.6-52.5-30.4c-6-3.3-10.7-2.1-10.6,6.5
	c0.2,14.4,1.5,29-0.3,43.1c-2.8,21.8,4.2,36.2,24.2,46C147.6,191.5,159.3,200.8,172.2,209.6z M353.6,210.8c0.9-3.9,1.9-6.4,1.9-8.8
	c0.3-24.7,0.7-49.4,0.2-74.1c-0.1-3.3-4-7.7-7.3-9.7c-15.7-9.6-31.7-18.6-47.6-27.7c-8.3-4.7-11.8-2.9-11.8,6.2
	c-0.1,21-0.6,42,0.3,63c0.2,5.1,4.3,11.6,8.5,14.8c13.8,10.4,28.4,19.7,42.9,29.3C344.5,206.3,348.8,208.2,353.6,210.8z M114.3,72.3
	c-0.8,0.3-0.9,1.5-0.2,1.9c21.4,12.2,40.2,23.3,59.4,33.6c3.7,2,9.6,2.3,13.5,0.9c23.3-8.6,46.3-17.9,71.6-27.9
	c1-0.4,1.2-1.7,0.3-2.4c-4.5-3.2-8.1-6-12.1-8c-11.5-5.9-23.6-10.6-34.7-17c-13.9-8.1-26.8-10.3-42.3-2.8
	C152.7,58.9,134.4,64.7,114.3,72.3z M435.8,81c1.1-0.4,1.3-1.9,0.4-2.6c-4.1-3-7.3-5.6-10.9-7.5c-11.8-6-24.2-11.1-35.8-17.5
	c-13.5-7.4-25.9-10.7-41.3-3c-17.1,8.6-35.7,14.3-56,21.8c-1,0.4-1.1,1.8-0.2,2.3c18.9,10.6,35.9,19.4,51.9,29.9
	c10.1,6.6,18.6,6.1,28.9,1.7C392.7,97.6,413,90,435.8,81z"/>
<path fill="#AF4700" d="M441.4,92.8c0,24.2,0.3,47.7-0.3,71.2c-0.1,3.4-3.9,7.9-7.2,9.8c-17.8,10.4-36,20.2-54.2,30
	c-8.5,4.6-10.8,3.1-10.8-5.7c0-22.4,0.2-44.9-0.5-67.3c-0.3-9.3,2.6-13.4,11.9-16.3c18.2-5.6,35.8-13.3,53.7-20
	C436.2,93.6,438.8,93.4,441.4,92.8z"/>
<path fill="#AF4700" d="M191,169.9c0-14-0.4-28,0.3-42c0.2-3.9,2.8-9.9,5.9-11.2c18.7-7.8,37.9-14.2,56.7-21.5
	c11-4.2,11.9,1.4,10.2,15.9c-1.8,15.2-1.6,30.5-0.1,45.7c0.8,8.8-1.6,14.1-9,18c-17.6,9.2-34.9,19.3-52.4,28.7c-2,1.1-4.5,1.4-7,1.8
	c-1.2,0.2-2.4-0.6-2.7-1.8c-0.6-2.3-1.2-4.7-1.3-7c-0.2-8.8-0.6-17.1-0.6-26C190.8,170.5,191.2,169.9,191,169.9z"/>
<path fill="#FF931E" d="M176.4,208.8c-0.7,1.4-2.5,1.9-3.9,1c-13.1-8.9-24.8-18.3-37.9-24.7c-20.1-9.9-27.1-24.2-24.2-46
	c1.8-14.1,0.5-28.7,0.3-43.1c-0.1-8.5,4.5-9.8,10.6-6.5c17.7,9.8,35.1,20,52.5,30.4c2.2,1.3,4.7,4.5,4.7,6.8
	c-0.1,26.5-0.6,53-1,79.6C177.4,206.9,177,207.5,176.4,208.8z"/>
<path fill="#FF931E" d="M353.6,210.8c-4.8-2.6-9.1-4.4-12.9-6.9c-14.4-9.6-29.1-18.9-42.9-29.3c-4.3-3.2-8.3-9.7-8.5-14.8
	c-0.9-21-0.5-42-0.3-63c0.1-9.1,3.6-10.9,11.8-6.2c16,9.1,32,18.1,47.6,27.7c3.3,2,7.3,6.4,7.3,9.7c0.5,24.7,0,49.4-0.2,74.1
	C355.5,204.4,354.5,206.8,353.6,210.8z"/>
<path fill="#FF931E" d="M114.4,74.4c-0.9-0.5-0.8-1.8,0.2-2.2c20-7.6,38.3-13.4,55.4-21.6c15.4-7.5,28.3-5.3,42.3,2.8
	c11.1,6.4,23.2,11.2,34.7,17c4,2,7.6,4.9,12.2,8.1c0.9,0.6,0.7,1.9-0.3,2.3c-25.4,10-48.4,19.3-71.7,27.9c-3.9,1.5-9.8,1.1-13.5-0.9
	C154.4,97.6,135.7,86.6,114.4,74.4z"/>
<path fill="#FF931E" d="M436.2,78.4c0.9,0.7,0.7,2.1-0.3,2.6c-22.9,9-43.1,16.6-63,25.1c-10.3,4.4-18.8,4.9-28.9-1.7
	c-16-10.5-33.1-19.3-52-29.9c-0.9-0.5-0.8-1.8,0.2-2.1c20.3-7.6,38.9-13.3,56.1-21.9c15.4-7.7,27.8-4.4,41.3,3
	c11.6,6.4,24,11.5,35.8,17.5C428.9,72.7,432.1,75.4,436.2,78.4z"/>
</svg>
