<?xml version="1.0" encoding="utf-8"?>
<!-- Generator: Adobe Illustrator 22.1.0, SVG Export Plug-In . SVG Version: 6.00 Build 0)  -->
<svg version="1.1" id="图层_1" xmlns="http://www.w3.org/2000/svg" xmlns:xlink="http://www.w3.org/1999/xlink" x="0px" y="0px"
	 viewBox="0 0 500 500" enable-background="new 0 0 500 500" xml:space="preserve">
<g>
	<linearGradient id="SVGID_1_" gradientUnits="userSpaceOnUse" x1="100.1216" y1="311.647" x2="100.1216" y2="471.5591">
		<stop  offset="0" style="stop-color:#FF931E"/>
		<stop  offset="0.654" style="stop-color:#C75E09"/>
		<stop  offset="1" style="stop-color:#AF4600"/>
	</linearGradient>
	<circle fill="url(#SVGID_1_)" cx="100.1" cy="391.6" r="80"/>
</g>
<g>
	<path fill="#FF931E" d="M432.3,67.1c4,0,7.2,3.2,7.2,7.2v132.9c0,4-3.2,7.2-7.2,7.2H317.5c-8.2,0-16.1,2.4-23,6.9L223,266.1
		l10.8-16.6c5.4-6.3,6.7-15.2,3.2-22.7c-3.5-7.5-11-12.4-19.3-12.4h-28.1c-4,0-7.2-3.2-7.2-7.2V74.3c0-4,3.2-7.2,7.2-7.2H432.3
		 M432.3,32.1H189.6c-23.3,0-42.2,18.9-42.2,42.2v132.9c0,23.3,18.9,42.2,42.2,42.2h2.6l-85.1,130.9l134.5-84.5l71.5-44.9l0.3-0.2
		l0.3-0.2c1.1-0.7,2.4-1.1,3.7-1.1h114.8c23.3,0,42.2-18.9,42.2-42.2V74.3C474.5,51,455.6,32.1,432.3,32.1L432.3,32.1z"/>
</g>
<g>
	
		<rect x="257.7" y="127.1" transform="matrix(-1 -1.224647e-16 1.224647e-16 -1 625.5573 283.3281)" fill="#FF931E" width="110.2" height="29.1"/>
	
		<rect x="257.7" y="127.1" transform="matrix(-1.836970e-16 1 -1 -1.836970e-16 454.4427 -171.1146)" fill="#FF931E" width="110.2" height="29.1"/>
</g>
</svg>
