<?xml version="1.0" encoding="utf-8"?>
<!-- Generator: Adobe Illustrator 22.1.0, SVG Export Plug-In . SVG Version: 6.00 Build 0)  -->
<svg version="1.1" id="图层_1" xmlns="http://www.w3.org/2000/svg" xmlns:xlink="http://www.w3.org/1999/xlink" x="0px" y="0px"
	 viewBox="0 0 500 500" enable-background="new 0 0 500 500" xml:space="preserve">
<g>
	<linearGradient id="SVGID_1_" gradientUnits="userSpaceOnUse" x1="100.1216" y1="313.1465" x2="100.1216" y2="470.0586">
		<stop  offset="0" style="stop-color:#FF931E"/>
		<stop  offset="0.654" style="stop-color:#C75E09"/>
		<stop  offset="1" style="stop-color:#AF4600"/>
	</linearGradient>
	<circle fill="url(#SVGID_1_)" cx="100.1" cy="391.6" r="78.5"/>
	<path d="M100.1,314.6c42.4,0,77,34.5,77,77s-34.5,77-77,77s-77-34.5-77-77S57.7,314.6,100.1,314.6 M100.1,311.6
		c-44.2,0-80,35.8-80,80s35.8,80,80,80s80-35.8,80-80S144.3,311.6,100.1,311.6L100.1,311.6z"/>
</g>
<path fill="#FF931E" stroke="#000000" stroke-width="3" stroke-miterlimit="10" d="M432.3,67.1c4,0,7.2,3.2,7.2,7.2v132.9
	c0,4-3.2,7.2-7.2,7.2H317.5c-8.2,0-16.1,2.4-23,6.9L223,266.1l10.8-16.6c5.4-6.3,6.7-15.2,3.2-22.7c-3.5-7.5-11-12.4-19.3-12.4
	h-28.1c-4,0-7.2-3.2-7.2-7.2V74.3c0-4,3.2-7.2,7.2-7.2H432.3 M432.3,32.1H189.6c-23.3,0-42.2,18.9-42.2,42.2v132.9
	c0,23.3,18.9,42.2,42.2,42.2h2.6l-85.1,130.9l134.5-84.5l71.5-44.9l0.3-0.2l0.3-0.2c1.1-0.7,2.4-1.1,3.7-1.1h114.8
	c23.3,0,42.2-18.9,42.2-42.2V74.3C474.5,51,455.6,32.1,432.3,32.1L432.3,32.1z"/>
<g>
	<polygon fill="#FF931E" stroke="#000000" stroke-width="3" stroke-miterlimit="10" points="367.9,127.1 367.9,156.2 327.3,156.2 
		327.3,196.8 298.2,196.8 298.2,156.2 257.7,156.2 257.7,127.1 298.2,127.1 298.2,86.6 327.3,86.6 327.3,127.1 	"/>
</g>
</svg>
