<?xml version="1.0" encoding="utf-8"?>
<!-- Generator: Adobe Illustrator 22.0.1, SVG Export Plug-In . SVG Version: 6.00 Build 0)  -->
<svg version="1.1" id="图层_1" xmlns="http://www.w3.org/2000/svg" xmlns:xlink="http://www.w3.org/1999/xlink" x="0px" y="0px"
	 viewBox="0 0 500 500" enable-background="new 0 0 500 500" xml:space="preserve">
<g>
	<path d="M147.8,118c0-9.6,0.1-19.3,0-28.9c-0.4-37.6,9.8-38,37.3-45.7c33.2-9.3,67-16.5,100.1-25.9c9.8-2.8,17.6,0.2,25.8,2.8
		c32.3,10.2,64.4,21,96.8,31.2c17.5,5.5,27,13.6,27.2,37.2c0.2,23.6,0.1,47.2,0,70.8c0,18.6-6,25.3-23.3,31.3
		c-27,9.4-53.4,20.1-80.2,30.1c-13.8,5.2-27.4,11.3-41.6,14.7c-7.4,1.8-16.8,0.4-23.9-2.7c-34.9-15.2-69.4-31.5-104.1-47.4
		c-11-5-13-15.6-13.8-25.5C146.9,146,147.8,132,147.8,118z M286.2,219c3.3-0.7,6-0.8,8.4-1.7c39.3-14.4,78.5-28.7,117.6-43.5
		c2.9-1.1,5.8-6.2,5.9-9.5c0.6-20.3,0.5-40.5,0.2-60.8c-0.1-8.1-1.4-16.1-2.1-24.6c-6,2.3-10.2,4.4-14.6,5.6
		c-34.6,9.2-69.2,18.3-103.8,27.4c-7.7,2-12.3,4.7-12,14.6C286.8,156.8,286.2,187.3,286.2,219z M166.3,73.8
		c-0.6,1.3-1.7,2.8-1.8,4.3c-0.2,29.6-0.4,59.2-0.1,88.7c0,2.1,2.9,5.2,5.1,6.3c33.5,15.4,67.1,30.5,100.7,45.6
		c1.9,0.9,4.2,0.9,7.2,1.6c0-33.2,0.2-65.4-0.3-97.6c0-2.8-3.5-6.9-6.4-8.1c-16.2-6.9-32.6-13.1-49-19.5
		C203.7,88,185.5,81.1,166.3,73.8z M414.7,71.8c-3.8-2.1-5-3.1-6.5-3.6c-36.2-11.9-72.5-23.8-108.7-35.5c-2.4-0.8-5.4-1.3-7.8-0.7
		c-38.2,9.9-76.4,20-114.5,30.2c-3,0.8-5.7,3.1-10,5.6c7.3,1.9,12.6,2.7,17.5,4.6c28.5,10.8,56.8,22.1,85.5,32.5
		c5.2,1.9,11.8,1.6,17.3,0.5c13.9-3,27.6-7.1,41.4-10.7C356.6,87.2,384.5,79.8,414.7,71.8z"/>
	<path d="M20.3,365.7c-2.8-3-3.9-8.4-4-12.7c-0.5-14.9-0.2-29.9-0.2-44.9c0,0,0.1,0,0.1,0c0-14,0-27.9,0-41.9
		c0-17.4,4-23.4,19.9-29.4c26.5-10,52.9-20.5,79.7-29.8c4.8-1.7,11.7-0.5,16.6,1.7c24.7,11.1,49,23.1,73.5,34.6
		c11.5,5.3,17.4,14.2,17.5,26.6c0.2,29.2,0.3,58.5-0.3,87.7c-0.2,8.4-4.8,14-12.3,20c-19.3,15.4-42.6,22.7-63.2,35.3
		c-7,4.3-14.2,8.5-21.5,12.2c-12.1,6.2-30.7,1.3-41.7-9.9c-3.3-3.4-7.9-5.5-11.9-8.3c-4.1-2.8-8.2-5.4-12.1-8.3 M120.2,410
		c27.4-15.1,53.8-29.4,80-44.3c2.6-1.5,5-5.7,5.1-8.7c0.7-23.9,1.2-47.8,1-71.7c-0.1-9.4-5.5-12.3-14.1-8.8
		c-20.9,8.4-41.6,17.4-62.7,25.1c-7.9,2.9-9.6,6.7-9.5,14.5C120.4,346.6,120.2,377.1,120.2,410z M109.1,411.8
		c0-34.6,0.2-66.8-0.3-99c0-3.2-2.9-7.7-5.7-9.3c-15.4-9.1-31.2-17.4-46.8-26c-7.3-4.1-14.6-8.2-22.5-12.6c-0.7,2.4-1.3,3.6-1.3,4.8
		c0,28.6-0.2,57.2,0.3,85.8c0.1,3.5,3,8.1,6,10.2c20.4,14.3,41.1,28.2,61.8,42.1C102.5,409.1,105,409.9,109.1,411.8z M204.8,260.1
		c-26.5-12.7-50.7-24.8-75.5-35.9c-4.5-2-11.3-1.6-16.1,0.1c-22.5,7.9-44.8,16.6-67.1,25.1c-2.9,1.1-5.6,2.6-8.6,4
		c1,2.1,1.2,3.3,1.9,3.7c22.8,12.9,45.5,25.9,68.5,38.5c2.3,1.3,6.4,0.6,9.2-0.5c18-6.7,35.9-13.7,53.8-20.8
		C181.7,270,192.5,265.3,204.8,260.1z"/>
	<path d="M435.4,283.4c3.5,2.1,6.3,3.1,8.4,5c12,10.4,23.9,20.9,35.5,31.8c1.6,1.5,2.5,6.4,1.5,7.3c-14,12.9-28.5,25.3-42.8,37.9
		c-0.3,0.3-1.2-0.1-3-0.2c0.5-7.8,0.9-15.5,1.4-23.3c-25.6-7.3-43.5-0.7-57.1,20.7c-13.2,20.8-26.2,41.8-40.4,61.8
		c-12.4,17.4-29.1,27.5-51.8,25.7c-11.9-1-23.9-0.4-35.9,0c-5.5,0.1-7.5-1.7-7.7-7.4c-1-22.5-1.2-22.4,21.4-22.4c4,0,8.1-0.5,12,0.1
		c24,3.9,37.3-10,48.4-28.3c10.6-17.4,21.7-34.6,33-51.6c13.6-20.5,31.7-32.8,57.6-30.1c3.3,0.4,6.7-0.2,10,0.2
		c8.6,0.9,12.7-1.2,9.8-11C434.4,295.1,435.4,290.2,435.4,283.4z"/>
	<path d="M435,481.8c0.3-4.9-0.1-10.1,1.1-14.7c2.3-8.7-1.3-10.5-9.1-10.2c-16.2,0.5-32.8,1.9-47.3-7.7c-5.7-3.8-11-8.2-16.1-12.8
		c-1.5-1.3-2.9-4.8-2.1-6.2c4.2-8.1,8.8-16,13.8-23.6c0.5-0.8,5,0,6.7,1.3c2.2,1.7,3.5,4.7,5.2,7.1c4.9,6.7,10.6,11.8,19.7,11.4
		c9-0.4,20.1,2.8,26.2-1.4c4.5-3.1,2.4-15.7,3.4-26.1c16.1,14.5,31.5,28.3,47.6,42.9c-16.2,14.5-31.4,28.2-46.7,41.8
		C436.6,483,435.8,482.4,435,481.8z"/>
	<path d="M316.8,364.9c-20.3-29.7-48.3-13.3-73.1-19.5c0-7.5-0.2-15.9,0.2-24.3c0.1-1.5,3-4.2,4.4-4.1c22.2,1.9,45.1-4.7,66.8,4.6
		c1.8,0.8,3.6,1.6,5.3,2.6c15.9,9.5,15.8,9.5,5.1,24.9C322.6,353.3,320.6,358,316.8,364.9z"/>
	<path fill="#969696" d="M286.2,219c0-31.7,0.6-62.2-0.3-92.7c-0.3-9.9,4.3-12.6,12-14.6c34.6-9,69.2-18.1,103.8-27.4
		c4.4-1.2,8.5-3.2,14.6-5.6c0.8,8.5,2,16.5,2.1,24.6c0.3,20.3,0.4,40.6-0.2,60.8c-0.1,3.3-3.1,8.5-5.9,9.5
		c-39.1,14.9-78.4,29.2-117.6,43.5C292.3,218.2,289.5,218.4,286.2,219z"/>
	<path fill="#E6E6E6" d="M166.3,73.8c19.2,7.4,37.4,14.3,55.5,21.3c16.4,6.4,32.8,12.6,49,19.5c2.8,1.2,6.3,5.3,6.4,8.1
		c0.4,32.2,0.3,64.5,0.3,97.6c-3-0.6-5.3-0.7-7.2-1.6c-33.6-15.1-67.2-30.2-100.7-45.6c-2.3-1-5.1-4.1-5.1-6.3
		c-0.2-29.6-0.1-59.2,0.1-88.7C164.6,76.6,165.7,75.1,166.3,73.8z"/>
	<path fill="#E6E6E6" d="M414.7,71.8c-30.2,8-58,15.4-85.9,22.8c-13.8,3.6-27.4,7.7-41.4,10.7c-5.5,1.2-12.1,1.4-17.3-0.5
		c-28.6-10.4-57-21.7-85.5-32.5c-4.9-1.8-10.1-2.7-17.5-4.6c4.3-2.4,6.9-4.7,10-5.6C215.3,52,253.5,41.9,291.7,32
		c2.4-0.6,5.3-0.1,7.8,0.7c36.3,11.7,72.5,23.6,108.7,35.5C409.6,68.7,410.9,69.7,414.7,71.8z"/>
	<path fill="#AF4600" d="M120.2,410c0-32.9,0.3-63.4-0.2-93.9c-0.1-7.7,1.7-11.6,9.5-14.5c21.2-7.7,41.8-16.7,62.7-25.1
		c8.6-3.5,14-0.6,14.1,8.8c0.2,23.9-0.3,47.8-1,71.7c-0.1,3-2.5,7.3-5.1,8.7C174,380.6,147.5,395,120.2,410z"/>
	<path fill="#FF931E" d="M109.1,411.8c-4.2-1.9-6.6-2.7-8.6-4.1c-20.7-13.9-41.4-27.8-61.8-42.1c-3-2.1-5.9-6.7-6-10.2
		c-0.5-28.6-0.3-57.2-0.3-85.8c0-1.2,0.7-2.4,1.3-4.8c7.9,4.4,15.2,8.6,22.5,12.6c15.6,8.6,31.4,17,46.8,26c2.8,1.7,5.7,6.1,5.7,9.3
		C109.3,345,109.1,377.2,109.1,411.8z"/>
	<path fill="#FF931E" d="M204.8,260.1c-12.2,5.1-23,9.8-33.9,14.2c-17.9,7.1-35.8,14.1-53.8,20.8c-2.8,1-6.9,1.7-9.2,0.5
		c-23-12.6-45.7-25.5-68.5-38.5c-0.7-0.4-0.9-1.7-1.9-3.7c3-1.4,5.7-2.9,8.6-4c22.3-8.5,44.6-17.2,67.1-25.1
		c4.9-1.7,11.6-2.1,16.1-0.1C154,235.3,178.3,247.4,204.8,260.1z"/>
</g>
</svg>
