<?xml version="1.0" encoding="utf-8"?>
<!-- Generator: Adobe Illustrator 22.1.0, SVG Export Plug-In . SVG Version: 6.00 Build 0)  -->
<svg version="1.1" id="Layer_1" xmlns="http://www.w3.org/2000/svg" xmlns:xlink="http://www.w3.org/1999/xlink" x="0px" y="0px"
	 viewBox="0 0 500 500" style="enable-background:new 0 0 500 500;" xml:space="preserve">
<style type="text/css">
	.st0{fill:#5A5A5A;}
	.st1{fill:#00FF00;}
</style>
<rect class="st0" width="500" height="500"/>
<path class="st1" d="M29.4,30.8c0,12.1,0,23.8,0,36c147.9,0,294.6,0,441.2,0c0-12.3,0-24.1,0-36C323.1,30.8,176.4,30.8,29.4,30.8z"
	/>
<path class="st1" d="M29.4,469.2c0-12.1,0-23.8,0-36c147.9,0,294.6,0,441.2,0c0,12.3,0,24.1,0,36
	C323.1,469.2,176.4,469.2,29.4,469.2z"/>
<path class="st1" d="M464.7,247.2l-38.6-21.1c-3.4-1.8-7.6-0.6-9.4,2.8l0,0.1c-31.8,60.1-75.4,142.4-139.6,143h-0.6
	c-35.8,0-56.8-27.5-75.3-51.8c-19.8-25.9-33.3-41.7-54.8-41.7c-20.6,0-36,20.1-45.3,37c-11.3,20.6-18.2,44.9-20.8,62.9
	c-0.7,4.9-5,8.4-9.9,8L44,384.5c-5.4-0.4-9.3-5.2-8.6-10.6c2.9-21.8,11-52.6,26.2-80.2c21.7-39.4,51-60.3,84.7-60.3
	c45.3,0,70.4,32.9,90.6,59.4c16.1,21.2,26.9,34.1,39.5,34.1h0.2c14.9-0.1,32-12.5,50.8-36.8c18.9-24.5,35.8-56.5,49.5-82.2l0.4-0.8
	c1.8-3.3,0.5-7.4-2.8-9.2l-40-21.9l118.7-62.3L464.7,247.2z"/>
</svg>
