<?xml version="1.0" encoding="utf-8"?>
<!-- Generator: Adobe Illustrator 22.0.1, SVG Export Plug-In . SVG Version: 6.00 Build 0)  -->
<svg version="1.1" id="图层_1" xmlns="http://www.w3.org/2000/svg" xmlns:xlink="http://www.w3.org/1999/xlink" x="0px" y="0px"
	 viewBox="0 0 500 500" enable-background="new 0 0 500 500" xml:space="preserve">
<path d="M462.5,291.3c0,53.9,0.1,107.8-0.1,161.6c0,6.6-1,13.2-2.4,19.6c-2.4,11.1-12.3,17.2-23.3,14.6c-26-6.2-51.9-12.7-77.8-19
	c-1.1-0.3-2.2-1-3.2-0.8c-26.1,5.7-49.3-7.3-73.8-12c-18.2-3.5-35.5-10.8-53.5-15.4c-25.6-6.5-52.5-9.3-76.8-18.9
	c-24.3-9.5-49.6-12.5-74.3-19.3c-5.3-1.4-10.7-2.1-15.9-3.6c-18.8-5.8-24-12.3-23.7-32.1c0.3-24.3,2-48.5,2.1-72.8
	c0.1-19-1.9-38.1-2.1-57.1c-0.4-32.6-0.1-65.3-0.1-97.9c0-30.5-0.1-61,0.1-91.5c0.1-6.6,0.9-13.2,2.3-19.7
	c2.4-10.7,12.6-16.6,23.5-14.5C122,23.8,180.5,35.1,239,46.1c34.7,6.5,69.5,12.2,104.2,18.9c5.4,1.1,10.1,5.9,15.3,8.8
	c2.7,1.5,5.6,3.1,8.6,3.8c24,5.2,48.4,9.1,72,15.6c19.5,5.3,23.5,12.6,23.5,33.3C462.6,181.3,462.5,236.3,462.5,291.3z M358.5,93.2
	c-0.6,1-1.7,1.9-1.7,2.8c-0.2,24.3-0.4,48.6-0.1,72.9c0,2.2,3.5,5.6,5.9,6.2c26.3,6.7,52.7,13,79.2,19.4c0.7-0.9,2-1.8,2-2.6
	c0.4-25.4,0.8-50.8,0.6-76.2c0-2.2-4.4-5.9-7.2-6.5C411.4,103.6,385.4,98.6,358.5,93.2z M55.2,296.9c0,27-0.2,52.7,0.4,78.4
	c0.1,2.3,4.9,5.7,8.1,6.6c8.1,2.3,16.6,3.4,24.9,5.2c17.9,3.7,35.8,7.6,55.3,11.7c0-26.1,0.3-50.7-0.4-75.4
	c-0.1-2.7-5.1-6.7-8.5-7.6C109.3,309.3,83.6,303.5,55.2,296.9z M359.2,370.5c-1.2,1.4-2.1,1.9-2.1,2.4c-0.2,23.9-0.6,47.9,0,71.8
	c0.1,2.8,4.9,7.1,8.3,8c23.2,5.9,46.6,10.8,69.8,16.5c7.2,1.8,9.4-0.2,9.3-7.2c-0.1-21,0.4-42,0-63c-0.1-3.1-3.1-8.2-5.7-8.9
	C412.2,383.1,385.5,376.8,359.2,370.5z M337.2,451.4c0.6-2.2,1.3-3.5,1.4-4.9c0.2-25,0.6-50.1,0.2-75.1c0-2.8-4.5-7.1-7.7-8
	c-14.1-4.2-28.5-7.5-42.8-10.9c-9.4-2.2-18.9-4.1-29.6-6.3c0,22.5,0,43,0,63.6c0.1,22.8,0.1,22.9,21.5,28.1
	C299,442.5,317.9,446.8,337.2,451.4z M259.3,66.3c0,27.2-0.2,53.3,0.3,79.3c0,2.2,4.5,5.4,7.4,6.2c12.4,3.2,25,5.9,37.6,8.4
	c10.7,2.1,21.5,3.5,33.9,5.5c0-26.9,0.1-52.7-0.2-78.4c0-1.9-3-4.8-5.2-5.6c-4.4-1.6-9.3-2.2-14-3.2
	C299.8,74.5,280.4,70.6,259.3,66.3z M161.8,322.5c0,27-0.3,52,0.3,76.9c0.1,3.1,4.2,8.1,7.3,8.9c20.3,5.2,40.8,9.4,61.2,14.3
	c7.9,1.9,10.7-0.6,10.5-8.7c-0.4-15.4,0-30.9,0-46.4c0.1-25,0.1-25.1-24.2-31.4C199.2,331.5,181.4,327.3,161.8,322.5z M143.7,121.5
	c0-18.7,0-36,0-53.2c0-20.9,0.1-21.2-20.4-25.6C101.4,38,79.5,33.8,55.6,29c0,15.2,0,29.5,0,43.7c0,27-0.1,27.2,26.2,33.9
	C101.7,111.7,121.7,116.2,143.7,121.5z M161.1,47.8c0,20.3,0,39,0,57.7c0.1,20.4,0.1,20.3,19.5,25.3c3.6,0.9,7.1,2.1,10.6,2.9
	c16.3,3.8,32.5,7.5,50.3,11.6c0-26.8,0.1-51.4-0.2-76c0-2.2-2.6-5.8-4.5-6.2C212.5,57.9,188.1,53.1,161.1,47.8z M356.4,280.5
	c0,22.8-0.2,44.1,0.3,65.3c0,2.2,3.4,5.8,5.8,6.4c26.3,6.7,52.8,13,79.7,19.5c0.8-1.5,2.2-3.1,2.2-4.7c0.3-19.9,0.6-39.8,0.3-59.7
	c0-2.3-3.2-6-5.6-6.6C412.4,293.9,385.6,287.6,356.4,280.5z M143.8,210.7c0-22.9,0.3-44.1-0.4-65.4c-0.1-2.4-4.9-6-8.1-6.8
	c-25.9-6.5-51.9-12.4-80-19c0,22.8-0.1,44.7,0.2,66.6c0,1.5,3.2,3.9,5.3,4.4C87.7,197.2,114.4,203.6,143.8,210.7z M441.4,282.6
	c0.9-1.8,2.4-3.4,2.5-5c0.4-19.5,0.7-39,0.5-58.5c0-2.2-3.5-5.3-6-6.4c-5.1-2-10.6-2.9-16-4.2c-21.3-5.1-42.6-10.2-65.7-15.7
	c0,22.3-0.2,43.2,0.3,64c0.1,2.2,3.7,5.7,6.3,6.4C389.1,269.8,415.1,276.1,441.4,282.6z M55.6,209.1c0,14.8,0,28.3,0,41.8
	c0,25.8,0,26,25.1,32.5c20.2,5.2,40.5,9.9,63.1,15.3c0-20.9-0.2-40.2,0.1-59.6c0.1-7.2-2.4-10.5-9.6-12.1
	C108.9,221.6,83.6,215.5,55.6,209.1z M163.2,233.5c-0.8,1.2-1.6,1.8-1.6,2.4c-0.2,14.7-0.5,29.5-0.5,44.2c0,22.6,0.1,22.6,21.4,28.3
	c2.8,0.8,5.7,1.7,8.5,2.3c16.3,3.8,32.6,7.5,50.4,11.6c0-17.5-0.1-33,0-48.4c0.1-21.1,0.2-21.1-19.8-26.1
	C202.2,243.1,182.6,238.3,163.2,233.5z M339,257.9c0-22.7,0.3-43.6-0.3-64.6c-0.1-2.5-4.4-6.3-7.5-7.2c-14.5-4.1-29.3-7.6-44-11.1
	c-9.1-2.1-18.3-3.8-28.6-6c0,17.3,0,32.8,0,48.2c0.1,20.6,0.1,20.6,20.1,25.9c1.4,0.4,2.8,0.8,4.3,1.2
	C301.1,248.8,319.2,253.2,339,257.9z M241,233.6c0-23,0.3-43.6-0.3-64.1c-0.1-2.5-4.4-6.3-7.5-7.2c-11.6-3.3-23.6-5.7-35.4-8.4
	c-11.6-2.7-23.2-5.4-36.3-8.4c0,17.5-0.1,33.3,0,49.1c0.1,23.4-2.6,19.4,18.6,24.2c4.3,1,8.5,2.3,12.8,3.3
	C208.3,225.8,223.5,229.4,241,233.6z M259.2,257.6c0,22.8-0.3,43.4,0.3,63.9c0.1,2.7,4.3,6.8,7.2,7.6c20.9,5.5,42.1,10.4,63.2,15.3
	c2.3,0.5,4.8,0.1,8.7,0.1c0-15,0-29.2,0-43.5c0-23,0.1-23.3-22-29.1C298.2,266.9,279.7,262.6,259.2,257.6z"/>
<path fill="#E6E6E6" d="M358.5,93.2c26.9,5.4,52.9,10.4,78.8,16c2.8,0.6,7.2,4.2,7.2,6.5c0.2,25.4-0.2,50.8-0.6,76.2
	c0,0.9-1.3,1.7-2,2.6c-26.5-6.4-52.9-12.7-79.2-19.4c-2.4-0.6-5.9-4.1-5.9-6.2c-0.3-24.3-0.1-48.6,0.1-72.9
	C356.8,95.1,357.9,94.2,358.5,93.2z"/>
<path fill="#E6E6E6" d="M55.2,296.9c28.3,6.6,54.1,12.4,79.7,18.9c3.4,0.9,8.5,4.9,8.5,7.6c0.7,24.6,0.4,49.3,0.4,75.4
	c-19.6-4.1-37.4-8-55.3-11.7c-8.3-1.7-16.8-2.8-24.9-5.2c-3.2-0.9-8-4.2-8.1-6.6C55,349.5,55.2,323.8,55.2,296.9z"/>
<path fill="#FF931E" d="M359.2,370.5c26.2,6.4,53,12.6,79.6,19.6c2.6,0.7,5.6,5.8,5.7,8.9c0.4,21-0.1,42,0,63c0,7-2.2,9-9.3,7.2
	c-23.2-5.7-46.6-10.7-69.8-16.5c-3.3-0.8-8.2-5.2-8.3-8c-0.5-23.9-0.2-47.9,0-71.8C357.2,372.4,358.1,371.8,359.2,370.5z"/>
<path fill="#E6E6E6" d="M337.2,451.4c-19.2-4.5-38.1-8.9-57-13.5c-21.5-5.2-21.5-5.3-21.5-28.1c-0.1-20.5,0-41.1,0-63.6
	c10.7,2.3,20.2,4.1,29.6,6.3c14.3,3.4,28.7,6.7,42.8,10.9c3.2,0.9,7.6,5.2,7.7,8c0.4,25,0.1,50.1-0.2,75.1
	C338.5,447.9,337.8,449.2,337.2,451.4z"/>
<path fill="#FF931E" d="M259.3,66.3c21,4.3,40.4,8.2,59.8,12.1c4.7,1,9.5,1.5,14,3.2c2.2,0.8,5.2,3.6,5.2,5.6
	c0.3,25.7,0.2,51.5,0.2,78.4c-12.4-2-23.2-3.4-33.9-5.5c-12.6-2.4-25.2-5.1-37.6-8.4c-2.9-0.7-7.3-4-7.4-6.2
	C259.1,119.6,259.3,93.5,259.3,66.3z"/>
<path fill="#FF931E" d="M161.8,322.5c19.6,4.8,37.4,9,55.1,13.6c24.3,6.3,24.3,6.4,24.2,31.4c0,15.5-0.4,30.9,0,46.4
	c0.2,8.1-2.6,10.6-10.5,8.7c-20.4-4.8-40.9-9-61.2-14.3c-3.1-0.8-7.2-5.8-7.3-8.9C161.5,374.5,161.8,349.5,161.8,322.5z"/>
<path fill="#FF931E" d="M143.7,121.5c-22-5.3-42-9.8-61.9-14.9c-26.3-6.8-26.2-7-26.2-33.9c0-14.2,0-28.4,0-43.7
	c23.9,4.8,45.9,9,67.7,13.7c20.5,4.4,20.4,4.7,20.4,25.6C143.7,85.5,143.7,102.7,143.7,121.5z"/>
<path fill="#E6E6E6" d="M161.1,47.8c26.9,5.4,51.4,10.1,75.7,15.3c1.9,0.4,4.5,4,4.5,6.2c0.3,24.6,0.2,49.2,0.2,76
	c-17.8-4.1-34-7.8-50.3-11.6c-3.6-0.8-7.1-2-10.6-2.9c-19.4-4.9-19.4-4.9-19.5-25.3C161.1,86.8,161.1,68.1,161.1,47.8z"/>
<path fill="#E6E6E6" d="M356.4,280.5c29.2,7,56,13.4,82.7,20.2c2.4,0.6,5.6,4.3,5.6,6.6c0.3,19.9,0,39.8-0.3,59.7
	c0,1.6-1.5,3.2-2.2,4.7c-26.9-6.5-53.3-12.7-79.7-19.5c-2.4-0.6-5.8-4.2-5.8-6.4C356.2,324.6,356.4,303.3,356.4,280.5z"/>
<path fill="#E6E6E6" d="M143.8,210.7c-29.4-7.1-56.2-13.5-82.9-20.2c-2.1-0.5-5.3-2.9-5.3-4.4c-0.3-21.9-0.2-43.8-0.2-66.6
	c28,6.6,54.1,12.5,80,19c3.2,0.8,8,4.4,8.1,6.8C144.1,166.6,143.8,187.9,143.8,210.7z"/>
<path fill="#FF931E" d="M441.4,282.6c-26.3-6.5-52.3-12.8-78.2-19.5c-2.6-0.7-6.2-4.1-6.3-6.4c-0.5-20.8-0.3-41.7-0.3-64
	c23.1,5.5,44.4,10.6,65.7,15.7c5.4,1.3,10.9,2.2,16,4.2c2.5,1,6,4.1,6,6.4c0.3,19.5-0.1,39-0.5,58.5
	C443.9,279.2,442.4,280.8,441.4,282.6z"/>
<path fill="#FF931E" d="M55.6,209.1c28,6.4,53.3,12.5,78.7,17.9c7.1,1.5,9.7,4.9,9.6,12.1c-0.3,19.4-0.1,38.7-0.1,59.6
	c-22.6-5.5-42.9-10.1-63.1-15.3c-25.1-6.5-25-6.7-25.1-32.5C55.6,237.4,55.6,223.9,55.6,209.1z"/>
<path fill="#E6E6E6" d="M163.2,233.5c19.3,4.8,38.9,9.5,58.5,14.4c20,5,19.9,5.1,19.8,26.1c-0.1,15.4,0,30.8,0,48.4
	c-17.8-4.1-34.1-7.8-50.4-11.6c-2.9-0.7-5.7-1.6-8.5-2.3c-21.3-5.7-21.4-5.7-21.4-28.3c0-14.7,0.3-29.5,0.5-44.2
	C161.7,235.3,162.4,234.7,163.2,233.5z"/>
<path fill="#E6E6E6" d="M339,257.9c-19.8-4.8-37.9-9.1-56-13.5c-1.4-0.3-2.8-0.8-4.3-1.2c-20-5.3-20-5.3-20.1-25.9
	c-0.1-15.4,0-30.9,0-48.2c10.3,2.1,19.5,3.8,28.6,6c14.7,3.5,29.4,6.9,44,11.1c3,0.9,7.4,4.7,7.5,7.2
	C339.3,214.3,339,235.3,339,257.9z"/>
<path fill="#FF931E" d="M241,233.6c-17.4-4.2-32.7-7.8-48-11.4c-4.3-1-8.5-2.3-12.8-3.3c-21.2-4.8-18.5-0.8-18.6-24.2
	c-0.1-15.8,0-31.5,0-49.1c13,3,24.6,5.7,36.3,8.4c11.8,2.7,23.7,5.1,35.4,8.4c3,0.9,7.4,4.6,7.5,7.2C241.2,190,241,210.5,241,233.6z
	"/>
<path fill="#FF931E" d="M259.2,257.6c20.5,5,39.1,9.3,57.4,14.2c22.1,5.9,22,6.1,22,29.1c0,14.3,0,28.5,0,43.5
	c-3.9,0-6.4,0.5-8.7-0.1c-21.1-4.9-42.2-9.8-63.2-15.3c-3-0.8-7.2-4.9-7.2-7.6C258.9,301,259.2,280.5,259.2,257.6z"/>
</svg>
