<?xml version="1.0" encoding="utf-8"?>
<!-- Generator: Adobe Illustrator 22.0.1, SVG Export Plug-In . SVG Version: 6.00 Build 0)  -->
<svg version="1.1" id="图层_1" xmlns="http://www.w3.org/2000/svg" xmlns:xlink="http://www.w3.org/1999/xlink" x="0px" y="0px"
	 viewBox="0 0 500 500" style="enable-background:new 0 0 500 500;" xml:space="preserve">
<style type="text/css">
	.st0{fill:none;stroke:#000000;stroke-width:30;stroke-miterlimit:10;}
	.st1{fill:none;stroke:#000000;stroke-width:20;stroke-miterlimit:10;}
	.st2{fill:#969696;}
	.st3{fill:#FF931E;}
</style>
<g>
	<line class="st0" x1="37.8" y1="6.8" x2="37.8" y2="493.2"/>
	<line class="st1" x1="37.8" y1="223.9" x2="205.4" y2="223.9"/>
	<line class="st1" x1="37.8" y1="412" x2="205.4" y2="412"/>
	<g>
		<path class="st2" d="M227.9,278.5c-7.2,0-13.1-5.9-13.1-13.1v-83.1c0-7.2,5.9-13.1,13.1-13.1h112.5c7.2,0,13.1,5.9,13.1,13.1v83.1
			c0,7.2-5.9,13.1-13.1,13.1H227.9z"/>
		<path d="M340.4,179.3c1.7,0,3.1,1.4,3.1,3.1v83.1c0,1.7-1.4,3.1-3.1,3.1H227.9c-1.7,0-3.1-1.4-3.1-3.1v-83.1
			c0-1.7,1.4-3.1,3.1-3.1H340.4 M340.4,159.3H227.9c-12.7,0-23.1,10.4-23.1,23.1v83.1c0,12.7,10.4,23.1,23.1,23.1h112.5
			c12.7,0,23.1-10.4,23.1-23.1v-83.1C363.5,169.7,353.2,159.3,340.4,159.3L340.4,159.3z"/>
	</g>
	<g>
		<path class="st3" d="M227.9,466.6c-7.2,0-13.1-5.9-13.1-13.1v-83.1c0-7.2,5.9-13.1,13.1-13.1h231.1c7.2,0,13.1,5.9,13.1,13.1v83.1
			c0,7.2-5.9,13.1-13.1,13.1H227.9z"/>
		<g>
			<path d="M459.1,367.4c1.7,0,3.1,1.4,3.1,3.1v83.1c0,1.7-1.4,3.1-3.1,3.1H227.9c-1.7,0-3.1-1.4-3.1-3.1v-83.1
				c0-1.7,1.4-3.1,3.1-3.1H459.1 M459.1,347.4H227.9c-12.7,0-23.1,10.4-23.1,23.1v83.1c0,12.7,10.4,23.1,23.1,23.1h231.1
				c12.7,0,23.1-10.4,23.1-23.1v-83.1C482.2,357.7,471.8,347.4,459.1,347.4L459.1,347.4z"/>
		</g>
	</g>
</g>
</svg>
