<?xml version="1.0" encoding="utf-8"?>
<!-- Generator: Adobe Illustrator 22.0.1, SVG Export Plug-In . SVG Version: 6.00 Build 0)  -->
<svg version="1.1" id="图层_1" xmlns="http://www.w3.org/2000/svg" xmlns:xlink="http://www.w3.org/1999/xlink" x="0px" y="0px"
	 viewBox="0 0 500 500" enable-background="new 0 0 500 500" xml:space="preserve">
<g>
	<path d="M322.1,252.6c-7.5-2.8-15-5.7-22.6-8.4c-7.5-2.6-14-8.2-23-0.2c-5.5,4.9-12.2-1.7-16.3-7.1c-4.1-5.3-1.8-10.1,2.9-13.6
		c6.7-5.1,12.4-13,25.1-6.5c-6.3-18-11.6-33.1-16.9-48.1c0.9-0.5,1.7-1,2.6-1.4c11.1,5,22.2,9.9,33.8,15.1c4-7.4-0.9-11.1-4.2-15.9
		c-14.1-20.6-30.4-40-40-63.4c0.6-0.6,1.3-1.3,1.9-1.9c16.3,12.3,32.6,24.6,48.9,37c1.1-0.9,2.2-1.9,3.2-2.8
		c-5-8.1-9.6-16.5-15.3-24.1c-7.6-10.2-16.1-19.8-24.2-29.6c-9.8-11.9-19.8-23.7-29.2-35.9c-6.5-8.4-12.1-17.3-18.1-26
		c1-1.1,2-2.2,3-3.3c4.2,2.4,9.1,4,12.5,7.2c8.2,7.4,15.4,15.1,26.4,19.6c9.5,3.9,16.1,14.3,24.9,20.4
		c18.2,12.6,37.2,23.8,55.4,36.4c9.4,6.5,17.3,15,26.6,21.7c6.4,4.7,14,7.8,21.1,11.6c0.9-0.7,1.9-1.4,2.8-2.1
		c-1.2-3.6-1.7-7.8-3.9-10.7c-9.3-13-19.5-25.5-28.7-38.7c-10.1-14.5-19.8-29.4-29.2-44.4c-2.9-4.7-4.2-10.3-6.6-16.4
		c21,10.2,40.1,19,58.8,28.7c18.5,9.6,34.1,24.4,53.7,31.9c0.8-0.7,1.6-1.4,2.3-2.1c-1.3-4.9-2.3-9.9-3.9-14.7
		c-6.4-18.8-5.1-21.2,16-25.1c9.8,29.4,19.6,59,29.5,88.6c-1,0.6-2,1.3-3,1.9c-2.8-1.8-5.5-3.8-8.4-5.5
		c-12.7-7.2-25.5-14.2-38.3-21.4c-6.3-3.5-12.4-7.2-18.6-11c-6.9-4.2-13.6-7.4-20.6,0C418.2,107,487.5,215.9,486,224
		c-45.3-32.6-90.3-65-135.4-97.4c-1.3,0.9-2.6,1.9-3.9,2.8c0.9,3.9,0.8,8.6,3,11.4c9.9,12.6,20.6,24.5,30.7,36.8
		c12.8,15.6,25.6,31.3,38,47.2c6.2,8,11.6,16.8,17.4,25.2c-0.8,0.8-1.6,1.5-2.4,2.3c-24.8-19-49.7-38-75-57.3
		c-1.7,2.6-3.8,5.7-5.7,8.6c7.9,11.1,15.6,22.1,23.4,33c-1,1.3-2.1,2.5-3.1,3.8c-8.5-4-17.1-7.9-25.5-12.1
		c-8.6-4.4-16.8-9.4-25.5-13.5c-2-1-6.2-0.1-7.8,1.6c-1.5,1.5-1.6,5.5-0.8,7.8c3.4,8.8,7.4,17.3,11.2,25.9
		C323.7,250.9,322.9,251.8,322.1,252.6z"/>
	<path d="M108.3,482.1c-4.4,2-9.5,1.9-13.9-0.2C83,476.6,71.9,472,62.6,465C38.3,447.1,17,426.1,9.4,395.2
		c-2.5-10.2-0.1-19.8,6.8-27.3c14.1-15.2,28.6-30,43.7-44.2c6.1-5.7,8.9-11.7,9.2-19.7c1.3-37.5,2.7-74.9,4.3-112.4
		c0.3-6.5,1-13.1,2.3-19.5c3.5-17.5,24.8-29,39.9-19.7c12.6,7.8,23.4,18.8,34.2,29.3c16.9,16.4,33,33.7,49.8,50.2c2,2,6.7,2.6,9.8,2
		c28.9-5.7,54.5,25.6,49.9,50c-0.7,3.6,2.1,8.9,4.9,11.8c21.9,22.1,44.3,43.8,66.4,65.7c9.9,9.8,13.9,27.2,8.3,39.1
		c-5.3,11.1-16.6,14.1-27.2,15.3c-19.6,2.2-39.3,2.8-59,3.7c-23.6,1.1-47.3,1.6-71,2.9c-3.7,0.2-8,2.8-10.8,5.5
		c-15.1,14.6-29.3,30.1-44.9,44.1C121.2,476.5,114.9,479.1,108.3,482.1z M291.7,400.4c0-0.1,0-0.2,0-0.2c4.9,0,9.9,0.2,14.8,0
		c7.6-0.4,15.8-2.4,16.7-10.7c0.6-5.4-2.6-12.7-6.5-16.8c-23.1-24.3-46.9-48-70.7-71.7c-4.4-4.4-5.9-8-3.8-14.6
		c6.4-20.6-10.8-40.2-32.1-35.8c-10.4,2.2-15.8-1.7-22.1-8c-23.1-23.5-46.3-46.7-69.6-70c-5-5-10.4-9.7-18.2-6.6
		c-8.1,3.2-10.8,9.5-11.1,17.9c-1.4,42.1-2.8,84.2-5,126.2c-0.3,6.2-3.6,13.4-7.9,18c-14,15.3-28.9,29.7-43.8,44.2
		c-8.7,8.5-10.7,17.9-5.2,28.6c14.1,27.5,34.4,48.9,62.4,62.2c13.1,6.2,19.8,4.5,30.1-5.9c14.2-14.2,28-28.8,42.6-42.6
		c4.2-4,10.5-7.5,16.1-7.9C216.1,404.1,253.9,402.4,291.7,400.4z"/>
	<linearGradient id="SVGID_1_" gradientUnits="userSpaceOnUse" x1="263.805" y1="440.7218" x2="91.323" y2="307.0228">
		<stop  offset="0" style="stop-color:#AF4700"/>
		<stop  offset="1" style="stop-color:#FF931E"/>
	</linearGradient>
	<path fill="url(#SVGID_1_)" d="M291.7,400.4c-37.8,2-75.6,3.7-113.3,6.3c-5.6,0.4-11.9,3.9-16.1,7.9
		c-14.6,13.8-28.4,28.4-42.6,42.6c-10.4,10.4-17.1,12.1-30.1,5.9c-28-13.3-48.4-34.7-62.4-62.2c-5.5-10.7-3.5-20.1,5.2-28.6
		c14.9-14.5,29.8-28.9,43.8-44.2c4.2-4.6,7.5-11.8,7.9-18c2.2-42.1,3.6-84.1,5-126.2c0.3-8.5,3.1-14.8,11.1-17.9
		c7.9-3.1,13.3,1.6,18.2,6.6c23.3,23.3,46.5,46.5,69.6,70c6.2,6.3,11.7,10.2,22.1,8c21.3-4.5,38.4,15.2,32.1,35.8
		c-2,6.6-0.6,10.1,3.8,14.6c23.8,23.7,47.5,47.4,70.7,71.7c3.9,4.1,7.1,11.4,6.5,16.8c-0.9,8.3-9.1,10.3-16.7,10.7
		c-4.9,0.2-9.9,0-14.8,0C291.7,400.2,291.7,400.3,291.7,400.4z"/>
</g>
</svg>
