<?xml version="1.0" encoding="utf-8"?>
<!-- Generator: Adobe Illustrator 22.0.1, SVG Export Plug-In . SVG Version: 6.00 Build 0)  -->
<svg version="1.1" id="图层_1" xmlns="http://www.w3.org/2000/svg" xmlns:xlink="http://www.w3.org/1999/xlink" x="0px" y="0px"
	 viewBox="0 0 500 500" enable-background="new 0 0 500 500" xml:space="preserve">
<g>
	<path d="M17.6,15.7c49.6,6.6,97.9,13.1,148.6,19.9c-11.4,11.9-21.5,22.5-33.7,35.1c15.2,14.3,30.2,28.2,44.8,42.3
		c14.7,14.2,28.9,28.8,43.7,42.9c5.2,4.9,5.2,8.6,0.1,13.6c-16.5,16.1-32.7,32.3-48.8,48.7c-5.4,5.5-9.1,6-15-0.1
		c-26.1-27-52.9-53.5-79.2-80.2c-5.4-5.4-9.2-4.9-14.4,0.7c-7.7,8.5-16.4,16.1-26,25.5C30.8,113.8,24.3,65.5,17.6,15.7z M35.6,33.6
		c2.2,16.3,4.1,31.6,6.3,46.9c2.2,15.5,4.7,30.9,7.1,47.2c3.1-1.2,4.4-1.5,5.4-2.2c13.8-9.7,24-8.4,35.4,3.3
		c22.9,23.4,46.2,46.3,69.1,69.7c4.2,4.2,7.3,4.2,11.3,0.1c9.5-9.7,19-19.5,28.9-28.8c5.7-5.3,5.3-8.7-0.2-14.1
		c-23.7-23-46.9-46.6-70.3-69.9c-12.6-12.6-12.9-21.7-0.9-33.9c0.6-0.6,0.8-1.7,2.2-4.8C98.3,42.6,67.3,38.2,35.6,33.6z"/>
	<path d="M335.7,35.6c50.6-6.8,98.8-13.3,148.5-20c-6.6,49-13,97.4-19.8,148.4c-9.5-9.1-18.4-16.4-25.7-25.1
		c-6.2-7.3-10.4-5.4-15.8,0.1c-26.2,26.5-52.6,52.8-78.5,79.6c-6.1,6.3-10,4.7-15-0.5c-15.6-16-31.3-31.9-47.3-47.5
		c-5.9-5.7-6.4-9.5,0-15.7c26.5-25.7,52.5-52,78.7-78c5.7-5.7,7.9-9.8-0.1-16.1C352,54.1,344.9,45.2,335.7,35.6z M450.1,128.4
		c1-0.4,2-0.8,3-1.3c4.5-31.2,9-62.3,13.5-93.8c-32.2,4.7-63.3,9.3-94.5,13.8c-0.1,0.9-0.2,1.9-0.4,2.8c2.4,2,5.4,3.6,6.9,6.1
		c2.2,3.6,5.4,8.6,4.3,11.7c-2.1,6.5-5.7,13.2-10.5,18.1c-23,23.8-46.4,47.1-70.1,70.2c-5.4,5.3-4.7,8.8,0.1,13.5
		c9.3,9,18.5,18.2,27.4,27.6c4.7,4.9,8.3,5.6,13.6,0.2c23.3-23.9,47-47.4,70.7-71c2.2-2.2,5.1-3.9,7.9-5.1
		C432.7,117.1,442.4,117.8,450.1,128.4z"/>
	<path d="M166.2,462.5c-51,6.8-99.2,13.2-148.6,19.8c6.7-49.7,13.1-97.9,19.9-148.2c9.4,9,18.2,16.5,25.9,25c5.4,6,8.9,6.6,14.8,0.6
		c26.3-26.9,53.1-53.3,79.3-80.2c5.4-5.6,9.2-5.3,14.4,0c16.1,16.4,32.4,32.7,48.9,48.7c5.5,5.3,5,9.1-0.4,14.4
		c-26.7,26-52.8,52.6-79.5,78.6c-6.5,6.4-6.3,10.2,0.8,16.1C150.1,444.4,157,453,166.2,462.5z M129.2,451.4c0.3-1,0.6-1.9,0.9-2.9
		c-2.5-2.3-5.7-4.2-7.5-7c-2-3.3-4.6-8-3.7-11.1c1.9-6.3,4.9-13,9.4-17.6c23.3-23.9,47-47.4,71-70.6c5.1-5,5.9-8.3,0.5-13.4
		c-9.4-8.9-18.4-18.2-27.4-27.6c-5.2-5.4-9.3-6.1-15.2,0c-23.1,24.1-46.8,47.6-70.3,71.3c-7.8,7.8-22.5,8.4-30.7,1.5
		c-1.6-1.3-3.6-2.2-7.2-4.5c-4.6,32.6-9,63.6-13.5,95.1C67.3,460.1,98.2,455.7,129.2,451.4z"/>
	<path d="M464.4,333.9c6.8,50.6,13.3,98.8,20,148.5c-49.2-6.6-97.4-13.1-148.4-19.9c9.4-9.7,17-18.4,25.5-25.9
		c6-5.3,5.7-9.2,0.6-14.3c-26.7-26.5-53.2-53.2-80.1-79.3c-5.9-5.7-6.2-9.2-0.3-14.9c16.3-15.8,32.2-31.9,48-48.2
		c5.4-5.6,9.1-6.1,15,0c26,26.7,52.6,52.8,78.7,79.4c5.7,5.8,9.6,6.7,15.5-0.3C446.1,350.4,454.7,343.2,464.4,333.9z M466.5,464.6
		c-4.5-31.8-9-62.8-13.5-94.3c-3.3,1.2-4.3,1.3-5.1,1.9c-14,10.3-24.1,8.9-36.8-4c-22.5-22.9-45.4-45.4-68-68.2
		c-4.3-4.3-7.6-4.8-12.1-0.1c-9.2,9.6-18.6,19-28.3,28.1c-6,5.6-5.3,9.3,0.5,14.9c23.5,22.8,46.5,46.2,69.6,69.3
		c12.6,12.6,12.9,21.7,1.3,34.2c-0.9,1-1.1,2.7-2,5C404,455.7,434.9,460.1,466.5,464.6z"/>
	<path d="M184.9,243.6c0-5.2,0-10.4,0-15.5c0-17.6,6.7-26.2,23.7-31.9c7.3-2.5,14.4-5.5,21.3-9c15.6-7.9,29.6-2.6,43.6,4.4
		c6.2,3.1,12,7.9,18.5,9.6c15.2,3.9,16,16.1,17,27.8c0.9,10.6,0.1,21.4,0.2,32.1c0.1,16.4-4.6,22.7-19,29.7
		c-9.4,4.6-18.3,10.7-26.8,16.9c-8.4,6.1-20.7,7.3-30,1.8c-12.6-7.6-26.1-13.9-37.4-23c-5.7-4.6-8.7-13.8-10.7-21.4
		C183.5,258.2,184.9,250.7,184.9,243.6C184.9,243.6,184.9,243.6,184.9,243.6z M200.8,225.2c0,15.1-0.1,28.5,0.1,42
		c0,1.5,0.8,3.5,1.9,4.3c12.3,9,24.7,17.8,39,28.1c0-18.4,0.1-33.5-0.2-48.7c0-2.1-1.7-5.2-3.5-6.2
		C226.4,238.2,214.4,232.1,200.8,225.2z M292.8,228.2c-13.8,5.3-26.1,9.8-38.2,14.9c-1.7,0.7-2.8,4.7-2.9,7.2
		c-0.3,10.7-0.1,21.4,0.1,32c0.1,3.5,1.1,7,1.7,11.1c11-6,20.9-11,30.2-16.7c3.6-2.2,8.3-6.1,8.6-9.6
		C293.5,254.8,292.8,242.3,292.8,228.2z M202.5,214.5c8.6,5,15.8,8.2,21.8,13c12.4,10,24.6,9.5,38.1,2.3c8.3-4.4,17.3-7.3,26-10.9
		c-0.1-1-0.1-2-0.2-3c-12.8-5.9-25.5-11.9-38.3-17.7c-1.5-0.7-3.9-0.3-5.6,0.4C231,203.6,217.9,208.6,202.5,214.5z"/>
	<path d="M185,415.8c0-0.6,0-1.3,0-1.9c0-36.6,1.5-38.7,35.6-51.2c3.6-1.3,7.2-2.6,10.6-4.4c15.4-8.6,28.9-1.5,42.6,4.7
		c8.1,3.7,16.1,7.4,24.1,11.3c8.9,4.3,10.3,13.5,11,21.3c1.3,14.1,1.4,28.6,0.1,42.7c-1,9.7-4.7,18.6-16,23.1
		c-10.5,4.2-20.2,11.1-29.6,17.7c-8.2,5.8-20.7,7.1-29.2,2c-12.8-7.7-26.7-14.2-38.3-23.4c-5.7-4.5-8.5-13.8-10.5-21.5
		C183.5,429.8,184.9,422.6,185,415.8C184.9,415.8,184.9,415.8,185,415.8z M200.4,395.4c0,4.7,0.6,8.5-0.1,12.1
		c-5.6,27.1,5.4,45,30.2,55.6c3.8,1.6,7.4,4,12,6.5c0-16.5,0.2-31-0.2-45.6c-0.1-3-2-7.2-4.4-8.5C226,408.6,213.7,402.4,200.4,395.4
		z M293.3,400.4c-2-0.7-2.3-0.9-2.6-0.9c-7.5,2.8-15.1,5.5-22.6,8.4c-16.8,6.4-16.9,6.4-16.9,23.9c0,6.8-0.1,13.6,0.1,20.3
		c0.1,4.3,0.7,8.5,1.2,13.8c12.2-6.7,23-12.1,33.4-18.5c3.2-2,6.8-6.2,7-9.6C293.8,425.4,293.3,412.8,293.3,400.4z M201.7,385.5
		c6.1,3.9,10.4,6.8,14.8,9.4c24.9,15,24.9,14.9,51.1,4.3c7.2-2.9,14.5-5.8,21.8-8.7c0-1.1,0-2.1,0-3.2c-13.3-6.2-26.6-12.4-40-18.4
		c-1-0.5-2.6-0.2-3.8,0.2C231.4,374.3,217.3,379.7,201.7,385.5z"/>
	<path d="M13.7,244.3c0.9-13.3-4.1-28.5,8-38.6c16.2-13.6,36.6-21.6,56.9-22.2c13.2-0.3,26.5,11.2,40.2,16
		c16.2,5.6,19.2,17.9,19.2,32.5c0,10,0,20.1,0,30.1c0,15-5,21.7-18.4,28.2c-9.5,4.6-18.5,10.5-26.9,16.8c-8.7,6.5-20.7,8-29.9,2.4
		c-12.6-7.6-26.2-13.8-37.5-22.9c-5.9-4.8-9-14.2-11.2-22.1C12.2,258.4,13.6,251.2,13.7,244.3z M71.3,299.8
		c0-17.8,0.2-32.3-0.2-46.9c-0.1-3-1.9-7.2-4.3-8.6c-12.2-7.1-24.7-13.4-37.9-20.4c0,14.4-0.1,28.3,0.1,42.2c0,2.3,1.2,5.5,2.9,6.8
		C44.2,281.6,56.8,289.9,71.3,299.8z M80,295.5c13.8-7.6,24.9-13.5,35.6-19.8c2.6-1.5,5.8-4.6,5.9-7.2c0.6-13.3,0.3-26.7,0.3-41.3
		c-13.8,5.3-26.1,9.9-38.2,14.8c-1.5,0.6-3.4,2.6-3.4,4C79.9,261.7,80,277.4,80,295.5z M117.9,219.4c0-1.1,0-2.3,0-3.4
		c-13.1-6.1-26.1-12.2-39.3-18.2c-1.1-0.5-2.7-0.4-3.8,0c-14.4,5.3-28.8,10.7-44.7,16.7c8.4,4.9,15.5,8.2,21.5,12.8
		c13.2,10,26.3,10.6,40.8,2.5C100.4,225.3,109.4,222.8,117.9,219.4z"/>
	<path d="M184.9,74.1c0.6-15.1-2.9-29.7,8.6-41c2-2,4.1-4.4,6.6-5.4c14.1-5.5,28-13,42.6-15c9.9-1.4,21.1,4.5,31.4,8.1
		c8,2.8,15.4,7.3,23.2,10.7c9.6,4.3,10.6,13.8,11.4,21.8c1.4,13.8,1.4,27.9,0.1,41.7c-1,10.1-4.6,19.2-16.5,23.7
		c-10.3,3.9-19.7,10.7-28.7,17.3c-8.5,6.2-20.7,7.7-29.9,2.1c-12.6-7.5-26.1-13.9-37.5-22.9c-5.8-4.6-8.9-13.7-11-21.4
		C183.5,87.3,184.9,79.8,184.9,74.1z M200.4,52.7c0,5.4,0.7,10.4-0.1,15c-4.5,24.2,3.9,41.1,26.9,50.8c5,2.1,9.4,5.8,15.3,9.5
		c0-17.2,0.4-31.8-0.3-46.3c-0.1-3.3-3-7.7-5.9-9.5C225,65.4,213.2,59.5,200.4,52.7z M293.2,56c-10.9,4.1-19.7,8.2-29,10.6
		c-11.1,2.9-14.5,9.1-13.2,20.1c1.1,8.9,0.2,18.1,0.4,27.1c0.1,2.9,0.9,5.8,1.5,9.3c11.8-6.3,22.4-11.6,32.5-17.8
		c3.3-2,7.2-6,7.4-9.3C293.7,83.3,293.2,70.4,293.2,56z M289.1,48.1c0-1.2,0-2.3,0-3.5c-13.1-6.1-26.2-12.2-39.3-18.1
		c-1.1-0.5-2.6-0.4-3.8,0c-14.4,5.3-28.7,10.7-44.7,16.7c8.4,4.9,15.5,8.2,21.5,12.8c13.2,10.1,26.3,10.6,40.8,2.5
		C271.6,54.1,280.6,51.5,289.1,48.1z"/>
	<path d="M364,244.3c0-1.9,0-3.9,0-5.8c0-30.6,2-33.5,30.4-44.9c5.3-2.1,11-3.8,16-6.6c15.9-8.7,29.5-1.2,43.3,5.4
		c7.4,3.5,14.8,7.1,22.4,10.4c9.7,4.1,10.9,13.6,11.7,21.7c1.3,14.1,1.5,28.6,0.1,42.7c-1,9.7-4.8,18.6-16.1,23
		c-10.3,4-19.8,10.6-28.8,17.1c-8.6,6.3-21,8-30,2.5c-12.6-7.6-26.1-14-37.5-23c-5.8-4.6-9.1-13.5-11.1-21.1
		C362.5,258.9,364,251.4,364,244.3C364,244.3,364,244.3,364,244.3z M379.3,223.8c0,14.4-0.1,28,0.1,41.6c0,2.4,0.8,5.8,2.4,7
		c12.4,9,25.2,17.5,39.7,27.4c0-18.3,0.2-33.7-0.2-49.1c-0.1-2.4-2.9-5.6-5.3-7C404.3,237,392.3,230.8,379.3,223.8z M472.4,227.2
		c-11,4.1-19.8,8.2-29.1,10.6c-11,2.9-14.6,9-13.3,20.1c1.1,8.9,0.2,18.1,0.4,27.1c0.1,2.9,0.9,5.9,1.5,9.4
		c11.7-6.3,22.4-11.6,32.5-17.8c3.4-2.1,7.3-6.6,7.6-10.3C473,253.9,472.4,241.3,472.4,227.2z M468.2,219.3c0-1.1-0.1-2.1-0.1-3.2
		c-7.5-3.7-15.3-6.8-22.3-11.2c-12.4-7.6-24.3-8.4-37.3-1.5c-8.3,4.4-17.4,7.1-27.3,11.1c6.3,3.9,10.9,6.8,15.5,9.8
		c14.4,9.4,28.7,16.7,46,5.6C450.3,225,459.6,222.8,468.2,219.3z"/>
	<path fill="#FF931E" d="M35.6,33.6c31.6,4.6,62.7,9,94.5,13.6c-1.4,3.1-1.6,4.1-2.2,4.8c-12,12.2-11.7,21.4,0.9,33.9
		c23.4,23.3,46.6,46.8,70.3,69.9c5.5,5.3,6,8.7,0.2,14.1c-10,9.2-19.4,19-28.9,28.8c-4,4.1-7.2,4.1-11.3-0.1
		c-23-23.3-46.3-46.3-69.1-69.7c-11.4-11.7-21.6-13-35.4-3.3c-1,0.7-2.3,0.9-5.4,2.2c-2.5-16.3-4.9-31.7-7.1-47.2
		C39.7,65.2,37.8,49.8,35.6,33.6z"/>
	<path fill="#FF931E" d="M450.1,128.4c-7.7-10.7-17.4-11.3-27.9-7c-2.9,1.2-5.7,2.9-7.9,5.1c-23.7,23.6-47.3,47.1-70.7,71
		c-5.3,5.4-8.9,4.7-13.6-0.2c-9-9.4-18.1-18.6-27.4-27.6c-4.9-4.7-5.6-8.2-0.1-13.5c23.7-23.1,47.1-46.5,70.1-70.2
		c4.8-4.9,8.4-11.6,10.5-18.1c1-3.2-2.2-8.1-4.3-11.7c-1.5-2.5-4.6-4.1-6.9-6.1c0.1-0.9,0.2-1.9,0.4-2.8
		c31.1-4.6,62.2-9.1,94.5-13.8c-4.5,31.5-9,62.7-13.5,93.8C452.1,127.6,451.1,128,450.1,128.4z"/>
	<path fill="#FF931E" d="M129.2,451.4c-30.9,4.4-61.8,8.7-93.7,13.3c4.5-31.5,8.9-62.5,13.5-95.1c3.6,2.2,5.6,3.1,7.2,4.5
		c8.3,7,23,6.4,30.7-1.5c23.5-23.7,47.2-47.3,70.3-71.3c5.9-6.1,9.9-5.5,15.2,0c9,9.3,18,18.7,27.4,27.6c5.4,5.1,4.6,8.4-0.5,13.4
		c-23.9,23.3-47.7,46.7-71,70.6c-4.5,4.6-7.5,11.3-9.4,17.6c-0.9,3.1,1.7,7.8,3.7,11.1c1.7,2.8,4.9,4.7,7.5,7
		C129.7,449.4,129.4,450.4,129.2,451.4z"/>
	<path fill="#FF931E" d="M466.5,464.6c-31.6-4.5-62.5-8.9-94.3-13.4c0.9-2.3,1.1-4,2-5c11.6-12.4,11.3-21.5-1.3-34.2
		c-23.2-23.2-46.1-46.5-69.6-69.3c-5.7-5.6-6.4-9.3-0.5-14.9c9.7-9.1,19.1-18.5,28.3-28.1c4.5-4.7,7.8-4.2,12.1,0.1
		c22.6,22.8,45.5,45.3,68,68.2c12.7,12.9,22.8,14.3,36.8,4c0.7-0.5,1.8-0.7,5.1-1.9C457.6,401.8,462,432.8,466.5,464.6z"/>
	<path fill="#FF931E" d="M200.8,225.2c13.5,7,25.6,13,37.3,19.5c1.8,1,3.4,4.1,3.5,6.2c0.3,15.2,0.2,30.3,0.2,48.7
		c-14.3-10.3-26.7-19.1-39-28.1c-1.1-0.8-1.8-2.8-1.9-4.3C200.8,253.7,200.8,240.2,200.8,225.2z"/>
	<path fill="#AF4700" d="M292.8,228.2c0,14,0.6,26.6-0.4,38.9c-0.3,3.5-5,7.4-8.6,9.6c-9.3,5.7-19.1,10.7-30.2,16.7
		c-0.7-4.1-1.6-7.5-1.7-11.1c-0.3-10.7-0.4-21.4-0.1-32c0.1-2.5,1.2-6.5,2.9-7.2C266.7,238,279,233.5,292.8,228.2z"/>
	<path fill="#FF931E" d="M202.5,214.5c15.4-5.8,28.6-10.9,41.8-15.8c1.7-0.6,4.1-1,5.6-0.4c12.8,5.7,25.6,11.7,38.3,17.7
		c0.1,1,0.1,2,0.2,3c-8.7,3.6-17.8,6.5-26,10.9c-13.5,7.2-25.7,7.7-38.1-2.3C218.3,222.7,211.1,219.5,202.5,214.5z"/>
	<path fill="#E6E6E6" d="M200.4,395.4c13.3,7,25.6,13.2,37.5,20.1c2.4,1.4,4.3,5.6,4.4,8.5c0.4,14.5,0.2,29.1,0.2,45.6
		c-4.6-2.5-8.2-4.8-12-6.5c-24.8-10.6-35.8-28.5-30.2-55.6C201,403.9,200.4,400.1,200.4,395.4z"/>
	<path fill="#969696" d="M293.3,400.4c0,12.4,0.5,25-0.3,37.4c-0.2,3.4-3.8,7.6-7,9.6c-10.3,6.4-21.2,11.9-33.4,18.5
		c-0.5-5.3-1.1-9.5-1.2-13.8c-0.2-6.8-0.2-13.6-0.1-20.3c0.1-17.5,0.1-17.5,16.9-23.9c7.5-2.8,15-5.6,22.6-8.4
		C291,399.5,291.3,399.7,293.3,400.4z"/>
	<path fill="#E6E6E6" d="M201.7,385.5c15.6-5.8,29.7-11.1,43.9-16.4c1.2-0.4,2.7-0.7,3.8-0.2c13.4,6.1,26.7,12.3,40,18.4
		c0,1.1,0,2.1,0,3.2c-7.3,2.9-14.5,5.8-21.8,8.7c-26.2,10.7-26.2,10.7-51.1-4.3C212.1,392.3,207.8,389.4,201.7,385.5z"/>
	<path fill="#E6E6E6" d="M71.3,299.8c-14.5-9.8-27-18.2-39.3-26.9c-1.7-1.2-2.9-4.5-2.9-6.8c-0.3-13.9-0.1-27.8-0.1-42.2
		c13.1,7,25.7,13.3,37.9,20.4c2.4,1.4,4.2,5.6,4.3,8.6C71.5,267.4,71.3,282,71.3,299.8z"/>
	<path fill="#969696" d="M80,295.5c0-18.1-0.1-33.8,0.2-49.5c0-1.4,1.9-3.4,3.4-4c12.2-4.9,24.4-9.5,38.2-14.8
		c0,14.7,0.3,28-0.3,41.3c-0.1,2.5-3.3,5.6-5.9,7.2C104.8,282,93.8,287.9,80,295.5z"/>
	<path fill="#E6E6E6" d="M117.9,219.4c-8.5,3.4-17.5,6-25.5,10.4c-14.5,8.1-27.5,7.5-40.8-2.5c-6.1-4.6-13.1-7.9-21.5-12.8
		c16-6,30.3-11.4,44.7-16.7c1.1-0.4,2.7-0.4,3.8,0c13.1,6,26.2,12.1,39.3,18.2C117.9,217.1,117.9,218.2,117.9,219.4z"/>
	<path fill="#E6E6E6" d="M200.4,52.7c12.7,6.9,24.6,12.8,35.8,19.6c2.9,1.8,5.8,6.1,5.9,9.5c0.6,14.5,0.3,29.1,0.3,46.3
		c-5.9-3.8-10.3-7.4-15.3-9.5c-22.9-9.7-31.4-26.6-26.9-50.8C201.2,63,200.4,58.1,200.4,52.7z"/>
	<path fill="#969696" d="M293.2,56c0,14.4,0.5,27.3-0.4,40c-0.2,3.3-4.2,7.3-7.4,9.3c-10.1,6.1-20.8,11.4-32.5,17.8
		c-0.6-3.5-1.4-6.4-1.5-9.3c-0.2-9,0.7-18.2-0.4-27.1c-1.3-11,2.2-17.2,13.2-20.1C273.5,64.2,282.3,60.1,293.2,56z"/>
	<path fill="#E6E6E6" d="M289.1,48.1c-8.5,3.4-17.5,6-25.4,10.4c-14.5,8.1-27.5,7.5-40.8-2.5c-6.1-4.6-13.1-7.9-21.5-12.8
		c15.9-6,30.3-11.4,44.7-16.7c1.1-0.4,2.7-0.5,3.8,0c13.1,6,26.2,12.1,39.3,18.1C289.1,45.8,289.1,46.9,289.1,48.1z"/>
	<path fill="#E6E6E6" d="M379.3,223.8c13,7,25,13.2,36.7,19.9c2.4,1.4,5.2,4.6,5.3,7c0.5,15.4,0.2,30.8,0.2,49.1
		c-14.5-9.9-27.3-18.5-39.7-27.4c-1.7-1.2-2.4-4.6-2.4-7C379.1,251.8,379.3,238.2,379.3,223.8z"/>
	<path fill="#969696" d="M472.4,227.2c0,14.1,0.6,26.7-0.4,39.1c-0.3,3.7-4.1,8.1-7.6,10.3c-10.1,6.2-20.7,11.5-32.5,17.8
		c-0.6-3.5-1.4-6.4-1.5-9.4c-0.2-9,0.7-18.2-0.4-27.1c-1.3-11.1,2.3-17.2,13.3-20.1C452.6,235.4,461.4,231.3,472.4,227.2z"/>
	<path fill="#E6E6E6" d="M468.2,219.3c-8.6,3.4-17.9,5.7-25.5,10.5c-17.4,11.1-31.6,3.8-46-5.6c-4.6-3-9.2-5.8-15.5-9.8
		c9.9-3.9,19-6.7,27.3-11.1c13-6.9,25-6.1,37.3,1.5c7.1,4.3,14.9,7.5,22.3,11.2C468.1,217.2,468.1,218.3,468.2,219.3z"/>
</g>
</svg>
