<?xml version="1.0" encoding="utf-8"?>
<!-- Generator: Adobe Illustrator 22.0.1, SVG Export Plug-In . SVG Version: 6.00 Build 0)  -->
<svg version="1.1" id="图层_1" xmlns="http://www.w3.org/2000/svg" xmlns:xlink="http://www.w3.org/1999/xlink" x="0px" y="0px"
	 viewBox="0 0 500 500" enable-background="new 0 0 500 500" xml:space="preserve">
<g>
	<path d="M170.1,399.9c0.8,17.4-12.1,19.5-22.2,24.7c-15.1,7.7-30.3,15.1-45.1,23.3c-11.8,6.6-21.3,1-30.9-4.5
		c-8.2-4.7-15.9-10.2-23.7-15.5c-7.7-5.3-15.9-10.1-22.4-16.5c-3.8-3.8-6.6-10.3-6.8-15.7c-0.8-21-1.1-42-0.2-62.9
		c0.5-10.9,4.8-20.2,17.2-24.2c16.3-5.2,32.1-12.3,48.3-18c7.1-2.5,10.3-6.4,9.7-14.1c-0.6-8.9,0.9-17.9-0.4-26.6
		c-3.2-21,11.7-38.7,30.9-45.4c24.6-8.7,48.8-18.4,73.4-27.2c5.3-1.9,7.3-4.2,7.1-9.8c-0.4-14.6-0.2-29.2-0.2-43.8
		c0-14.6,7.7-25.8,21.4-31c37-14,74.2-27.5,111-42c10.1-4,18.3,0.1,26.2,3.8c33,15.3,65.8,31.1,98.4,47.3
		c13,6.4,20.2,16.9,20.1,32.4c-0.4,38.8-0.4,77.6,0,116.3c0.2,20.5-14.4,28-29,35.9c-23.9,13-47.8,26.1-71.8,39.1
		c-11.8,6.4-23.2,14-35.7,18.7c-12.1,4.6-25,3.1-33.4-2.3c-9,6.5-15.5,12.2-22.8,16.4c-26.7,15.2-53.8,29.9-80.7,44.8
		C196,410,184,405,170.1,399.9z M462.9,132.6c-3.2,0.7-6,0.9-8.4,1.9c-34.6,13.7-69.2,27.6-103.8,41.4c-7.9,3.1-11.3,8.6-11.2,17.3
		c0.3,37,0.1,74,0.3,111c0,7.2,1,14.5,1.6,22.8c3.7-1.5,6-2.3,8.1-3.4c33.7-18.5,67-37.5,101.1-55.2c9.5-5,12.5-10.9,12.4-20.8
		C462.8,209.9,462.9,172.2,462.9,132.6z M226,111c3.5,3.1,4.7,4.5,6.1,5.4c30.2,17.2,60.3,34.6,90.9,51.1c4.5,2.4,12,2.4,17,0.5
		c35.5-13.3,70.8-27.3,106-41.2c4.6-1.8,8.8-4.5,14.6-7.4c-37-17.7-71.7-34.5-106.7-50.8c-4-1.9-10-2.2-14.1-0.8
		c-30,10.8-59.9,22.3-89.7,33.6C242.6,104.2,235.3,107.3,226,111z M204.1,385.5c2.6-0.7,4-0.9,5.2-1.5c23.6-13,46.9-26.6,70.8-38.9
		c8.7-4.5,11.4-9.9,11.1-19.1c-0.6-19.9-0.2-39.8-0.2-59.6c0-6.9,0-13.8,0-21.5c-29.1,11.1-56.5,21.4-83.7,32.4
		c-2.4,1-4.4,6-4.4,9.2c-0.3,29.1-0.1,58.2,0,87.3C203,377.4,203.7,381.1,204.1,385.5z M327.7,330.1c0.6-2.9,1.4-5.3,1.4-7.7
		c0.3-44.8,0.5-89.6,0.4-134.4c0-2.4-2.4-5.7-4.7-7c-25.9-15.4-52-30.5-78.1-45.6c-7.5-4.3-15.2-8.1-24.5-13.1
		c0,16.7,0.9,31.2-0.3,45.6c-0.8,10.6,4.1,15.6,12.5,19.5c18.3,8.5,36.1,18.3,54.9,25.5c16.8,6.4,20.7,19.5,21.4,34.3
		c0.9,18.8,0.8,37.7-0.5,56.5C309.3,317.7,315.9,324.8,327.7,330.1z M113.1,227.2c25.6,14.4,48.4,27.5,71.6,39.8
		c4.3,2.3,10.9,2.8,15.5,1.2c20.8-7.2,41.2-15.4,61.7-23.4c8.3-3.3,16.4-7.1,26.2-11.3c-4.1-2.9-5.9-4.6-8-5.6
		c-20.2-9.7-40.7-18.6-60.5-29c-10.8-5.7-20.1-6-31-0.8c-10.2,4.9-21.3,7.8-31.9,11.9C142.5,215.3,128.6,221,113.1,227.2z
		 M111.2,237.6c0,16.5,0.4,29.7-0.2,42.7c-0.3,7.6,2.9,11.9,9.4,15c11.3,5.3,22.6,10.5,33.5,16.4c13.1,7.1,20.2,18.4,20.4,33.5
		c0.1,7.5-0.2,14.9-0.4,22.4c-0.2,13.2,3.6,17.8,17.6,20.6c0-32.8,0.2-65.5-0.3-98.2c-0.1-3.9-3.5-9.2-6.9-11.4
		c-11.3-7.3-23.2-13.5-34.9-20.1C137.5,251.9,125.4,245.3,111.2,237.6z M100.2,430.3c18.9-10.6,35-19.4,50.7-28.7
		c2.1-1.2,3.3-5.3,3.4-8.1c0.3-13.5,0-27,0.2-40.4c0.1-7.5-3.4-9.6-10.1-7.3c-10,3.6-19.8,7.7-29.9,10.9
		c-10.8,3.4-16.3,9.3-14.5,21.5c1.1,7.6,0.2,15.6,0.2,23.4C100.2,410.2,100.2,418.9,100.2,430.3z M35.9,337.1
		c0,20.9,0,40.3,0.1,59.7c0,1.2,0.8,3,1.9,3.7c16.4,11.4,33,22.6,50.6,34.7c0-22.4,0.2-42-0.2-61.5c-0.1-3.4-1.5-8.4-4-9.8
		C69.1,354.7,53.4,346.6,35.9,337.1z M153.8,330.5c-19.4-9.4-37-18.1-55-26.3c-2.4-1.1-6.2,0.3-9.1,1.4c-13.3,4.8-26.6,9.9-39.8,15
		c-3,1.2-5.8,2.9-11.4,5.8c13.4,7.8,24.7,13.5,35,20.6c10.5,7.3,20.3,7.7,31.8,2.4C120.1,342.7,135.6,337.5,153.8,330.5z"/>
	<g>
		<path fill="#FF931E" d="M462.9,132.4c0,39.6-0.2,77.3,0.1,114.9c0.1,9.9-2.9,15.8-12.4,20.8c-34,17.7-67.4,36.7-101.1,55.2
			c-2.1,1.1-4.4,1.9-8.1,3.4c-0.6-8.3-1.6-15.5-1.6-22.8c-0.2-37,0-74-0.3-111c-0.1-8.7,3.3-14.1,11.2-17.3
			c34.6-13.8,69.2-27.6,103.8-41.4C457,133.3,459.7,133.1,462.9,132.4z"/>
		<path fill="#FF931E" d="M226,110.8c9.3-3.7,16.6-6.8,24.1-9.6c29.9-11.3,59.7-22.8,89.7-33.6c4.1-1.5,10.1-1.1,14.1,0.8
			c35,16.3,69.7,33.1,106.7,50.8c-5.7,2.9-10,5.6-14.6,7.4c-35.3,13.9-70.5,27.9-106,41.2c-5,1.9-12.5,1.9-17-0.5
			c-30.6-16.5-60.7-33.9-90.9-51.1C230.6,115.3,229.5,113.9,226,110.8z"/>
		<path fill="#FF931E" d="M204.1,385.3c-0.4-4.4-1.1-8.1-1.1-11.8c-0.1-29.1-0.3-58.2,0-87.3c0-3.2,2-8.3,4.4-9.2
			c27.2-10.9,54.6-21.2,83.7-32.4c0,7.8,0,14.7,0,21.5c0,19.9-0.4,39.8,0.2,59.6c0.3,9.3-2.4,14.6-11.1,19.1
			c-23.9,12.3-47.3,25.9-70.8,38.9C208.1,384.4,206.7,384.5,204.1,385.3z"/>
		<path fill="#FF931E" d="M327.7,329.9c-11.8-5.3-18.4-12.4-17.4-26.3c1.3-18.8,1.4-37.7,0.5-56.5c-0.7-14.8-4.6-27.9-21.4-34.3
			c-18.8-7.2-36.6-17.1-54.9-25.5c-8.5-3.9-13.4-8.9-12.5-19.5c1.1-14.3,0.3-28.8,0.3-45.6c9.3,5,17,8.8,24.5,13.1
			c26.1,15.1,52.2,30.2,78.1,45.6c2.2,1.3,4.7,4.6,4.7,7c0.1,44.8-0.1,89.6-0.4,134.4C329.1,324.6,328.3,327,327.7,329.9z"/>
		<path fill="#FF931E" d="M113.1,227c15.5-6.2,29.4-11.9,43.5-17.3c10.6-4.1,21.7-7.1,31.9-11.9c10.9-5.2,20.2-4.9,31,0.8
			c19.8,10.4,40.3,19.3,60.5,29c2.1,1,3.9,2.7,8,5.6c-9.8,4.3-17.9,8.1-26.2,11.3c-20.5,8-40.9,16.2-61.7,23.4
			c-4.5,1.6-11.2,1.1-15.5-1.2C161.5,254.5,138.7,241.4,113.1,227z"/>
		<path fill="#FF931E" d="M111.2,237.3c14.2,7.8,26.3,14.3,38.3,21c11.7,6.5,23.7,12.8,34.9,20.1c3.4,2.2,6.8,7.5,6.9,11.4
			c0.5,32.7,0.3,65.4,0.3,98.2c-14-2.8-17.8-7.3-17.6-20.6c0.1-7.5,0.5-14.9,0.4-22.4c-0.3-15.1-7.3-26.4-20.4-33.5
			c-10.9-5.9-22.3-11.1-33.5-16.4c-6.4-3-9.7-7.3-9.4-15C111.6,267,111.2,253.9,111.2,237.3z"/>
		<path fill="#FF931E" d="M100.2,430.1c0-11.5,0-20.1,0-28.8c0-7.8,0.9-15.7-0.2-23.4c-1.8-12.2,3.7-18.1,14.5-21.5
			c10.1-3.2,19.9-7.3,29.9-10.9c6.6-2.4,10.2-0.3,10.1,7.3c-0.2,13.5,0.2,27-0.2,40.4c-0.1,2.8-1.3,6.9-3.4,8.1
			C135.2,410.7,119.1,419.5,100.2,430.1z"/>
		<path fill="#FF931E" d="M35.9,336.8c17.5,9.5,33.2,17.7,48.4,26.7c2.5,1.5,3.9,6.5,4,9.8c0.4,19.5,0.2,39,0.2,61.5
			c-17.7-12.1-34.2-23.3-50.6-34.7c-1-0.7-1.9-2.4-1.9-3.7C35.9,377.1,35.9,357.7,35.9,336.8z"/>
		<path fill="#FF931E" d="M153.8,330.3c-18.2,7-33.7,12.3-48.5,18.9c-11.5,5.2-21.3,4.9-31.8-2.4c-10.3-7.2-21.6-12.8-35-20.6
			c5.6-2.9,8.4-4.6,11.4-5.8c13.2-5.1,26.5-10.2,39.8-15c2.9-1,6.8-2.5,9.1-1.4C116.8,312.1,134.5,320.9,153.8,330.3z"/>
	</g>
</g>
</svg>
