<?xml version="1.0" encoding="utf-8"?>
<!-- Generator: Adobe Illustrator 22.0.1, SVG Export Plug-In . SVG Version: 6.00 Build 0)  -->
<svg version="1.1" id="图层_1" xmlns="http://www.w3.org/2000/svg" xmlns:xlink="http://www.w3.org/1999/xlink" x="0px" y="0px"
	 viewBox="0 0 500 500" enable-background="new 0 0 500 500" xml:space="preserve">
<g>
	<path d="M326.8,232.6c19.8,0.8,39.7,1.3,59.5,2.6c7.2,0.5,14.5,1.9,21.2,4.4c3.6,1.4,7.4,5.5,8.7,9.2c7.3,19.8,13.5,40,20.7,59.8
		c4.1,11.3-3,20-6.6,28.9c-5.9,14.8-14.6,28.5-21.8,42.7c-9.4,18.5-18.5,37.2-27.7,55.8c-6.2,12.7-12.6,25.2-18.2,38.2
		c-3.8,8.7-10.5,11.4-18.7,10.9c-13.2-0.8-26.4-2-39.5-3.7c-13.7-1.7-27.4-3.5-40.7-6.6c-4.1-1-8.6-5.7-10.5-9.8
		c-9.2-20.1-17.8-40.6-26.1-61.1c-1.2-3.1-1.1-7.8,0.4-10.8c17-32.5,34.5-64.8,51.7-97.3c9.2-17.4,17-35.5,27.2-52.2
		c3.7-6.2,5.6-6.4,12-9.7C320.4,232.8,324.4,232.4,326.8,232.6z M247.9,393.7c6,1,9.8,1.8,13.7,2.2c15.8,1.7,31.7,2.5,47.4,5.2
		c9.8,1.7,14.3-1.7,18.5-10c21.4-42.6,43.3-85,65-127.5c1.1-2.2,1.7-4.6,2.8-7.9c-4.5-0.5-7.7-0.9-10.9-1.1
		c-16.2-1.1-32.5-1.6-48.6-3.5c-8.3-0.9-12.9,1.5-16.6,8.7c-19.6,37.6-39.6,75-59.5,112.5C256.1,378.9,252.4,385.4,247.9,393.7z
		 M404.6,268.5c-1,0-2,0-3,0c-1.3,2.1-2.8,4.2-3.9,6.4c-17,33.3-33.8,66.8-50.8,100.1c-17.3,33.9-17.5,33.8-2.8,69.3
		c1.5,3.7,3.7,7,5.9,11.1c1.8-1.9,2.7-2.5,3.1-3.3c21.3-43,42.7-86,63.9-129.1c1.5-3.1,2.9-7.4,2-10.5
		C414.7,297.6,409.5,283.1,404.6,268.5z M340.9,464.5c-6.7-17.3-12.5-33-19.1-48.4c-0.9-2.2-5.2-3.6-8.2-4.1
		c-13.1-2-26.2-3.6-39.4-5.1c-7.7-0.9-15.5-1.3-26.4-2.2c8,18.3,14.6,34.4,22.2,49.9c1.2,2.5,6.7,3.8,10.4,4.2
		c17.1,2.1,34.2,3.8,51.3,5.5C334.2,464.7,336.6,464.5,340.9,464.5z"/>
	<path d="M25.7,150.7c0.2-1.4,1.2-2.5,2.5-2.9C79.6,133,129.8,118.5,180,103.9c7.8-2.3,15.5-5.1,23.4-7.1c11.3-3,17.3,2,24.4,11.9
		c1.7,2.3,3.5,4.6,5.5,6.8c10.1,11.4,21.3,21.8,31.1,33.4c3.7,4.4,6.8,11.8,5.9,17c-3.6,20.1-7.9,40.2-13.9,59.7
		c-3.7,12-17,13.9-27.4,17.3c-28.9,9.6-58,18.4-87,27.7c-21,6.7-41.9,13.7-62.8,20.7c-7.2,2.4-13.3,1-17.8-4.8
		c-8-10.3-15.4-21.1-23.5-31.4c-4.5-5.7-9.9-10.6-14.7-16.1c-6.8-7.8-9.8-16.1-7.5-27.1C19.9,191.7,22.5,171.1,25.7,150.7z
		 M47.3,161.6c-0.9,0.3-1.2,1.4-0.6,2.1c12.6,15.4,24,29.6,35.8,43.3c1.5,1.8,6.3,2.2,9,1.3c44.9-13.6,89.8-27.5,134.7-41.4
		c6.8-2.1,13.6-4.5,20.7-6.8c-0.7-2.3-0.7-3.9-1.4-4.7c-10.8-12.5-21.4-25.2-33-37c-2.4-2.5-8.8-2.9-12.6-1.8
		c-40.7,11.5-81.3,23.6-121.9,35.5C68.2,154.9,58.5,158.1,47.3,161.6z M250.3,171.4c-4.8,0.5-7.5,0.4-9.9,1.2
		c-47.9,14.5-95.8,28.9-143.6,43.8c-3.9,1.2-9.1,4.9-9.9,8.3c-3.4,14.7-5.4,29.6-8,45.2c2.8-0.2,4.5-0.1,6-0.6
		c48.7-15.5,97.3-30.9,145.9-46.7c3.4-1.1,7.7-4.3,8.6-7.3C243.4,201.5,246.4,187.4,250.3,171.4z M43.5,173.3
		c-0.8-1-2.3-0.8-2.9,0.2c-0.9,1.7-1.6,2.7-1.7,3.8c-2.2,13.4-4.5,26.7-6.1,40.1c-0.4,2.9,1,6.6,2.7,9c8,10.9,16.4,21.6,24.8,32.2
		c1.9,2.4,4.5,4.2,7.2,6.8c1.4-2.3,2.5-3.3,2.7-4.5c2.5-13.3,5.1-26.6,7.2-40c0.4-2.3-0.3-5.5-1.8-7.4
		C65.4,200.4,54.9,187.5,43.5,173.3z"/>
	<path d="M377.9,224.1c-57-1.2-103.2-48.8-102.4-105.4c0.9-57.6,48.8-104.8,105.2-103.8c58.4,1,105.5,48.7,104.3,105.6
		C483.7,179.6,436.5,225.3,377.9,224.1z M463.6,119.6c-0.2-45.4-37.7-83.1-82.8-83.3c-46-0.2-83.8,37.8-84,84.3
		c-0.2,44.4,38.6,82.3,84,82.2C425.9,202.7,463.8,164.7,463.6,119.6z"/>
	<path fill="#FF931E" d="M247.9,393.7c4.5-8.3,8.2-14.9,11.7-21.5c19.9-37.5,39.9-74.9,59.5-112.5c3.8-7.2,8.4-9.7,16.6-8.7
		c16.1,1.8,32.4,2.3,48.6,3.5c3.2,0.2,6.5,0.7,10.9,1.1c-1.2,3.3-1.7,5.8-2.8,7.9c-21.7,42.5-43.6,84.9-65,127.5
		c-4.2,8.3-8.7,11.7-18.5,10c-15.6-2.7-31.6-3.5-47.4-5.2C257.7,395.5,253.9,394.7,247.9,393.7z"/>
	<path fill="#FF931E" d="M404.6,268.5c4.9,14.6,10,29.1,14.4,43.9c0.9,3.1-0.4,7.4-2,10.5C395.9,366,374.5,409,353.2,452
		c-0.4,0.8-1.3,1.4-3.1,3.3c-2.2-4-4.4-7.4-5.9-11.1c-14.7-35.4-14.6-35.4,2.8-69.3c17-33.3,33.9-66.7,50.8-100.1
		c1.1-2.2,2.6-4.3,3.9-6.4C402.6,268.5,403.6,268.5,404.6,268.5z"/>
	<path fill="#FF931E" d="M340.9,464.5c-4.3,0-6.8,0.2-9.2,0c-17.1-1.7-34.3-3.4-51.3-5.5c-3.7-0.5-9.1-1.7-10.4-4.2
		c-7.6-15.6-14.2-31.6-22.2-49.9c10.9,0.9,18.7,1.3,26.4,2.2c13.2,1.5,26.3,3.1,39.4,5.1c3,0.4,7.3,1.9,8.2,4.1
		C328.4,431.5,334.2,447.3,340.9,464.5z"/>
	<path fill="#FF931E" d="M46.8,163.7c-0.6-0.8-0.3-1.9,0.7-2.2c11.1-3.5,20.8-6.6,30.5-9.5c40.6-12,81.2-24,121.9-35.5
		c3.9-1.1,10.2-0.7,12.6,1.8c11.5,11.8,22.1,24.5,33,37c0.8,0.9,0.8,2.4,1.4,4.7c-7.1,2.3-13.9,4.7-20.7,6.8
		c-44.9,13.9-89.7,27.8-134.7,41.4c-2.7,0.8-7.5,0.4-9-1.3C70.7,193.2,59.4,179.1,46.8,163.7z"/>
	<path fill="#FF931E" d="M250.3,171.4c-3.8,15.9-6.8,30.1-10.9,43.9c-0.9,3.1-5.2,6.2-8.6,7.3c-48.6,15.8-97.2,31.2-145.9,46.7
		c-1.5,0.5-3.2,0.3-6,0.6c2.6-15.6,4.6-30.5,8-45.2c0.8-3.4,6-7.1,9.9-8.3c47.8-14.9,95.7-29.3,143.6-43.8
		C242.8,171.9,245.5,172,250.3,171.4z"/>
	<path fill="#FF931E" d="M40.7,173.4c0.6-1,2-1.1,2.7-0.2c11.4,14.3,22,27.2,32.2,40.4c1.4,1.9,2.2,5.1,1.8,7.4
		c-2.1,13.4-4.7,26.7-7.2,40c-0.2,1.2-1.2,2.2-2.7,4.5c-2.8-2.6-5.3-4.4-7.2-6.8c-8.4-10.6-16.8-21.3-24.8-32.2
		c-1.8-2.4-3.1-6.1-2.7-9c1.7-13.4,3.9-26.8,6.1-40.1C39.1,176.2,39.7,175.1,40.7,173.4z"/>
	<path fill="#E6E6E6" d="M463.6,119.6c0.2,45.1-37.7,83.1-82.8,83.2c-45.4,0.1-84.2-37.8-84-82.2c0.2-46.5,38-84.5,84-84.3
		C425.9,36.5,463.5,74.2,463.6,119.6z M316.2,118.6c-0.4,35.7,28,64.9,63.6,65.3c34.7,0.4,64.5-28.7,64.7-63.3
		c0.3-36-27.8-64.6-63.7-64.8C345.1,55.6,316.6,83.3,316.2,118.6z"/>
	<path d="M316.2,118.6c0.4-35.3,28.9-63,64.6-62.8c35.9,0.2,64,28.8,63.7,64.8c-0.3,34.6-30,63.7-64.7,63.3
		C344.3,183.5,315.9,154.3,316.2,118.6z M424.1,120.2c0.2-23.9-19.6-44.4-42.8-44.4c-24.7,0-44.5,19.4-44.7,43.7
		c-0.2,23.6,19.7,43.7,43.5,43.9C403.8,163.6,423.9,143.9,424.1,120.2z"/>
	<path fill="#E6E6E6" d="M424.1,120.2c-0.2,23.7-20.3,43.4-44.1,43.2c-23.7-0.2-43.6-20.3-43.5-43.9c0.2-24.3,20-43.7,44.7-43.7
		C404.5,75.8,424.2,96.3,424.1,120.2z M355.7,118.7c-0.2,15,10.6,26.1,25.2,25.9c12.7-0.1,24-11.3,24.2-24.1
		c0.3-14.9-10.3-25.5-25.4-25.5C366.2,95,355.9,105.2,355.7,118.7z"/>
	<path d="M355.7,118.7c0.2-13.5,10.5-23.7,24-23.7c15.2,0,25.7,10.6,25.4,25.5c-0.3,12.8-11.5,24-24.2,24.1
		C366.3,144.8,355.5,133.7,355.7,118.7z"/>
</g>
</svg>
