<?xml version="1.0" encoding="utf-8"?>
<!-- Generator: Adobe Illustrator 22.0.1, SVG Export Plug-In . SVG Version: 6.00 Build 0)  -->
<svg version="1.1" id="图层_1" xmlns="http://www.w3.org/2000/svg" xmlns:xlink="http://www.w3.org/1999/xlink" x="0px" y="0px"
	 viewBox="0 0 500 500" enable-background="new 0 0 500 500" xml:space="preserve">
<rect fill="#5A5A5A" width="500" height="500"/>
<path fill="#00FF00" d="M243.8,389.4c9.1-2,17.1-3.3,24.9-5.6c10-2.9,19.5-7.5,30.5-5.9c2.6,0.4,5.6-1.1,8.1-2.2
	c7.7-3.3,15.1-7.5,23.1-10.2c5.6-1.9,11.8-2.6,17.7-2.4c5.4,0.1,9.2-1.4,13.9-4.1c8.9-5.2,17-12.1,28.5-12.7
	c5.7-0.3,11.2-4.9,16.8-7.6c1.8-0.9,3.4-2.2,5.3-2.8c1-0.3,2.8,0.5,3.3,1.3c0.4,0.8-0.1,2.8-0.9,3.4c-8.2,6.1-15.8,13.3-26.9,13.8
	c-1.1,0.1-2.4,0.5-3.3,1.2c-6.2,4.2-12.6,8.2-18.4,13c-4.7,3.9-9.7,6.1-15.7,5.4c-6.8-0.8-12.3,1.6-18.4,4.9
	c-11.8,6.4-23.2,14.4-37.9,14.1c-4.7-0.1-9.9,2.3-14.2,4.7c-9.3,5.3-19.6,6.9-29.8,9.2c-2,0.5-3.9,1-6.1,1.7
	c-0.1,1.2-0.2,2.3-0.2,3.5c1,21.6,2,43.1,3,64.7c0.4,8.2-0.5,9.7-9,10.6c-6.3,0.6-12.7,0.1-19-0.6c-4.6-0.5-7.1-3.3-6.9-8.7
	c0.8-22.7,0.9-45.5,1.8-68.2c0.8-19,2.3-38,3.4-56.9c0.1-1.1-0.6-2.8-1.4-3.2c-5.5-2.7-11.4-4.9-16.8-7.8
	c-5.7-3.2-10.9-7.2-16.5-10.6c-2.8-1.8-6.3-2.7-8.9-4.6c-4.1-3-8.3-6.2-11.5-10.1c-7.4-8.8-18.2-12.6-26.9-19.4
	c-5.8-4.5-11.8-8.8-17.8-13.1c-2.6-1.8-5.2-3.5-8-4.9c-4.6-2.3-6.8-6.2-7.1-10.9c-0.3-5.6-2.2-10.2-6.9-13.6c1.4-4,3.8-5.3,6.3-1.7
	c2.7,3.9,5.2,8.1,6.7,12.6c1.3,3.8,2.5,6.1,6.8,7.6c4.9,1.7,9.1,5.5,13.7,8.3c9.5,5.6,19.3,10.8,28.6,16.8
	c5.6,3.6,10.4,8.4,15.6,12.5c1.7,1.3,3.4,2.6,5.3,3.6c6.8,3.6,13.7,7,20.6,10.5c1.6,0.8,3.2,1.9,4.9,2.5c4.5,1.5,9,2.7,14.7,4.4
	c0-6.9,0.1-13.8-0.1-20.8c0-1.1-1.3-2.3-2.3-3.2c-4.7-3.8-9.5-7.5-14.2-11.4c-4.5-3.7-9.1-7.5-13.4-11.4
	c-5.6-5.1-10.7-10.7-16.5-15.5c-5.1-4.2-8.8-8.9-10.9-15.3c-2.6-8.1-6.9-15.2-16-18.2c-2.4-0.8-4.7-4.4-5.5-7.2
	c-2.1-6.9-4.2-13.5-10.9-18.8c1.3-1.4,2.3-2.4,3-3.2c7.9,4.1,10.9,10.6,13.3,17.3c1.2,3.5,2.9,5.5,6.7,6.5
	c8.1,2.3,13.1,9.2,15.8,16.1c4.3,11,13,16.7,21.9,22.7c0.8,0.6,1.9,1,2.4,1.8c6,9.4,16.8,12.8,24.8,19.5c0.6,0.5,1.4,0.7,3,1.5
	c0-7-0.2-13.4,0-19.7c0.5-11.4,1-22.9,2-34.3c0.4-4.5-0.4-7.5-5-8.9c-1.3-0.4-2.5-1.4-3.7-1.5c-8.3-0.9-13.5-5.5-17.7-12.6
	c-1.8-3-7-4.1-10.6-6.1c-2.2-1.2-5.1-1.8-6.4-3.7c-4.1-6-7.5-12.6-11.5-18.8c-1.4-2.2-3.5-3.8-5.1-5.8c-3.9-4.8-7.7-9.7-11.4-14.6
	c-0.3-0.4,0-2,0.3-2.1c0.8-0.2,2.1-0.3,2.6,0.2c1.6,1.5,2.9,3.3,4.4,4.8c9.2,9.3,18.7,18.2,25.3,29.7c0.6,1.1,2.3,1.9,3.6,2.2
	c8.1,1.5,14.6,4.8,19.6,12.1c2.2,3.2,8.4,3.8,13,5.7c1.2-8.7,2.4-16.3,3.1-24c0.4-3.8,0.2-7.8-3.7-10.3c-0.7-0.4-1.1-1.3-1.4-2
	c-4.7-10.5-9.6-20.9-13.9-31.5c-1.2-3.1-0.8-6.9-0.3-10.7c4.7,11.2,9.3,22.3,17.6,31.3c0.6-0.1,1.3-0.1,1.9-0.2
	c0.5-5,2.1-10.2,1.2-14.9c-1.9-9.7-0.2-19.2,0.5-28.7c0.1-1.5,0.5-3.1,0.3-4.5c-2.2-14.3,0.8-28.2,3-42.2c0.2-1.6,0.3-3.6-0.5-4.8
	c-5.5-7.8-6.9-17-8.9-26c-0.8-3.6-2.2-7-3.7-10.4c-4-8.7-5.4-17.9-6-27.2c0.4-0.1,0.8-0.2,1.3-0.4c0.3,0.9,0.8,1.7,1,2.6
	c1.5,9.3,3.1,18.5,8.6,26.7c2.2,3.3,2.4,8,3.6,12c0.6,2,1.3,4,2,6c0.4-0.1,0.9-0.1,1.3-0.2c0.6-8.5,1.1-17,1.8-25.4
	c0.1-1.5,1.2-3,1.8-4.5c1.1,1.4,3,2.7,3.1,4.2c0.3,5-0.3,10.1-0.1,15.1c0.2,7.5,0.9,15,1.3,22.6c0.2,4.8,0,9.7,0.6,14.6
	c4.4-6.9,0.2-14.9,2.7-22.1c1.6,7.6,4.2,15,1.8,23c-0.8,2.5-1.5,5.1-2.3,7.7c-1.1,3.8,0.2,8.4-4,11.3c-0.8,0.5-0.5,2.9-0.4,4.4
	c0.7,6.5,1.5,13,3.5,20.3c2.9-4.1,5.8-8.2,8.8-12.2c1.7-2.3,3.4-4.8,5.7-6.3c3.7-2.3,6.1-4.9,6.3-9.6c0.2-3.5,1-7,2.1-10.4
	c3.9,8.2,0.7,19-6.3,23.9c-1,0.7-2.1,1.8-2.4,2.9c-2.5,7.9-6.8,14.5-13.7,19.4c-1.6,1.1-2.7,4.3-2.6,6.3c0.6,6.8,2,13.6,3.1,20.6
	c7.2-2,15.1-2.8,17.5-12c0.2-0.7,0.9-1.6,1.6-1.9c11.8-5.8,14.2-17.6,18.9-29.5c0.7,2,2,3.8,1.7,5c-2.9,10.8-7.3,20.9-15.8,28.6
	c-0.9,0.8-1.4,2.1-2,3.3c-2.6,5.6-6.6,9.5-12.4,12c-3.7,1.6-7.2,3.7-10.4,6.1c-1,0.8-1.4,3.4-1,4.9c2.3,9.2,1.8,18.3,1.3,27.6
	c-0.4,7.3,1.6,14.8,2.6,22.4c8.2-7.8,9.3-18.1,12.5-27.6c1.4-4.2,4.1-7.9,6-12c0.9-1.9,1.5-4,2.2-5.9c0.4-0.9,0.8-1.9,1.2-2.8
	c0.9,0.8,2.6,1.7,2.6,2.4c-0.1,2.6,0.1,6.1-1.5,7.6c-5.6,5.7-5,13-6.3,19.8c-0.9,4.6-1.6,9.2-2.6,14.8c5-3,9.9-5.8,14.5-8.8
	c6-4,12.2-7.9,17.7-12.6c3.3-2.8,6-6.7,8.2-10.6c2.9-5.2,6.1-9.7,11.4-13.1c4.7-3,8-8.1,12.1-12.1c1-1,2.6-1.3,3.9-2
	c-0.3,1.6,0,3.6-0.9,4.6c-4.8,5.5-10.1,10.7-15,16.2c-1.8,2-3.7,4.2-4.4,6.7c-3.3,12-12.8,18.6-21.7,25.9c-1.9,1.6-4,3.8-4.6,6.1
	c-1.4,5.5-4.8,10.8-2.3,17c0.6,1.4-0.4,4.5-1.7,5.5c-4.1,3.2-4.2,7.1-3.7,11.6c0.2,1.3,0.1,2.9-0.5,4c-8.1,13.2-7.3,30.2-18.4,42.4
	c-4.7,5.2-6.3,12-5.6,19.7c0.9,11.2,0,22.6,0.2,33.8C242.7,371.1,243.3,379.6,243.8,389.4z M241.9,294.9c2.7-4.7,5-8.4,6.8-12.3
	c0.9-1.8,0.6-4,1.4-5.9c1.4-3.2,3.3-6.2,4.6-9.4c1.2-2.8,2.7-5.8,2.6-8.7c-0.1-4.1,0.9-7.2,4.2-9.7c1.2-0.9,2.6-2.1,2.9-3.3
	c0.7-4.1,0.9-8.2,1.3-12.6c-5.8,3-11.4,6.2-17.3,9.1c-7.8,3.8-10,10-9.3,18.2c0.7,7.4,0.5,14.8,1,22.2
	C240.4,286.4,241.2,290.1,241.9,294.9z"/>
</svg>
