<?xml version="1.0" encoding="utf-8"?>
<!-- Generator: Adobe Illustrator 22.1.0, SVG Export Plug-In . SVG Version: 6.00 Build 0)  -->
<svg version="1.1" id="Layer_1" xmlns="http://www.w3.org/2000/svg" xmlns:xlink="http://www.w3.org/1999/xlink" x="0px" y="0px"
	 viewBox="0 0 500 500" style="enable-background:new 0 0 500 500;" xml:space="preserve">
<style type="text/css">
	.st0{fill:#5A5A5A;}
	.st1{fill:#00FF00;}
</style>
<rect x="-0.5" y="0" class="st0" width="501.5" height="501.5"/>
<path class="st1" d="M329.8,31.9c1.3,14.3,2.4,28.1,3.7,42c1.5,16,3.1,32,4.7,48.1c0.2,2.4,0.4,4.9,0.5,7.3c0,3.3-4.9,7.1-9.5,7.2
	c-6.6,0.1-13.1,0-20.3,0c-4.9,12.7-10.1,26.1-15.4,39.6c9.9,2.3,19.6,4.3,29.2,6.9c26,7.1,50.4,17.8,72.1,33.9
	c12.9,9.6,23.7,21.1,31.5,35.3c0.6,1,1.9,2.1,3,2.3c8.2,1.4,15.7,4.6,22.1,9.8c6.8,5.6,11.8,12.5,13.2,21.5c1.1,7-0.7,13.4-4.9,19.1
	c-4.3,5.9-10.7,8.8-17,11.8c-10.6,5.1-21.2,10.3-32.1,15.6c-3.9-7-7.7-13.7-11.5-20.5c-3-5.4-6-10.8-8.9-16.3
	c-6.2-11.6-4.2-26.8,7.7-34.8c-5.8-10.3-14-18.5-23.2-25.7c-24.2-18.9-52.2-28.9-82-34.7c-8.2-1.6-8.3-1.6-11.2,6
	c-16.1,41.6-32.2,83.2-48.3,124.7c-5.2,13.5-10.6,26.9-15.8,40.4c-0.6,1.6-1.2,3.3-2.1,5.9c9.1,0,17.7,0.4,26.2-0.1
	c12.7-0.7,25.4-2,38-3.2c2.7-0.3,4.1,0.6,5,3c3.9,10.7,5.6,21.7,4.3,33c-0.1,1.1-2.4,2.7-3.9,2.9c-9,1.3-18.1,2.5-27.2,3.2
	c-18.1,1.4-36.3,1.3-54.3-0.6c-2.5-0.3-3.5,0.7-4.3,2.8c-5.4,14.1-10.9,28.1-16.2,42.1c-1.6,4.1-4.1,6.8-8.7,7.4
	c-6.6,0.9-15-5.3-12.4-12.8c3.8-11,7.5-22,11.3-33.1c1.1-3.3,2.3-6.5,3.4-9.9c-7.8-1.9-15.6-3.7-23.2-5.7
	c-26.2-7-50.8-17.7-72.9-33.7c-18.9-13.7-33.6-31.1-41.1-53.3c-8.4-24.7-4.3-48.3,9.7-70.3c13.4-21,32.6-35.1,54.1-46.7
	c22.1-11.9,45.8-19.5,70.3-24.4c17.6-3.5,35.4-5.9,53.5-5.9c10.3,0,20.6,0,30.8,0.1c1.8,0,2.9-0.1,3.7-2.2
	c5.1-14.8,10.4-29.5,15.4-44.3c0.3-0.9-0.6-2.7-1.5-3.5c-4.4-3.7-9.1-7.1-13.4-11c-1.7-1.5-3-4-3.4-6.2c-0.3-1.9,0.3-4.7,1.7-6
	c22.5-22.2,45.1-44.1,67.7-66.1C328.3,32.8,328.9,32.6,329.8,31.9z M252.6,195.4c-2.2,0-3.7,0-5.2,0c-22.7-0.8-45.2,1.1-67.5,5.7
	c-26.8,5.6-52.3,14.5-74.9,30.5c-13.3,9.4-25.2,20.1-32.2,35.3c-7.4,15.8-7.2,31.5,1.4,46.6c7.2,12.6,17.5,22.5,29.5,30.5
	c15.5,10.3,32.5,17.3,50.3,22.3c11.7,3.3,23.7,5.7,35.7,8.5C210.8,314.7,231.6,255.3,252.6,195.4z"/>
</svg>
