<?xml version="1.0" encoding="utf-8"?>
<!-- Generator: Adobe Illustrator 23.0.3, SVG Export Plug-In . SVG Version: 6.00 Build 0)  -->
<svg version="1.1" id="图层_1" xmlns="http://www.w3.org/2000/svg" xmlns:xlink="http://www.w3.org/1999/xlink" x="0px" y="0px"
	 viewBox="0 0 500 500" style="enable-background:new 0 0 500 500;" xml:space="preserve">
<style type="text/css">
	.st0{fill:#FF931E;}
	.st1{fill:#AF4700;}
	.st2{display:none;fill:#969696;}
</style>
<g>
	<g>
		<path d="M373.3,100.3c0-14.2-7-24.4-20.2-30.7c-28.2-13.2-56.1-26.9-84.6-39.9c-5.7-2.5-13.7-3.7-19.2-2
			c-30.9,10.7-61.1,22.7-91.8,34.4c-18.2,7-22.9,13.7-22.9,33.9c0,16,0,32.2,0,48.1l0,0v25.2c0,8.7-0.5,17.7,0.2,26.4
			c0.5,5,1.5,11.2,4.7,14.7c11.2,12.2,23.9,22.5,38.2,31.7c2.5,1.7,5,4.5,7.7,6.5c4.5,3.2,9.2,6.5,14,9.5c4.5,3.2,10,5.5,13.7,9.5
			c12.7,13,34.2,18.5,48.1,11.5c8.5-4.2,16.7-9.2,24.9-14.2c23.7-14.5,50.6-22.9,72.8-40.7c8.7-7,14-13.5,14.2-22.9
			C373.6,167.6,373.6,134,373.3,100.3z M241.6,261.4c-2.2,0.5-2.7,0.7-3,0.5c-27.4-18-54.9-35.9-82.1-54.4c-2-1.2-3-5.5-3-8.2
			c-0.2-33.4-0.2-66.6-0.2-100c0-1.2,1-2.7,1.7-5c10,5.7,19.5,11.2,28.9,16.5c16.7,9.2,33.4,18,49.9,27.7c3.2,2,7,6.7,7.2,10.2
			C241.9,186.6,241.6,224,241.6,261.4z M239.1,129.5c-25.4-13.7-50.9-28.2-76.1-42.4c-1.5-0.7-2.5-2.7-5.2-6
			c23.7-9,46.1-15.7,66.9-25.9c23.4-11.7,44.2-9.7,65.4,4c9.2,6,20,9.7,29.9,14.5c10,4.7,20,9.5,32.2,15.2
			c-14.5,6-26.7,11.5-39.4,16.5c-20.5,8.2-41.2,16.2-61.9,23.9C247.3,130.7,242.1,131,239.1,129.5z M352.6,200.1
			c0,3.2-2,8.2-4.7,9.7c-30.7,17.5-61.9,34.4-93.5,51.9c0-38.7,0.2-74.8-0.2-111c0-7.5,2.5-10.5,9.5-13
			c24.7-9.2,48.9-19.7,73.3-29.4c10.5-4.2,16.7-1,16.7,10.5C353.9,145.7,353.4,172.9,352.6,200.1z"/>
		<path class="st0" d="M241.6,261.4c-2.2,0.5-2.7,0.7-3,0.5c-27.4-18-54.9-35.9-82.1-54.4c-2-1.2-3-5.5-3-8.2
			c-0.2-33.4-0.2-66.6-0.2-100c0-1.2,1-2.7,1.7-5c10,5.7,19.5,11.2,28.9,16.5c16.7,9.2,33.4,18,49.9,27.7c3.2,2,7,6.7,7.2,10.2
			C241.9,186.6,241.6,224,241.6,261.4z"/>
		<path class="st1" d="M352.6,200.1c0,3.2-2,8.2-4.7,9.7c-30.7,17.5-61.9,34.4-93.5,51.9c0-38.7,0.2-74.8-0.2-111
			c0-7.5,2.5-10.5,9.5-13c24.7-9.2,48.9-19.7,73.3-29.4c10.5-4.2,16.7-1,16.7,10.5C353.9,145.7,353.4,172.9,352.6,200.1z"/>
		<path class="st0" d="M352.1,88.8c-14.5,6-26.7,11.5-39.4,16.5c-20.5,8.2-41.2,16.2-61.9,23.9c-3.5,1.2-8.5,1.7-11.7,0
			c-25.4-13.7-50.9-28.2-76.1-42.4c-1.5-0.7-2.5-2.7-5.2-6c23.7-9,46.1-15.7,66.9-25.9c23.4-11.7,44.2-9.7,65.4,4
			c9.2,6,20,9.7,29.9,14.5C329.7,78.3,339.6,83.1,352.1,88.8z"/>
	</g>
	<g>
		<path d="M252.8,285.8c0-14.2-7-24.4-20.2-30.7c-28.2-13.2-56.1-26.9-84.6-39.9c-5.7-2.5-13.7-3.7-19.2-2
			C97.9,224,67.7,235.9,37,247.7c-18.2,7-22.9,13.7-22.9,33.9c0,16,0,32.2,0,48.1l0,0v25.2c0,8.7-0.5,17.7,0.2,26.4
			c0.5,5,1.5,11.2,4.7,14.7c11.2,12.2,23.9,22.5,38.2,31.7c2.5,1.7,5,4.5,7.7,6.5c4.5,3.2,9.2,6.5,14,9.5c4.5,3.2,10,5.5,13.7,9.5
			c12.7,13,34.2,18.5,48.1,11.5c8.5-4.2,16.7-9.2,24.9-14.2c23.7-14.5,50.6-22.9,72.8-40.7c8.7-7,14-13.5,14.2-22.9
			C253,353.2,253,319.5,252.8,285.8z M121.1,447c-2.2,0.5-2.7,0.7-3,0.5c-27.4-18-54.9-35.9-82.1-54.4c-2-1.2-3-5.5-3-8.2
			c-0.2-33.4-0.2-66.6-0.2-100c0-1.2,1-2.7,1.7-5c10,5.7,19.5,11.2,28.9,16.5c16.7,9.2,33.4,18,49.9,27.7c3.2,2,7,6.7,7.2,10.2
			C121.3,372.1,121.1,409.6,121.1,447z M118.6,315c-25.4-13.7-50.9-28.2-76.1-42.4c-1.5-0.7-2.5-2.7-5.2-6
			c23.7-9,46.1-15.7,66.9-25.9c23.4-11.7,44.2-9.7,65.4,4c9.2,6,20,9.7,29.9,14.5c10,4.7,20,9.5,32.2,15.2
			c-14.5,6-26.7,11.5-39.4,16.5c-20.5,8.2-41.2,16.2-61.9,23.9C126.8,316.3,121.6,316.5,118.6,315z M232.1,385.6
			c0,3.2-2,8.2-4.7,9.7c-30.7,17.5-61.9,34.4-93.5,51.9c0-38.7,0.2-74.8-0.2-111c0-7.5,2.5-10.5,9.5-13
			c24.7-9.2,48.9-19.7,73.3-29.4c10.5-4.2,16.7-1,16.7,10.5C233.3,331.2,232.8,358.4,232.1,385.6z"/>
		<path class="st0" d="M121.1,447c-2.2,0.5-2.7,0.7-3,0.5c-27.4-18-54.9-35.9-82.1-54.4c-2-1.2-3-5.5-3-8.2
			c-0.2-33.4-0.2-66.6-0.2-100c0-1.2,1-2.7,1.7-5c10,5.7,19.5,11.2,28.9,16.5c16.7,9.2,33.4,18,49.9,27.7c3.2,2,7,6.7,7.2,10.2
			C121.3,372.1,121.1,409.6,121.1,447z"/>
		<path class="st1" d="M232.1,385.6c0,3.2-2,8.2-4.7,9.7c-30.7,17.5-61.9,34.4-93.5,51.9c0-38.7,0.2-74.8-0.2-111
			c0-7.5,2.5-10.5,9.5-13c24.7-9.2,48.9-19.7,73.3-29.4c10.5-4.2,16.7-1,16.7,10.5C233.3,331.2,232.8,358.4,232.1,385.6z"/>
		<path class="st0" d="M231.6,274.4c-14.5,6-26.7,11.5-39.4,16.5c-20.5,8.2-41.2,16.2-61.9,23.9c-3.5,1.2-8.5,1.7-11.7,0
			c-25.4-13.7-50.9-28.2-76.1-42.4c-1.5-0.7-2.5-2.7-5.2-6c23.7-9,46.1-15.7,66.9-25.9c23.4-11.7,44.2-9.7,65.4,4
			c9.2,6,20,9.7,29.9,14.5C209.1,263.9,219.1,268.6,231.6,274.4z"/>
	</g>
	<g>
		<path d="M485.9,291.2c0-14.2-7-24.4-20.2-30.7c-28.2-13.2-56.1-26.9-84.6-39.9c-5.7-2.5-13.7-3.7-19.2-2
			c-30.9,10.7-61.1,22.7-91.8,34.4c-18.2,7-22.9,13.7-22.9,33.9c0,16,0,32.2,0,48.1l0,0v25.2c0,8.7-0.5,17.7,0.2,26.4
			c0.5,5,1.5,11.2,4.7,14.7c11.2,12.2,23.9,22.5,38.2,31.7c2.5,1.7,5,4.5,7.7,6.5c4.5,3.2,9.2,6.5,14,9.5c4.5,3.2,10,5.5,13.7,9.5
			c12.7,13,34.2,18.5,48.1,11.5c8.5-4.2,16.7-9.2,24.9-14.2c23.7-14.5,50.6-22.9,72.8-40.7c8.7-7,14-13.5,14.2-22.9
			C486.2,358.5,486.2,324.9,485.9,291.2z M354.2,452.3c-2.2,0.5-2.7,0.7-3,0.5c-27.4-18-54.9-35.9-82.1-54.4c-2-1.2-3-5.5-3-8.2
			c-0.2-33.4-0.2-66.6-0.2-100c0-1.2,1-2.7,1.7-5c10,5.7,19.5,11.2,28.9,16.5c16.7,9.2,33.4,18,49.9,27.7c3.2,2,7,6.7,7.2,10.2
			C354.5,377.5,354.2,414.9,354.2,452.3z M351.7,320.4c-25.4-13.7-50.9-28.2-76.1-42.4c-1.5-0.7-2.5-2.7-5.2-6
			c23.7-9,46.1-15.7,66.9-25.9c23.4-11.7,44.2-9.7,65.4,4c9.2,6,20,9.7,29.9,14.5c10,4.7,20,9.5,32.2,15.2
			c-14.5,6-26.7,11.5-39.4,16.5c-20.5,8.2-41.2,16.2-61.9,23.9C359.9,321.6,354.7,321.9,351.7,320.4z M465.2,391
			c0,3.2-2,8.2-4.7,9.7c-30.7,17.5-61.9,34.4-93.5,51.9c0-38.7,0.2-74.8-0.2-111c0-7.5,2.5-10.5,9.5-13
			c24.7-9.2,48.9-19.7,73.3-29.4c10.5-4.2,16.7-1,16.7,10.5C466.5,336.6,466,363.8,465.2,391z"/>
		<path class="st0" d="M354.2,452.3c-2.2,0.5-2.7,0.7-3,0.5c-27.4-18-54.9-35.9-82.1-54.4c-2-1.2-3-5.5-3-8.2
			c-0.2-33.4-0.2-66.6-0.2-100c0-1.2,1-2.7,1.7-5c10,5.7,19.5,11.2,28.9,16.5c16.7,9.2,33.4,18,49.9,27.7c3.2,2,7,6.7,7.2,10.2
			C354.5,377.5,354.2,414.9,354.2,452.3z"/>
		<path class="st1" d="M465.2,391c0,3.2-2,8.2-4.7,9.7c-30.7,17.5-61.9,34.4-93.5,51.9c0-38.7,0.2-74.8-0.2-111
			c0-7.5,2.5-10.5,9.5-13c24.7-9.2,48.9-19.7,73.3-29.4c10.5-4.2,16.7-1,16.7,10.5C466.5,336.6,466,363.8,465.2,391z"/>
		<path class="st0" d="M464.7,279.7c-14.5,6-26.7,11.5-39.4,16.5c-20.5,8.2-41.2,16.2-61.9,23.9c-3.5,1.2-8.5,1.7-11.7,0
			c-25.4-13.7-50.9-28.2-76.1-42.4c-1.5-0.7-2.5-2.7-5.2-6c23.7-9,46.1-15.7,66.9-25.9c23.4-11.7,44.2-9.7,65.4,4
			c9.2,6,20,9.7,29.9,14.5C442.3,269.2,452.2,274,464.7,279.7z"/>
	</g>
</g>
<circle class="st2" cx="250" cy="52.1" r="4.2"/>
<circle class="st2" cx="78.7" cy="151.1" r="4.2"/>
<circle class="st2" cx="78.7" cy="348.9" r="4.2"/>
<circle class="st2" cx="250" cy="447.9" r="4.2"/>
<circle class="st2" cx="421.3" cy="348.9" r="4.2"/>
<circle class="st2" cx="421.3" cy="151.1" r="4.2"/>
</svg>
